{"glyphs":{"0":{"ha":743,"x_min":-12,"x_max":732,"o":"m 522 269 q 467 271 500 264 q 385 198 435 213 q 330 198 345 186 q 291 255 311 214 q 270 321 269 298 q 264 347 270 327 q 266 372 261 363 q 260 394 264 380 q 256 414 257 409 q 266 452 253 435 q 256 474 265 468 q 249 475 254 475 q 241 476 244 475 q 205 456 226 473 l 187 456 l 187 460 q 220 478 200 468 q 252 494 245 491 q 254 527 256 517 q 250 534 250 541 q 264 625 256 603 l 266 642 q 269 643 267 642 q 272 644 271 644 q 277 657 274 647 q 281 670 279 667 q 298 684 286 674 q 314 698 310 692 q 326 716 328 717 q 338 720 330 718 q 349 724 345 722 q 425 678 371 723 q 433 675 427 676 q 441 672 439 674 q 447 627 458 656 q 456 620 450 626 q 463 613 460 614 q 476 612 467 612 q 486 613 486 613 q 502 604 492 612 q 517 593 514 595 q 475 551 493 561 q 479 488 475 502 q 475 474 476 477 q 479 469 476 472 q 484 464 483 465 q 489 399 494 441 q 469 339 484 357 q 473 327 471 331 q 487 319 477 322 q 502 313 498 317 q 519 295 517 296 q 522 291 521 292 l 522 269 m 726 720 q 693 766 725 724 l 675 768 q 699 831 673 816 q 690 870 700 858 q 679 880 688 873 q 665 894 671 888 q 659 907 663 897 q 651 920 655 918 q 639 922 645 921 q 633 931 636 924 q 627 940 630 938 q 616 942 623 941 q 610 955 614 945 q 602 966 607 964 q 580 977 596 970 q 558 989 565 983 q 553 995 556 989 q 548 1000 549 1000 q 543 1002 547 1001 q 538 1002 540 1002 q 532 1015 536 1004 q 526 1027 528 1025 q 494 1027 527 1026 q 441 950 441 950 l 437 950 q 436 951 437 951 q 435 952 435 952 q 441 998 442 1000 q 432 1015 439 1005 q 423 1031 424 1025 q 421 1051 419 1054 l 411 1061 q 370 1063 372 1063 q 363 1059 368 1063 q 356 1055 359 1056 l 334 1055 q 245 1039 269 1031 q 149 981 209 991 q 163 918 149 986 q 136 924 165 918 q 96 918 117 921 q 56 861 98 927 q 44 840 46 847 q 43 830 43 836 q 42 821 42 824 q 38 819 41 820 q 34 817 34 818 l 32 793 q 12 704 -4 732 q 19 695 14 701 q 28 686 26 688 q 41 685 33 686 q 52 684 49 683 q 64 688 68 688 q 72 680 69 683 q 74 674 73 678 q 3 658 14 661 q -1 614 -1 644 q -1 571 1 580 q 5 432 -12 500 q 5 382 9 418 q 3 333 1 345 q 8 292 5 321 q 14 256 11 265 l 12 236 q 22 186 21 197 l 30 188 q 32 297 23 246 q 34 321 36 324 q 40 331 34 322 q 47 329 45 330 q 68 297 61 322 l 68 279 q 83 266 71 272 q 100 254 97 260 q 105 216 108 241 q 104 174 102 185 q 109 99 113 127 q 102 43 100 54 q 112 -102 109 5 q 126 -248 115 -198 l 130 -248 q 129 -155 132 -227 q 132 -58 127 -94 q 128 -36 131 -67 l 132 -20 q 130 33 134 39 l 136 37 q 137 47 139 41 q 136 59 136 54 q 161 119 149 113 q 165 121 162 120 q 183 99 165 122 q 219 95 216 98 q 235 35 220 94 q 243 -155 261 -66 q 245 -159 244 -157 l 256 -159 q 266 -79 254 -113 q 264 -62 267 -75 q 264 -46 262 -49 l 267 -44 q 270 -42 269 -43 q 270 -29 271 -37 q 272 -14 269 -21 l 272 8 q 290 41 274 14 q 309 38 297 41 q 332 35 321 35 q 336 22 333 29 q 340 10 340 13 q 342 -16 343 1 q 342 -38 342 -33 q 346 -52 343 -43 q 351 -64 350 -61 q 349 -79 351 -69 q 349 -92 347 -89 q 351 -98 349 -94 q 354 -102 354 -102 q 356 -189 342 -155 l 360 -191 q 370 -115 370 -166 l 368 -66 q 372 -62 368 -66 q 374 -58 374 -59 q 372 -39 374 -52 q 368 -20 370 -26 q 380 -3 366 -27 q 388 14 383 0 q 397 28 391 24 q 451 51 405 36 q 469 -157 492 -49 q 471 -208 467 -171 q 463 -250 474 -237 q 465 -266 463 -260 q 471 -264 469 -265 q 475 -243 474 -260 q 477 -218 476 -223 q 484 -168 481 -203 q 492 -113 488 -131 q 490 -81 494 -102 q 494 -46 488 -75 q 490 -22 495 -38 q 492 4 487 -7 q 505 43 494 12 q 519 81 512 67 q 542 102 524 89 q 562 125 557 115 l 566 125 q 572 -26 582 52 q 578 -52 572 -31 q 576 -81 583 -68 q 582 -88 578 -86 q 586 -90 583 -90 q 590 -88 587 -90 q 596 37 602 49 q 595 47 598 41 q 592 55 592 55 q 596 75 592 53 q 595 94 597 80 q 596 117 593 107 q 647 262 622 214 q 649 264 646 262 q 654 239 654 256 q 657 210 655 218 q 687 81 690 75 l 691 79 q 681 204 701 108 q 685 214 682 201 q 685 260 683 205 q 681 287 682 279 q 686 295 682 290 q 691 303 690 300 q 694 338 694 313 q 697 374 692 362 q 693 385 694 387 q 697 391 694 387 q 701 397 701 396 q 700 406 703 401 q 697 412 697 412 q 715 462 715 451 q 717 481 715 466 q 718 507 718 496 q 711 521 717 510 q 724 545 721 530 q 718 581 726 559 q 726 627 728 613 q 722 650 722 650 q 725 656 722 651 q 730 664 729 662 q 725 693 732 675 q 726 720 718 710 z "},"1":{"ha":455,"x_min":5,"x_max":409,"o":"m 60 526 q 79 549 64 532 q 98 574 92 564 q 108 594 102 580 q 119 614 114 608 q 134 629 123 620 q 149 644 144 639 q 153 652 150 646 q 157 659 155 656 l 157 661 l 159 661 q 128 562 159 669 q 111 485 104 476 l 111 483 l 120 483 q 146 526 120 475 q 149 546 147 529 q 185 606 170 595 l 185 608 l 189 608 q 197 547 189 614 l 195 522 q 204 503 197 515 q 213 485 211 490 q 219 451 212 490 q 221 393 221 440 q 220 383 221 390 q 219 376 219 377 q 224 345 220 372 q 231 312 228 323 q 225 294 224 284 q 227 279 224 290 q 225 263 229 270 q 224 262 225 263 q 223 261 224 262 q 229 239 230 241 q 227 236 229 239 q 225 231 224 234 q 231 220 226 227 q 235 209 235 214 q 256 74 235 153 q 250 35 256 71 q 250 -26 252 22 q 256 -92 247 -69 q 252 -102 252 -103 q 254 -114 252 -109 q 268 -79 273 -109 q 270 -44 265 -68 q 275 -5 275 -16 q 279 -37 283 -16 q 277 -71 274 -61 q 281 -79 278 -73 q 286 -87 285 -85 q 287 -117 288 -95 q 288 -146 286 -140 q 310 -315 311 -265 q 313 -319 311 -317 q 316 -321 315 -321 l 316 -323 q 319 -321 317 -323 q 322 -317 321 -319 q 320 -249 327 -280 q 321 -239 319 -245 q 324 -233 324 -233 q 319 -190 320 -219 q 314 -144 317 -159 q 316 -114 311 -133 q 306 -41 324 -79 q 326 -23 306 -39 q 334 -29 325 -22 q 336 -48 334 -37 q 338 -64 338 -62 q 336 -68 338 -65 q 334 -75 333 -72 q 345 -102 342 -104 q 349 -112 345 -106 q 356 -104 355 -110 q 355 -92 357 -103 q 354 -77 353 -83 q 362 52 374 -22 q 366 76 366 72 q 364 157 360 132 l 364 201 q 380 245 364 229 q 350 283 380 243 q 350 286 350 283 q 354 294 351 287 l 360 294 q 366 305 361 298 q 372 316 371 312 q 370 333 374 319 q 366 356 366 349 q 372 449 369 439 q 382 515 363 492 q 360 549 382 538 q 389 568 361 550 q 389 595 387 578 q 391 618 391 614 q 387 623 391 621 q 385 626 385 627 q 395 650 396 643 l 391 656 q 393 681 392 677 q 389 684 391 682 q 387 687 388 686 q 393 749 382 706 q 394 783 396 762 q 393 808 393 806 q 389 852 395 823 l 393 907 q 391 930 392 911 q 400 966 393 942 q 409 998 406 987 q 361 996 377 1020 q 351 970 357 988 q 340 947 345 953 l 340 945 l 338 945 q 336 1004 338 994 q 283 994 339 1003 l 283 985 q 271 977 278 983 q 262 971 264 971 q 254 923 263 942 l 254 909 q 231 1000 238 918 q 213 1006 218 1000 q 201 998 205 1003 q 193 989 195 991 q 178 989 191 988 q 163 985 165 989 l 161 969 q 155 957 159 965 q 149 945 150 948 q 146 929 147 931 q 144 928 146 928 q 140 927 142 927 q 130 909 133 915 q 120 882 116 876 q 117 880 119 882 q 113 878 114 879 q 111 870 111 875 l 111 864 q 84 840 105 851 q 82 828 84 833 q 96 822 92 821 q 88 805 94 815 q 80 789 81 794 q 73 760 77 780 q 64 729 68 740 q 52 703 61 722 q 40 677 43 685 q 39 669 39 674 q 38 663 38 665 q 28 650 33 657 q 26 630 20 625 q 28 623 26 625 q 28 621 28 622 q 30 621 29 621 q 50 650 56 654 l 70 654 q 92 679 74 659 l 94 679 q 49 568 86 642 q 5 453 13 497 q 9 449 8 450 q 10 448 9 448 q 12 447 11 447 l 12 449 q 30 479 20 454 q 45 515 43 511 q 53 520 47 517 q 60 526 58 524 z "},"2":{"ha":688,"x_min":-5,"x_max":782,"o":"m 332 5 q 338 7 334 6 l 338 13 q 425 15 429 14 q 429 10 427 14 q 433 5 432 6 l 450 5 q 487 1 457 3 q 520 -7 511 -2 q 548 -94 526 -9 q 548 -122 553 -112 q 558 -126 551 -124 q 564 -122 560 -124 q 562 -56 566 -110 q 570 3 559 -13 q 574 9 571 5 q 591 3 581 9 q 607 -1 602 -1 q 627 5 612 -1 q 649 7 639 10 q 734 9 687 -4 q 732 19 733 17 q 730 29 731 25 q 709 31 721 33 q 692 29 696 28 q 675 41 698 27 q 637 52 675 41 q 607 56 633 53 q 581 64 587 59 q 577 68 580 64 q 574 74 575 73 l 562 74 q 555 79 559 75 q 548 86 550 85 q 541 87 545 87 q 534 86 535 85 q 488 104 499 96 q 487 105 488 104 q 486 106 486 106 q 631 110 522 119 q 659 114 642 109 q 682 116 674 118 q 690 111 684 115 q 697 106 695 106 l 718 106 q 766 86 758 96 q 772 87 770 87 q 778 102 768 83 q 766 118 768 109 q 721 139 757 120 q 680 157 688 157 q 686 164 679 155 q 770 126 727 162 q 776 128 774 127 q 780 132 779 130 q 752 172 782 136 q 667 195 739 187 q 657 194 664 195 q 647 193 650 193 q 623 193 639 195 q 599 193 607 191 q 467 215 486 220 q 434 216 456 212 q 405 215 414 220 l 395 215 q 405 229 397 222 q 417 239 415 236 q 432 266 422 247 q 448 292 440 283 q 460 302 450 296 q 473 314 470 309 q 478 328 476 317 q 481 342 479 338 q 496 350 488 345 q 506 369 502 356 q 514 391 511 385 q 527 404 517 395 q 541 418 537 413 q 543 430 543 423 q 544 439 543 437 q 552 450 546 442 q 560 463 559 459 q 564 477 562 467 q 568 491 566 486 q 581 501 572 496 q 595 509 592 507 q 603 519 598 512 q 611 530 608 527 q 609 536 610 534 q 594 561 608 550 q 572 580 575 575 q 572 581 572 581 q 570 582 571 582 q 594 584 578 585 q 618 586 610 583 q 637 596 626 588 q 653 606 648 604 q 671 719 647 676 l 667 723 q 668 739 666 728 q 669 751 670 749 q 667 757 669 751 q 663 764 663 762 q 663 779 663 766 q 661 798 663 791 q 656 808 660 801 q 651 818 652 814 q 655 828 649 823 q 645 854 655 831 q 601 850 606 854 q 589 852 593 850 q 611 913 596 901 q 583 945 607 924 q 564 964 578 948 q 544 981 552 977 q 508 987 541 983 q 475 1000 509 987 l 458 1000 q 405 1002 431 1006 q 393 1004 399 1000 q 383 1009 385 1009 q 363 1008 380 1010 q 326 1009 352 1006 q 292 1006 304 1011 q 283 998 289 1004 q 274 991 277 993 q 270 939 275 978 l 266 939 q 258 954 264 945 q 250 967 252 962 q 241 994 241 994 q 233 998 239 995 q 224 1004 227 1001 q 201 989 210 1002 q 185 971 191 975 q 171 966 181 968 q 157 961 161 964 q 151 953 155 960 q 145 945 148 947 q 130 939 142 943 q 117 930 119 935 q 114 922 115 928 q 111 911 113 915 q 90 888 104 903 l 90 878 q 83 873 89 876 q 75 868 76 870 q 71 860 73 866 q 66 852 69 854 q 59 850 65 851 q 52 846 54 848 q 40 822 32 817 q 44 798 43 793 q 30 751 33 764 q 18 689 24 728 q 9 630 12 639 q 2 553 -5 548 q 12 547 4 551 q 16 449 9 460 q 22 431 16 437 l 26 431 q 22 450 26 435 q 22 467 20 462 q 27 475 22 468 q 32 485 31 481 q 30 507 31 500 q 36 555 30 536 l 34 588 q 42 604 35 593 q 50 621 48 616 q 58 654 52 625 q 71 687 63 675 q 83 698 71 688 q 98 711 96 707 q 106 724 102 715 q 115 739 109 733 l 117 739 q 106 703 111 726 q 98 667 100 673 q 90 642 90 639 q 88 608 91 615 q 83 302 40 456 q 96 310 83 302 q 90 326 97 305 q 90 341 89 332 q 90 358 92 351 q 87 367 90 361 q 84 376 85 373 q 88 381 85 377 q 92 387 92 385 q 92 419 98 399 q 86 443 85 439 q 92 450 87 444 q 96 459 96 456 q 92 477 96 457 q 95 481 92 479 q 98 485 98 485 q 100 507 100 500 q 107 519 102 512 q 115 530 113 527 q 120 550 119 537 q 125 572 122 564 q 133 580 130 577 q 140 601 136 587 q 147 623 143 615 q 201 693 161 650 l 205 693 q 171 612 208 701 q 166 575 166 600 q 163 540 166 549 q 157 471 146 486 q 165 473 160 469 q 165 485 165 475 q 165 499 164 496 q 262 650 198 623 q 326 665 316 674 q 355 638 347 663 q 351 581 361 624 q 330 530 340 542 q 347 499 331 514 q 365 471 363 484 q 266 422 321 468 q 256 364 257 366 q 237 352 255 363 q 230 332 245 350 q 214 312 210 306 q 205 277 209 293 q 189 250 201 269 q 173 223 177 233 q 173 214 172 219 q 173 205 174 208 q 160 191 171 199 q 145 178 148 182 q 143 168 144 175 q 135 160 141 165 q 127 153 128 155 q 118 134 123 147 q 109 116 113 122 q 98 109 106 113 q 88 102 91 105 q 85 95 87 100 q 83 87 84 90 q 78 85 81 86 q 73 84 74 85 q 44 47 56 73 q 43 28 40 39 q 46 5 48 14 q 50 -54 41 -20 l 48 -87 q 50 -144 56 -124 q 62 -160 56 -148 l 66 -160 q 66 -110 70 -119 q 73 -106 68 -107 q 90 -9 60 -70 q 133 9 135 9 q 147 9 137 10 q 161 11 156 9 q 167 7 163 9 q 170 -7 170 1 q 171 -19 171 -17 q 180 -39 173 -25 q 189 -60 188 -53 q 188 -88 192 -70 q 185 -114 184 -108 q 197 -138 186 -117 q 203 -184 192 -149 q 208 -235 199 -201 q 203 -253 206 -241 q 216 -356 216 -281 q 226 -354 221 -355 q 222 -245 228 -279 l 224 -225 q 226 -201 226 -205 q 226 -114 220 -136 l 224 -104 q 233 -87 225 -99 q 241 -71 240 -76 q 254 -17 234 -45 l 258 -17 q 274 -35 266 -28 q 284 -164 273 -114 q 292 -224 298 -229 q 288 -229 291 -227 q 294 -265 293 -239 l 292 -277 l 295 -279 q 298 -281 298 -281 l 296 -305 q 302 -323 302 -322 q 302 -378 309 -368 l 302 -388 q 313 -382 316 -380 q 313 -283 308 -339 q 311 -254 313 -278 q 313 -224 309 -235 q 309 -148 304 -183 q 302 -87 304 -108 q 309 -72 304 -80 q 316 -58 315 -63 q 323 -24 319 -50 q 332 5 326 -5 z "},"3":{"ha":688,"x_min":-44,"x_max":706,"o":"m 606 -275 q 593 -180 608 -229 q 595 -130 600 -151 q 596 -121 594 -127 q 597 -114 597 -115 q 591 -43 585 -62 q 583 17 578 5 q 593 25 588 22 q 594 35 595 30 q 593 43 593 42 q 602 72 596 58 q 600 82 599 81 q 614 131 606 98 q 629 186 625 174 q 633 189 636 190 q 639 155 636 179 q 644 120 642 128 q 658 -13 666 31 q 668 -19 665 -14 q 672 -18 669 -19 q 676 -17 675 -18 q 682 5 680 0 q 674 25 673 22 q 680 31 672 23 q 672 76 681 33 q 674 98 673 87 q 664 170 662 160 q 660 201 665 177 q 662 231 658 209 l 660 277 q 646 447 675 373 q 640 455 644 450 q 633 463 634 461 l 633 483 q 627 495 632 489 q 619 505 621 503 q 615 530 617 517 q 579 566 604 555 q 575 564 578 566 q 569 564 572 563 q 557 575 566 565 q 543 588 549 585 q 500 606 502 604 q 498 610 499 608 q 530 673 505 616 q 542 690 533 678 q 553 709 550 701 q 557 711 558 711 q 587 634 578 661 q 590 617 589 627 q 593 600 591 607 q 611 549 612 547 q 614 549 612 549 q 617 547 616 548 q 621 546 618 547 l 623 549 q 613 590 627 555 l 613 606 q 602 679 599 653 q 589 715 590 703 q 595 755 594 724 q 604 800 597 787 q 614 814 605 802 q 625 830 623 825 q 627 842 627 835 q 625 852 625 851 q 637 864 625 846 q 648 888 649 892 q 664 903 651 892 q 680 919 676 913 q 681 924 680 920 q 682 929 682 927 q 689 930 684 929 q 696 932 694 932 q 701 943 698 935 q 706 953 703 949 q 703 968 706 962 q 698 981 699 977 q 687 985 693 982 q 678 989 680 989 q 625 981 684 988 q 606 984 619 982 q 587 987 593 986 q 576 983 585 987 q 565 979 568 979 q 536 982 555 978 q 511 985 515 985 q 467 989 500 985 q 434 991 437 994 q 414 985 435 991 q 426 911 414 930 q 424 903 425 905 q 422 901 423 902 q 422 901 422 901 q 414 910 420 904 q 408 919 409 916 q 406 949 408 924 q 377 967 401 957 q 357 989 371 986 q 323 986 348 994 q 287 979 296 978 q 264 976 276 981 q 244 969 249 970 l 224 973 q 198 967 195 967 q 180 972 191 968 q 163 977 169 977 q 71 967 154 979 q 49 969 64 966 q 31 969 36 972 q 4 959 24 969 q 9 939 8 952 q 10 921 9 924 q 16 915 11 919 q 18 907 19 911 q 14 893 18 904 q 12 878 12 885 q 24 814 22 810 q 49 783 24 812 q 55 785 53 785 q 59 785 56 785 q 63 783 62 784 q 39 751 45 756 q 53 719 39 757 q 61 621 42 679 q 67 551 59 612 q 73 491 75 488 q 70 487 72 488 q 67 485 67 486 q 73 431 73 436 l 79 431 q 87 503 94 465 q 85 534 83 526 q 90 549 86 538 q 95 566 94 560 q 93 576 92 579 q 100 583 94 578 q 107 592 106 589 q 107 605 109 596 q 109 618 106 613 l 109 621 q 125 517 105 623 q 124 500 126 513 q 125 483 122 489 q 134 475 127 478 q 136 473 132 476 l 144 481 q 149 536 144 482 l 147 553 q 151 560 148 554 q 153 568 153 566 q 152 585 154 573 q 151 600 150 595 q 167 623 155 610 q 186 642 182 637 q 209 637 191 642 q 228 634 223 632 l 236 634 q 214 586 216 591 q 205 551 211 578 q 194 519 200 530 q 178 498 191 515 q 163 477 168 486 q 142 425 138 422 q 144 412 144 414 q 174 385 153 396 q 188 389 179 382 q 196 399 192 391 q 204 410 201 408 q 216 416 207 413 q 228 420 227 420 l 236 416 q 300 434 265 435 q 359 408 338 433 q 428 445 355 408 q 430 443 428 444 q 399 406 420 413 q 397 382 397 389 q 401 376 399 381 q 406 370 404 372 q 418 364 410 368 q 430 358 427 361 q 431 350 432 355 q 430 342 429 344 q 435 330 431 338 q 440 317 439 319 q 434 290 441 313 q 436 286 433 288 q 438 279 439 283 q 416 247 427 263 l 410 247 q 432 189 409 204 q 408 184 425 184 q 377 182 388 186 q 368 175 373 181 q 359 166 361 168 q 357 140 359 144 q 351 138 354 137 q 343 138 348 141 l 341 132 q 318 136 332 129 q 297 144 302 144 q 240 159 304 144 q 233 157 239 159 q 224 159 229 157 q 209 168 222 159 q 194 176 199 176 q 149 191 172 178 q 132 205 144 194 q 113 219 122 216 q 109 221 112 220 q 103 215 105 217 q 105 197 104 205 q 149 165 122 193 q 153 153 149 168 l 165 153 q 172 148 168 151 q 178 142 176 143 l 178 138 q 45 186 132 131 q 39 193 43 188 q 35 199 36 198 q 15 203 32 200 q -7 209 -2 205 q -38 229 -41 230 q -44 225 -40 227 q -12 189 -43 208 q 14 174 -3 183 q 35 163 29 166 q 52 146 41 158 q 69 130 64 134 q 109 110 83 119 l 123 110 q 127 102 125 109 q 132 94 129 96 q 142 91 135 92 q 153 88 150 90 q 178 73 161 84 q 204 58 195 62 q 219 54 208 56 q 230 52 229 52 q 254 37 260 37 q 304 25 286 37 q 304 23 305 25 q 294 16 302 20 q 285 5 287 12 q 218 7 230 3 q 212 11 217 7 q 204 15 206 14 l 182 19 q 175 24 180 20 q 168 29 170 28 q 141 31 163 31 q 117 35 123 32 q 97 23 101 35 q 97 13 96 22 q 174 -7 157 5 q 182 -20 177 -9 q 190 -31 186 -29 l 202 -31 q 208 -36 203 -32 q 214 -41 212 -41 l 216 -41 q 273 -47 271 -46 q 277 -58 278 -60 q 283 -58 279 -59 q 287 -58 287 -58 q 311 -75 305 -74 q 327 -138 313 -90 q 341 -203 338 -178 q 347 -205 345 -203 q 357 -203 353 -204 q 357 -144 363 -164 q 349 -98 347 -104 q 380 -62 351 -81 q 422 -33 416 -41 q 427 -34 424 -33 q 432 -35 430 -35 q 452 -271 427 -24 q 450 -282 452 -273 q 448 -294 448 -292 q 450 -298 448 -297 q 454 -301 454 -300 q 452 -318 456 -307 q 452 -334 450 -329 q 458 -350 452 -345 q 459 -351 458 -350 q 460 -352 460 -351 q 462 -348 462 -348 q 462 -337 463 -345 q 460 -326 460 -327 q 463 -319 460 -321 q 466 -315 466 -317 q 462 -303 466 -317 q 466 -263 460 -294 q 464 -235 466 -258 l 467 -233 q 470 -229 470 -230 q 472 -196 473 -218 q 472 -168 471 -172 q 473 -168 473 -168 q 474 -166 474 -167 q 470 -116 468 -127 q 489 -16 486 -28 q 545 60 507 41 q 567 -43 559 18 q 581 -144 578 -129 l 579 -186 q 584 -197 581 -190 q 589 -207 588 -204 q 592 -243 593 -217 q 597 -277 591 -267 q 598 -278 597 -277 q 600 -279 599 -279 q 606 -275 602 -277 z "},"4":{"ha":688,"x_min":6,"x_max":738,"o":"m 333 553 q 311 536 332 541 q 284 540 308 534 q 258 547 261 545 q 256 542 257 546 l 252 542 q 271 576 252 546 q 278 594 273 581 q 286 612 282 606 q 292 616 288 614 q 298 621 297 618 q 329 681 326 658 q 335 673 333 678 q 333 590 347 644 q 333 570 331 583 q 333 553 334 557 m 663 463 q 701 461 676 466 q 730 465 720 458 q 734 468 732 466 q 738 471 736 470 q 736 477 737 475 q 728 484 734 480 q 720 493 722 488 q 663 501 697 494 q 656 500 661 501 q 650 499 652 500 q 621 507 611 507 q 607 505 618 507 q 595 503 598 503 q 583 511 590 505 q 571 517 576 516 q 575 582 568 573 q 561 612 561 616 q 524 624 547 610 q 534 636 526 632 l 575 634 q 585 701 581 648 q 582 711 585 705 q 581 721 579 715 q 585 728 581 723 q 589 735 588 732 q 591 785 594 755 q 591 834 587 817 q 593 866 593 844 q 595 897 593 889 q 611 969 606 954 q 595 989 605 974 q 567 989 568 989 q 522 1004 527 1006 q 503 996 513 1003 q 503 975 501 977 l 503 947 l 498 947 q 472 996 492 964 q 464 998 466 996 q 449 992 456 997 q 435 985 441 987 q 444 911 450 931 q 435 876 437 885 q 431 844 432 844 q 429 840 431 841 q 422 908 426 856 q 410 975 420 951 q 401 978 406 976 q 393 981 396 980 q 381 978 392 983 q 365 973 370 972 q 355 978 363 974 q 345 983 348 983 q 333 983 340 984 q 323 981 325 981 q 307 965 317 971 q 323 907 322 905 l 323 903 q 272 909 272 908 l 260 880 q 257 867 258 876 q 256 856 256 858 q 248 840 255 852 q 242 822 243 831 l 240 822 q 239 823 239 822 q 238 824 238 823 q 241 862 238 838 q 244 897 243 888 q 230 907 235 903 q 188 895 201 907 q 184 895 186 895 q 180 897 181 896 q 159 919 176 908 q 131 905 151 918 q 117 830 132 878 l 117 808 q 105 766 114 794 q 93 723 96 736 l 95 715 q 87 704 94 711 q 79 693 80 696 q 76 680 75 687 q 77 667 77 669 q 133 628 106 658 q 130 627 132 628 q 127 626 128 627 q 118 627 123 623 q 107 630 112 631 q 87 626 89 625 q 56 606 81 625 q 12 441 52 500 q 8 425 8 435 q 6 412 7 414 q 14 400 7 408 q 20 389 20 392 q 18 385 20 387 q 16 380 16 383 q 19 378 16 379 q 22 376 22 376 q 28 340 26 369 q 33 331 28 338 q 37 321 36 323 q 33 312 37 317 q 31 302 29 307 q 35 273 35 278 q 35 249 33 264 q 35 231 36 235 q 41 209 33 209 q 33 184 37 190 q 41 161 41 163 l 44 161 q 52 207 50 174 q 56 257 55 248 q 56 267 57 258 q 56 279 55 275 q 64 292 58 283 q 73 306 71 300 q 91 344 81 337 q 93 344 91 345 q 131 326 102 344 q 145 166 131 299 q 143 157 144 163 q 141 146 142 150 q 147 110 144 135 q 153 72 151 82 q 153 56 154 67 q 153 37 151 45 q 159 9 159 15 l 155 -7 q 170 -79 170 -85 l 172 -79 q 174 -71 173 -73 q 172 -64 174 -69 q 172 -54 170 -58 q 176 -33 176 -33 q 170 -7 169 -10 q 168 56 175 16 q 167 89 165 64 q 168 122 168 115 q 180 273 155 222 l 180 292 q 214 338 191 321 q 264 346 230 347 q 284 328 271 338 q 289 310 283 316 q 298 296 297 301 q 303 257 302 283 q 311 223 304 235 q 315 225 313 224 q 319 227 316 226 q 325 344 327 350 q 333 348 330 345 q 347 346 342 348 q 351 304 346 351 q 350 296 351 301 q 349 292 349 292 q 367 184 359 258 q 385 74 375 109 q 382 43 389 61 q 375 27 376 26 q 385 -13 376 25 q 389 -54 387 -25 q 395 -71 395 -75 q 408 -245 393 -144 l 414 -245 q 418 -224 414 -244 q 414 -215 416 -229 q 418 -174 412 -206 q 416 -146 419 -165 q 418 -122 414 -130 q 431 -79 417 -94 q 437 -77 433 -79 q 452 -162 437 -111 q 454 -197 455 -174 q 456 -233 452 -220 q 466 -275 463 -254 l 462 -292 q 478 -360 469 -339 q 478 -371 480 -364 q 478 -380 477 -377 l 478 -382 q 484 -370 482 -378 q 480 -313 490 -355 q 476 -301 477 -299 q 478 -216 482 -273 q 474 -132 473 -147 q 466 -71 477 -90 q 474 -71 469 -70 q 488 -47 480 -54 q 490 -43 489 -45 q 498 -108 491 -45 l 496 -130 q 500 -150 500 -146 q 498 -182 500 -181 q 501 -203 502 -189 q 504 -222 500 -216 q 508 -224 505 -224 q 524 -81 511 -218 q 520 -65 524 -84 q 524 -45 520 -64 q 525 -14 527 -35 q 526 11 523 3 q 520 43 518 34 q 525 91 523 56 q 530 138 527 125 l 528 146 q 543 176 530 152 q 557 209 554 196 q 549 231 557 212 l 549 269 q 553 346 549 338 q 561 360 561 361 q 720 374 671 385 q 736 389 731 387 q 734 400 734 396 q 675 435 692 431 q 595 449 590 453 l 593 449 l 625 455 q 663 463 643 458 z "},"5":{"ha":636,"x_min":-96,"x_max":631,"o":"m 243 -134 q 245 -172 246 -145 q 249 -201 245 -193 q 250 -203 250 -201 q 251 -207 251 -205 l 259 -207 q 259 -102 268 -164 q 262 -83 259 -98 q 261 -65 264 -71 q 288 -42 269 -57 q 314 -19 306 -28 q 332 -21 326 -19 q 330 -58 333 -65 q 337 -66 331 -60 q 344 -73 343 -71 q 348 -120 345 -89 q 351 -127 349 -123 q 354 -134 354 -132 q 353 -157 356 -142 q 352 -178 351 -172 q 355 -182 353 -180 q 358 -186 357 -184 q 358 -218 359 -189 q 364 -251 357 -243 q 365 -252 364 -252 q 366 -253 366 -253 q 365 -227 369 -244 q 364 -199 361 -210 q 364 -158 370 -177 q 365 -136 361 -149 q 368 -118 369 -121 q 362 -65 362 -60 q 365 -47 362 -62 q 366 -29 368 -35 q 404 23 397 18 q 418 31 408 26 q 431 37 427 35 q 455 -3 446 22 l 455 -21 q 463 -60 466 -43 q 461 -79 460 -76 q 471 -263 471 -116 l 479 -263 q 487 -126 476 -180 q 483 -112 487 -128 q 483 -41 478 -90 l 483 -13 q 487 -7 484 -12 q 491 1 490 -2 q 490 14 492 6 q 491 27 489 22 q 503 51 493 32 q 513 76 511 68 q 515 110 514 87 q 526 144 526 142 q 526 145 526 144 q 528 146 527 146 q 540 132 538 143 l 544 110 q 554 86 547 102 q 564 64 562 68 l 564 43 q 569 35 564 41 q 574 25 573 27 q 581 -1 577 17 q 588 -25 585 -18 l 598 -25 q 572 104 593 29 q 575 134 568 117 q 580 161 582 153 q 582 283 567 208 q 586 319 584 292 q 592 352 587 339 q 597 359 593 355 q 602 366 602 364 q 603 393 605 374 q 606 414 601 409 q 600 427 607 412 q 603 441 599 429 q 604 461 608 453 q 600 465 603 463 q 596 469 597 468 q 588 490 594 473 q 578 511 583 504 q 572 516 576 513 q 566 522 568 520 q 564 537 564 526 q 562 551 565 547 q 553 557 559 554 q 546 566 548 560 q 511 562 522 571 q 479 648 479 645 q 460 658 471 650 q 443 669 446 667 l 427 669 q 368 691 370 690 q 334 689 357 693 q 321 691 330 690 q 308 693 312 692 q 296 689 291 689 q 261 691 262 691 q 256 698 260 692 q 251 705 254 703 q 255 715 256 715 q 296 723 284 715 q 304 717 301 722 q 323 718 311 718 q 340 719 334 718 q 397 727 389 729 q 420 719 403 725 q 445 711 439 713 q 505 709 491 696 q 514 705 512 708 q 519 699 517 700 q 540 697 518 699 q 543 692 542 696 q 546 687 545 688 q 572 677 547 685 q 600 547 600 566 l 602 546 q 610 547 612 548 q 592 723 631 640 q 592 802 594 728 q 555 818 568 816 q 582 832 555 817 q 593 843 587 835 q 602 856 600 854 q 606 991 591 977 q 592 1009 587 1013 q 585 1013 590 1011 q 578 1015 580 1014 q 544 994 557 1014 q 511 996 532 994 q 477 1000 488 998 q 465 996 474 999 q 453 994 456 994 q 439 994 450 993 q 425 996 429 996 q 416 992 424 995 q 406 989 409 989 q 397 991 391 990 q 283 987 317 974 q 243 989 273 991 q 205 991 216 985 q 189 981 202 988 q 172 927 168 921 l 172 923 l 169 923 q 161 981 169 922 l 155 981 l 155 987 q 124 994 145 987 q 94 985 119 995 q 54 989 72 991 q 33 995 45 988 q 18 998 24 1000 q 1 989 12 997 q 12 957 1 981 l 12 939 q 14 832 26 886 q 15 817 12 827 q 18 804 18 806 q 14 758 16 761 q 27 741 14 745 q 70 737 35 736 q 68 731 68 733 l 68 727 q 35 727 42 725 q 16 713 30 718 q 16 650 6 690 q 12 615 18 637 q 7 584 6 591 l 9 582 q -1 574 7 577 q 16 557 1 566 q 25 439 16 477 q 31 370 40 381 q 39 362 32 362 q 47 328 43 355 q 56 298 52 303 q 62 292 58 293 q 66 290 63 290 q 69 337 71 304 q 76 382 68 368 q 107 406 84 397 q 136 427 130 415 l 142 427 q 176 323 147 404 q 197 253 205 249 l 203 261 q 202 275 205 264 q 199 288 199 286 q 194 332 202 302 q 189 374 186 362 q 217 441 203 434 q 225 441 220 441 q 233 443 231 442 q 247 457 250 458 q 258 456 252 458 q 269 457 263 454 q 278 448 271 454 q 286 439 284 442 q 300 332 296 414 q 300 331 300 332 q 302 330 301 330 q 316 336 308 330 q 319 374 315 350 q 324 412 323 399 l 328 412 q 364 330 360 349 q 344 267 370 303 l 336 245 q 324 233 334 243 l 316 209 q 306 201 313 205 q 296 193 298 196 q 289 179 293 189 q 281 166 286 170 q 270 161 279 164 q 261 159 262 159 q 245 144 250 146 l 165 172 q 128 182 132 180 q 126 191 127 188 q 113 193 126 191 q 100 195 100 195 q -13 308 7 244 q -27 310 -17 309 q 66 176 -18 234 q 85 168 72 172 q 106 159 100 163 q 146 136 134 139 q 66 149 121 119 q 51 153 61 151 q 37 159 42 155 q 31 168 35 161 q 25 176 26 176 q 20 178 24 177 q 16 178 17 178 l 3 191 l 1 201 q -12 211 -2 205 q -25 221 -22 217 q -33 234 -28 224 q -41 247 -37 243 q -85 292 -90 298 l -94 292 q -96 286 -94 287 l -96 275 q -90 271 -95 274 q -83 267 -85 269 q -81 259 -83 264 q -79 251 -80 254 l -79 249 q -70 243 -78 247 q -61 237 -63 240 q -58 219 -58 222 q -40 195 -52 209 q -21 172 -24 176 q -17 162 -19 170 q -13 153 -16 155 q 47 112 0 137 q 68 108 58 110 q 73 99 71 106 q 78 90 75 92 q 113 80 91 81 q 153 76 144 78 q 231 56 233 55 q 223 46 228 46 q 215 45 216 46 q 211 39 214 44 q 207 33 209 35 q 159 31 182 20 q 128 29 146 26 q 121 33 126 30 q 114 35 115 35 q 52 35 108 37 q 43 31 50 35 q 52 19 45 26 q 62 7 60 10 q 72 9 67 7 q 76 3 74 5 q 138 -9 79 3 l 153 -7 q 161 -13 155 -8 q 171 -19 168 -18 q 190 -22 176 -21 q 207 -27 201 -23 q 243 -134 219 -37 z "},"6":{"ha":735,"x_min":-1,"x_max":809,"o":"m 481 215 q 458 197 465 212 q 459 189 458 195 l 460 184 q 445 172 457 179 q 428 159 432 163 q 400 159 401 159 q 378 140 391 157 q 374 138 376 139 q 319 184 376 134 q 316 195 317 186 q 313 207 315 204 q 300 229 313 222 q 277 231 288 236 q 259 261 258 263 q 247 265 263 260 l 247 271 q 307 290 301 278 q 311 312 311 296 q 313 334 311 328 q 374 380 326 357 q 378 393 376 389 q 380 395 379 393 q 390 372 387 376 q 404 364 388 376 q 405 361 404 363 q 406 358 406 359 q 422 358 411 356 q 440 358 433 360 q 471 340 450 355 q 491 288 500 318 q 487 265 485 269 q 498 254 489 258 q 513 253 507 250 q 537 235 514 253 l 539 227 q 509 222 530 223 q 481 215 490 222 m 686 168 q 705 302 712 263 q 705 328 703 311 q 705 352 707 345 q 696 366 703 357 q 688 378 690 374 l 688 396 q 683 406 688 399 q 678 416 679 413 q 676 435 673 439 q 669 443 674 438 q 660 451 662 448 q 634 441 640 450 l 630 441 q 632 507 633 503 q 545 596 612 560 q 531 599 541 597 q 517 602 522 601 q 506 612 514 604 q 491 624 496 620 q 454 628 471 638 q 434 618 443 627 q 425 588 429 610 q 416 557 421 566 q 414 555 414 555 q 395 572 412 559 q 382 592 383 582 q 370 591 378 591 q 355 590 363 591 q 351 592 354 591 q 388 658 363 625 q 446 693 420 702 q 463 713 456 696 q 458 725 465 718 l 458 729 q 491 707 477 722 q 503 711 499 708 q 533 749 495 707 q 557 764 540 757 q 583 776 577 771 q 591 785 587 778 q 602 793 596 791 q 640 791 611 799 q 682 793 668 783 q 686 795 681 793 q 682 804 686 802 l 682 808 q 798 741 764 774 l 809 741 q 723 824 803 769 q 711 834 720 826 q 699 844 704 842 q 677 846 690 848 q 660 844 661 844 q 647 852 656 845 q 632 860 637 859 q 591 853 626 861 q 551 854 561 846 l 547 854 q 571 897 548 869 q 606 929 593 924 q 635 927 618 933 q 658 923 654 922 q 674 925 669 923 q 665 940 673 937 q 656 942 663 940 q 646 945 650 943 q 635 952 643 946 q 624 959 628 958 q 608 960 620 958 q 589 959 596 961 q 576 951 585 958 q 564 943 568 945 q 537 937 555 940 q 513 929 523 934 l 513 931 q 512 932 513 931 q 511 932 511 932 q 583 1000 551 944 l 589 1000 q 605 1023 591 1016 q 618 1028 610 1025 q 634 1034 629 1031 q 659 1048 643 1038 q 680 1062 677 1060 q 707 1064 682 1062 q 769 1064 724 1070 q 775 1072 774 1070 l 777 1072 q 715 1096 767 1093 q 644 1088 667 1099 q 616 1084 637 1085 q 579 1078 593 1084 q 561 1067 574 1076 q 541 1056 547 1058 l 525 1056 q 485 1038 499 1047 q 483 1029 484 1032 l 469 1029 q 452 1027 456 1029 q 439 1017 448 1025 q 426 1007 431 1010 q 398 998 414 1003 q 380 979 401 1000 q 355 965 372 974 q 332 951 339 957 q 321 937 326 947 q 311 923 315 926 q 294 912 307 918 q 279 901 283 907 q 277 895 278 899 q 275 888 277 890 q 254 874 269 882 q 233 860 238 865 q 207 807 213 841 q 218 745 200 769 l 218 739 q 164 758 176 747 q 137 734 144 758 q 123 695 125 697 q 115 688 121 693 q 108 681 111 684 q 88 643 98 667 q 71 604 76 613 q 62 591 69 601 q 53 576 55 582 q 49 552 51 568 q 45 530 47 535 q 33 501 42 519 q 23 475 26 484 q 15 425 22 471 q 26 401 16 420 q 33 378 35 385 q 21 372 33 380 q 9 359 16 370 q -1 346 3 349 q 8 312 -1 331 q 21 281 19 291 q 19 274 21 279 q 17 267 17 268 q 20 256 16 263 q 21 243 22 250 q 17 231 18 228 q 24 217 18 227 q 33 203 32 206 q 33 189 35 197 q 33 174 32 180 q 37 116 41 140 q 35 113 37 116 q 33 108 33 109 q 37 106 36 106 q 35 82 36 92 q 41 78 35 81 q 37 54 39 66 q 41 13 41 24 l 45 13 q 48 32 50 24 q 47 47 46 43 q 53 114 58 105 q 75 136 68 122 q 87 134 79 136 q 100 132 96 133 q 144 52 132 60 q 177 34 148 48 q 204 11 198 24 q 205 2 206 7 q 204 -5 204 -4 q 212 -34 207 -14 q 220 -65 218 -54 q 220 -76 221 -69 q 218 -83 218 -83 q 224 -121 220 -90 q 231 -162 227 -146 q 249 -263 254 -268 l 249 -265 l 251 -265 q 245 -243 251 -248 q 251 -241 247 -241 q 245 -233 244 -231 q 247 -212 243 -229 q 249 -184 250 -193 q 269 -17 242 -138 l 275 -17 q 285 -75 275 -30 q 288 -109 287 -84 q 293 -148 290 -133 q 297 -194 296 -159 q 303 -229 298 -222 q 309 -231 305 -230 l 309 -245 q 321 -241 315 -244 q 305 -58 305 -188 q 321 -13 305 -23 q 356 -14 328 -10 q 392 -11 382 -17 l 404 -11 q 442 -205 443 -176 q 448 -228 442 -210 q 450 -249 453 -244 q 456 -323 460 -315 l 463 -328 q 467 -330 464 -329 q 471 -328 468 -329 q 467 -220 479 -283 q 467 -209 467 -216 q 469 -197 468 -201 q 463 -152 460 -159 q 485 -45 481 -84 q 487 -43 486 -45 q 493 -45 491 -44 q 509 -73 502 -51 q 525 -100 515 -94 q 524 -125 522 -107 q 521 -150 525 -143 q 527 -158 526 -157 q 532 -159 529 -159 q 537 -160 535 -160 q 539 -140 538 -154 q 541 -120 541 -127 q 537 -102 536 -97 q 545 -85 538 -96 q 551 -69 551 -76 q 551 -13 550 -16 q 557 2 552 -10 q 564 19 562 12 q 581 31 571 21 q 597 43 590 41 l 597 50 q 634 84 599 50 l 634 86 q 650 56 635 85 l 658 47 q 659 29 660 43 q 660 7 659 14 q 672 -55 664 -10 q 684 -114 680 -96 l 690 -114 q 686 -15 690 -28 q 688 -8 686 -14 q 688 1 689 -2 q 676 76 673 63 q 681 119 680 89 q 686 168 682 151 z "},"7":{"ha":747,"x_min":-7,"x_max":762,"o":"m 750 991 q 720 1002 726 991 q 698 996 707 1002 q 680 987 685 989 q 667 990 678 987 q 650 991 655 993 q 642 986 648 991 q 633 981 635 982 q 618 981 627 979 q 607 983 608 983 q 599 979 605 983 q 591 975 593 976 q 565 985 579 978 q 516 977 535 971 q 502 981 503 981 q 493 977 499 981 q 486 973 487 973 q 477 974 483 973 q 468 975 471 975 q 459 971 465 975 q 450 967 452 968 q 429 966 445 966 q 408 961 416 967 q 385 975 409 961 q 367 979 379 979 q 347 981 354 979 q 329 985 332 987 q 313 960 316 981 q 304 927 308 932 q 298 921 303 924 q 292 913 294 918 q 282 915 290 913 q 286 921 284 918 q 250 996 283 945 q 221 999 243 996 q 195 1002 202 1002 q 181 997 191 1001 q 168 991 170 992 q 151 989 162 989 q 135 987 139 988 q 33 989 69 973 q 26 998 28 995 q 12 996 20 1000 q -2 991 3 991 q 10 915 -7 969 q 11 895 13 907 q 10 878 9 884 q 12 854 14 861 q 10 833 7 837 q 18 822 18 824 q 12 804 15 813 q 22 753 21 747 q 31 695 20 743 q 31 667 32 688 q 33 636 28 648 q 41 587 37 621 q 46 538 44 549 q 52 468 48 528 q 64 408 56 420 q 71 406 66 407 q 64 505 71 459 q 66 509 64 507 q 68 511 68 511 q 68 549 74 532 q 83 588 68 548 q 109 634 81 584 q 119 632 117 634 q 137 580 140 600 q 133 557 133 557 q 142 495 138 537 q 151 437 147 454 q 151 380 161 391 q 161 370 155 377 q 165 368 163 369 q 170 370 167 369 q 165 453 174 397 q 166 481 163 464 q 170 509 170 500 l 165 522 q 172 551 172 551 q 170 582 168 576 q 192 650 189 631 q 216 667 199 652 q 240 652 231 666 q 269 659 248 652 q 296 648 286 650 q 254 513 296 643 q 239 454 248 492 q 226 396 231 414 q 228 334 214 355 q 232 331 229 333 q 236 328 235 330 q 234 310 232 316 q 241 298 235 305 q 246 290 246 292 q 222 263 241 275 q 208 176 221 237 q 210 155 205 167 q 214 138 215 143 q 208 125 213 133 q 201 114 203 117 q 198 97 199 108 q 195 82 196 84 q 201 -15 193 71 q 199 -68 202 -22 q 203 -116 197 -104 q 205 -122 205 -119 l 214 -122 q 220 -85 215 -107 q 228 -47 227 -62 l 230 -47 q 234 -77 231 -58 q 226 -130 224 -119 q 236 -150 227 -137 q 238 -193 231 -157 q 237 -208 239 -199 q 236 -220 235 -216 q 232 -281 240 -242 q 244 -394 218 -351 q 250 -396 246 -395 q 252 -342 253 -348 q 246 -317 247 -314 q 262 -176 258 -255 q 260 -168 262 -171 q 256 -162 256 -164 q 273 -60 244 -106 q 274 -56 273 -56 q 295 -156 290 -94 q 304 -257 302 -241 l 302 -273 q 308 -303 305 -284 q 313 -332 311 -321 l 313 -350 q 321 -378 322 -372 q 323 -380 321 -378 q 325 -382 324 -381 l 331 -382 q 325 -350 331 -386 l 327 -328 q 325 -224 317 -273 q 322 -216 325 -223 q 321 -205 319 -210 q 353 -15 340 -106 q 349 24 354 -6 q 347 64 344 52 q 356 92 349 71 q 365 120 363 113 q 365 136 366 126 q 365 153 363 145 q 368 158 366 153 q 371 165 371 163 l 371 197 q 378 214 373 203 q 385 231 384 226 l 383 245 q 395 312 397 316 q 404 317 405 319 l 404 336 q 435 425 414 357 q 474 507 453 479 q 479 521 477 511 q 486 534 483 530 q 468 564 484 552 q 470 570 469 568 q 507 588 475 580 q 547 604 541 596 q 549 611 548 606 q 551 618 549 616 q 595 717 550 616 q 602 726 597 721 q 609 735 608 733 q 617 754 613 741 q 625 774 621 768 q 637 785 628 777 q 648 798 645 793 q 655 817 650 803 q 663 836 659 829 q 667 837 665 836 q 669 838 669 838 q 671 846 670 841 q 673 854 673 852 q 686 864 675 857 q 700 874 697 870 q 705 889 703 878 q 712 903 708 899 q 735 922 720 910 q 751 937 747 931 q 750 991 762 952 z "},"8":{"ha":688,"x_min":-1,"x_max":673,"o":"m 210 205 q 239 220 219 216 q 273 229 265 225 q 279 296 273 287 q 297 306 283 305 q 302 314 298 307 q 309 321 306 319 q 318 323 313 325 q 329 323 324 322 q 359 348 344 329 l 363 348 l 366 336 q 353 310 351 320 q 372 288 353 311 q 408 215 398 253 q 388 159 413 194 q 378 151 385 155 q 370 142 372 146 q 317 163 351 143 q 303 203 301 205 q 255 208 283 218 q 210 203 224 196 q 209 203 210 203 q 208 205 208 204 l 210 205 m 264 709 q 279 719 258 705 q 279 722 279 720 q 281 725 280 724 q 291 729 283 728 q 301 735 297 730 l 303 735 l 305 747 l 321 762 q 347 764 319 760 q 386 739 374 767 q 389 725 388 734 q 389 715 389 717 q 406 671 406 677 q 414 646 406 662 q 486 621 492 613 q 486 618 487 620 q 476 610 484 614 q 464 602 467 605 q 426 606 450 604 q 418 600 423 603 q 414 592 417 597 q 412 586 412 587 q 412 561 410 580 q 408 536 413 545 q 354 505 397 516 q 289 509 310 494 q 273 555 273 554 l 264 555 q 250 587 264 559 q 242 624 240 609 q 252 648 245 642 q 256 650 254 649 q 258 650 258 650 q 260 683 262 656 q 229 699 220 704 q 264 707 225 689 l 264 709 m 152 862 q 63 846 119 873 q 52 837 59 844 q 39 828 44 830 q 24 789 39 836 q 24 770 22 783 q 24 751 26 756 q 16 736 23 747 q 8 721 10 727 q 8 640 -1 685 q 33 564 22 579 q 41 557 35 561 q 51 551 49 554 q 53 542 53 549 q 53 532 52 534 q 60 522 54 528 q 67 509 66 516 q 95 509 94 509 q 123 519 121 521 l 127 519 q 121 495 128 524 l 121 469 q 110 456 119 463 q 97 443 100 447 q 93 420 95 431 q 84 409 92 417 q 75 396 77 401 q 73 376 75 391 q 67 370 72 374 q 61 362 62 365 q 73 277 54 345 q 73 265 74 275 q 73 253 72 256 q 81 186 81 218 q 69 176 81 186 l 65 151 q 70 138 66 146 q 75 124 74 128 q 73 116 75 121 q 79 104 74 113 q 85 92 84 96 q 84 74 85 86 q 83 56 83 62 q 93 27 93 32 q 91 23 94 24 q 89 19 88 22 q 93 16 90 18 q 97 13 97 14 l 97 -1 q 95 -16 96 -6 q 93 -31 94 -26 q 96 -35 93 -32 q 99 -39 99 -39 q 99 -60 98 -33 q 107 -56 101 -59 q 103 -31 104 -28 q 109 5 109 3 q 107 39 106 37 q 123 64 108 44 q 152 37 134 63 q 180 -92 180 -5 q 186 -90 184 -91 l 190 -90 q 210 -220 191 -160 q 210 -237 212 -227 q 208 -251 208 -249 q 214 -296 214 -288 l 218 -296 q 220 -266 216 -286 q 218 -231 222 -247 q 214 -83 193 -134 l 214 -58 q 227 -13 223 -16 q 279 -1 235 -3 q 311 -23 283 -6 q 321 -69 323 -73 q 329 -77 323 -72 q 327 -116 322 -96 q 339 -193 342 -182 q 345 -220 339 -210 q 351 -196 354 -209 q 349 -172 347 -179 q 351 -134 355 -149 q 345 -106 345 -110 q 349 -77 351 -84 q 345 -58 345 -57 q 353 -38 347 -50 q 361 -19 359 -25 l 372 -19 q 393 -69 371 -12 q 396 -95 397 -77 q 397 -120 395 -113 q 403 -126 398 -121 q 408 -134 407 -131 q 408 -153 410 -142 q 408 -170 406 -165 q 412 -186 408 -173 q 416 -203 414 -195 q 420 -201 417 -202 q 424 -201 422 -201 q 412 -87 423 -170 q 418 -65 412 -91 q 410 -31 417 -68 q 412 -16 408 -25 q 416 1 416 -5 q 468 37 457 21 q 490 -3 481 34 q 511 -88 496 -24 q 531 -174 525 -150 q 545 -172 544 -172 q 547 -166 545 -172 q 533 -136 535 -159 q 531 -96 530 -88 q 543 47 517 -23 q 549 85 547 58 q 561 118 551 106 q 559 134 564 125 q 572 154 561 144 q 585 172 583 165 q 590 218 587 179 q 606 259 592 246 q 597 286 606 274 q 543 302 555 288 q 542 302 543 302 q 541 304 541 303 q 591 336 585 313 q 581 389 604 353 q 572 425 588 400 q 543 455 557 446 q 541 469 543 466 q 559 479 538 465 q 567 490 562 481 q 575 499 572 497 l 583 499 q 600 528 580 497 q 646 606 646 600 q 621 650 644 626 q 642 670 624 663 q 668 685 663 677 q 664 733 673 694 l 666 747 q 662 762 665 751 q 658 778 659 774 q 658 802 656 786 q 656 824 660 816 q 644 836 646 833 q 633 872 646 829 q 620 886 631 877 q 608 903 610 895 q 604 920 606 905 q 600 935 600 933 q 570 958 595 943 q 539 973 545 975 q 468 996 480 1002 q 452 981 455 994 l 444 981 l 444 975 q 430 965 429 964 q 420 963 427 963 q 406 1009 417 985 q 372 1017 380 1019 q 355 1013 355 1013 q 289 1015 315 1021 q 277 1017 285 1016 q 264 1017 269 1017 q 228 999 253 1015 q 192 979 201 983 q 148 965 142 962 q 130 949 140 961 q 111 932 117 937 q 111 905 113 907 q 152 866 118 887 l 152 862 z "},"9":{"ha":724,"x_min":-6,"x_max":711,"o":"m 492 589 q 475 594 484 590 q 460 600 465 598 q 444 597 439 597 l 441 597 l 435 608 l 429 608 q 428 613 429 612 q 397 595 433 612 q 393 549 403 559 q 349 523 386 532 q 320 541 342 519 q 296 571 300 562 q 298 597 298 589 q 296 610 296 608 q 269 616 288 623 q 240 604 271 617 q 205 623 236 609 l 208 631 q 233 637 214 633 q 256 642 248 640 q 268 641 261 643 q 276 640 275 640 q 292 655 292 641 q 294 678 294 676 q 300 680 304 681 l 304 696 q 315 690 311 694 q 351 710 337 693 q 418 670 401 696 q 420 659 419 667 q 422 648 420 650 q 476 615 429 629 q 484 617 477 616 q 490 607 488 615 q 494 597 494 597 q 492 589 493 592 m 623 956 q 611 965 621 958 q 599 972 604 971 q 582 975 597 973 q 565 981 571 976 q 559 987 563 982 q 553 994 555 994 q 538 1000 547 998 q 526 1004 530 1002 q 516 1023 522 1009 q 506 1041 511 1036 q 491 1046 501 1046 q 472 1049 477 1047 l 460 1061 q 449 1065 457 1063 q 437 1067 439 1066 q 387 1051 422 1053 q 367 1019 378 1026 l 367 1017 q 359 1028 363 1019 q 353 1041 355 1038 q 342 1050 350 1044 q 331 1061 334 1057 q 313 1058 325 1061 q 296 1053 300 1054 q 271 1067 276 1050 q 240 1059 237 1057 l 238 1051 q 178 1027 197 1017 q 144 1011 157 1027 q 136 997 142 1008 q 125 983 130 987 q 91 944 94 948 q 87 932 88 940 q 83 920 85 924 q 71 910 80 916 q 58 902 60 903 q 49 888 54 898 q 41 873 43 878 q 93 823 44 856 l 93 821 q 70 822 88 821 q 50 821 54 823 q 33 811 39 820 q 20 751 24 759 q 10 617 -6 683 q 9 610 10 616 q 10 600 8 604 q 22 587 14 595 q 20 579 24 583 q 18 573 18 574 q 26 555 20 568 q 35 538 33 543 l 31 505 q 41 462 41 459 q 41 431 42 452 q 41 406 40 408 q 37 297 49 326 q 39 293 37 296 q 43 289 41 290 q 46 287 44 288 q 50 289 47 288 q 64 353 50 322 q 66 393 58 370 q 75 404 68 397 q 83 414 81 410 q 85 428 85 419 q 87 440 85 436 q 91 456 87 452 l 91 458 q 103 442 87 460 q 109 440 105 441 q 115 438 113 439 q 172 395 168 406 q 176 353 168 401 q 178 250 186 294 q 177 231 176 244 q 176 216 178 220 q 182 188 175 195 l 184 186 l 184 188 q 195 220 193 196 q 199 260 197 252 q 214 327 199 260 l 214 355 q 232 380 222 367 q 260 361 239 378 q 290 353 278 347 q 304 347 296 353 q 313 218 307 267 q 315 216 313 218 l 325 216 q 345 343 325 313 q 353 351 347 347 q 361 357 359 354 q 381 355 364 357 q 381 313 379 339 q 367 286 378 304 q 353 260 357 269 q 347 239 350 254 q 339 220 343 227 q 329 209 336 216 q 319 198 321 201 q 313 183 315 193 q 307 168 310 173 q 296 155 304 163 q 286 144 289 148 q 284 127 286 138 q 276 125 288 128 q 272 118 275 124 q 267 111 270 113 l 256 111 q 254 104 254 110 q 252 95 253 97 q 239 82 250 90 q 228 65 230 75 q 222 63 224 64 q 199 39 212 58 q 180 12 186 18 q 182 6 180 8 q 190 4 185 4 q 212 26 180 3 q 216 26 214 28 q 222 26 219 25 q 241 43 225 29 q 260 57 255 54 q 280 65 283 67 l 282 65 q 246 0 278 24 q 230 -9 238 -5 q 172 -102 238 0 q 158 -117 168 -107 q 145 -131 149 -125 q 129 -161 125 -165 q 131 -169 130 -167 q 141 -169 134 -171 q 113 -224 141 -170 q 107 -248 116 -232 q 111 -254 109 -252 q 115 -256 113 -255 q 133 -229 123 -246 q 149 -201 145 -208 q 163 -189 153 -197 q 178 -175 174 -180 q 186 -160 181 -170 q 196 -145 192 -151 q 244 -81 245 -78 q 292 -36 263 -77 q 300 -34 298 -35 l 302 -34 q 276 -235 302 -146 q 278 -239 277 -237 q 280 -241 279 -241 q 284 -243 281 -243 q 323 -102 330 -152 q 328 -74 321 -90 q 331 -50 334 -59 q 335 -7 344 -20 q 399 22 346 12 q 433 75 409 66 q 437 75 435 75 q 452 66 449 73 q 454 47 450 71 q 448 -18 456 36 q 450 -79 442 -66 l 452 -82 q 465 -64 463 -79 q 468 -34 469 -31 q 480 31 473 -14 q 492 95 486 75 q 494 112 494 101 q 496 127 494 121 q 511 148 500 136 q 528 165 526 162 l 530 180 q 557 210 537 193 q 589 234 591 238 q 599 229 591 234 q 589 31 599 147 q 592 -13 588 22 q 589 -52 595 -40 q 593 -58 591 -54 q 601 -56 587 -60 q 603 0 611 -9 q 608 11 604 7 q 613 20 612 16 q 613 39 614 26 q 613 61 612 54 q 617 70 614 63 q 621 79 621 77 q 623 108 625 91 q 623 132 622 125 q 628 143 624 134 q 633 155 633 153 q 635 293 652 227 l 640 297 l 640 299 q 644 287 648 294 q 650 275 644 283 l 656 275 q 667 325 657 290 q 667 336 669 328 q 665 345 665 345 q 671 351 666 346 q 671 385 667 366 q 696 476 681 430 q 694 534 688 509 q 696 615 703 576 q 696 680 695 618 q 700 749 711 726 q 679 777 694 760 q 656 803 659 798 q 641 800 650 802 q 627 797 633 798 q 629 805 628 802 q 631 813 631 810 q 660 836 645 816 q 673 871 676 857 q 669 886 673 877 q 665 898 666 893 q 623 956 623 916 z "}," ":{"ha":345,"x_min":0,"x_max":0,"o":""},"!":{"ha":311,"x_min":0,"x_max":292,"o":"m 281 939 q 269 961 281 957 q 247 956 259 965 q 216 819 222 824 l 216 815 q 212 867 210 823 q 219 924 214 908 q 231 960 231 961 q 203 971 216 963 q 188 962 198 969 q 175 952 178 954 q 143 952 168 949 q 113 945 121 954 q 110 957 111 948 q 106 967 109 964 q 95 975 94 977 q 81 966 85 972 q 73 958 74 959 q 47 956 66 954 q 28 960 30 957 q 0 947 19 960 q 41 732 0 906 q 37 720 42 727 q 47 684 43 710 q 54 644 53 649 q 53 636 54 642 q 52 627 52 630 q 66 562 58 608 q 82 496 75 517 q 81 475 81 489 q 80 455 80 462 q 91 377 83 434 q 91 351 92 368 q 90 327 89 333 l 91 308 q 85 282 85 283 q 90 270 86 281 q 95 256 94 260 q 101 258 98 257 q 108 260 104 259 q 115 292 108 269 q 115 321 111 310 q 125 338 117 326 q 134 357 132 349 q 143 405 142 404 q 144 406 143 405 q 145 407 144 406 q 156 373 147 395 l 161 340 q 170 328 163 338 q 176 314 175 319 q 182 283 180 304 q 188 252 186 261 q 186 237 189 258 q 189 231 186 235 q 193 222 193 226 l 197 222 q 210 237 202 234 q 204 241 208 240 q 199 251 204 248 q 199 351 200 311 q 206 403 197 389 q 207 406 207 404 q 208 408 208 408 l 216 408 q 225 347 217 400 q 238 286 231 310 q 239 255 241 274 q 241 230 237 238 q 245 216 241 219 q 246 214 245 215 q 247 214 247 214 l 247 216 q 252 235 254 220 q 251 256 250 253 q 249 304 254 269 l 247 340 q 250 344 247 340 q 251 349 251 347 q 247 423 245 399 q 244 453 248 433 q 239 483 240 481 q 241 496 239 488 q 243 511 243 505 q 260 669 244 603 q 258 685 258 682 q 261 694 259 688 q 264 704 263 700 q 262 726 262 722 q 288 858 292 866 q 283 898 292 867 q 281 939 274 928 m 234 176 q 197 199 205 186 q 189 214 195 201 q 178 229 183 225 q 170 231 175 231 q 161 236 164 232 q 145 234 157 235 q 132 232 134 233 q 125 227 130 231 q 117 221 119 222 q 35 195 73 197 q 33 189 35 191 q 46 173 34 179 q 65 173 58 168 l 68 173 q 80 39 74 50 q 115 11 79 9 q 127 -22 120 1 q 140 -56 134 -45 q 143 -85 135 -69 q 153 -104 144 -98 q 156 -106 154 -105 q 160 -104 157 -105 q 160 -63 163 -79 l 156 -56 q 159 -41 156 -51 q 160 -28 161 -33 q 158 -24 160 -28 q 156 -20 156 -21 q 160 -8 157 -18 q 163 5 163 1 q 223 3 197 -7 q 239 15 227 4 q 238 96 239 8 q 240 109 237 101 q 241 119 242 115 q 234 176 234 161 z "},"\"":{"ha":456,"x_min":9,"x_max":450,"o":"m 445 943 q 444 958 446 948 q 441 968 441 967 l 445 989 q 439 1000 444 993 q 433 1011 434 1007 q 411 1057 429 1045 q 399 1061 407 1061 q 383 1063 388 1062 q 324 1080 326 1080 q 313 1080 319 1078 l 305 1084 q 298 1080 303 1082 q 290 1078 293 1079 l 281 1078 q 279 1072 280 1077 q 276 1067 277 1067 q 269 1066 273 1066 q 261 1065 263 1065 q 243 1046 255 1061 q 226 1027 231 1031 q 243 952 229 1000 q 259 878 256 904 q 261 835 259 876 q 254 812 254 807 q 277 659 269 744 q 292 667 279 659 q 292 703 293 673 q 292 740 290 727 l 290 758 q 296 770 292 762 q 302 785 301 778 q 304 732 309 774 q 307 729 304 731 q 311 725 310 726 q 311 704 313 718 q 313 679 310 689 q 330 612 313 677 q 333 570 331 607 q 339 532 335 536 q 348 513 339 519 q 350 511 349 512 l 354 515 q 355 632 355 619 q 352 646 356 635 q 350 662 349 656 q 363 682 352 669 q 376 705 374 694 l 380 705 q 398 629 393 646 q 401 597 401 621 q 408 566 401 576 l 408 562 q 411 559 410 561 q 425 566 408 559 q 420 582 422 576 q 422 586 420 583 q 425 591 425 589 q 428 722 414 699 q 426 788 416 753 q 430 794 427 789 q 433 800 433 798 l 432 812 q 446 878 433 817 q 441 916 450 890 q 445 943 439 924 m 129 493 q 136 475 136 475 q 139 473 138 474 q 142 473 141 473 l 144 476 l 146 513 q 144 516 146 513 q 142 519 142 518 q 144 526 144 526 l 148 526 q 146 556 146 541 q 142 599 146 576 q 144 621 142 602 q 139 665 140 637 q 136 705 136 704 q 139 739 136 712 q 136 768 142 760 l 136 770 q 144 764 140 768 q 153 758 149 760 q 163 700 157 743 q 174 642 168 662 q 177 640 176 641 q 183 671 187 646 q 183 686 182 675 q 184 699 185 696 q 184 742 183 732 q 183 859 195 793 q 182 890 181 867 q 183 924 184 915 q 186 961 182 933 q 189 992 190 987 q 182 1006 187 998 q 174 1019 175 1016 q 133 1032 165 1021 q 94 1042 110 1040 q 64 1036 85 1037 q 40 1034 41 1034 q 28 1011 45 1036 q 22 1007 28 1010 q 16 1004 17 1005 q 21 941 9 995 q 23 900 22 913 q 33 875 26 891 q 42 853 41 859 l 40 838 q 43 821 41 832 q 47 803 45 810 l 47 773 q 63 743 52 764 q 79 712 75 722 q 80 703 79 709 q 81 694 81 696 q 92 654 84 685 q 103 623 97 631 q 113 617 105 618 q 106 612 111 614 q 118 604 109 606 q 123 564 121 591 q 129 526 126 539 q 129 508 130 521 q 129 493 128 496 z "},"#":{"ha":768,"x_min":24,"x_max":764,"o":"m 458 538 q 397 532 400 530 q 382 538 390 532 q 384 543 383 542 l 384 547 q 422 551 399 547 q 458 556 448 555 q 462 549 459 551 q 458 538 462 541 m 729 560 q 726 564 728 561 q 722 569 723 568 q 710 574 718 571 q 698 578 701 577 q 692 586 694 583 q 684 587 689 586 q 675 588 678 587 q 627 606 621 608 q 671 635 628 624 q 733 652 731 652 q 694 689 732 675 q 637 703 693 690 q 621 702 630 704 q 608 701 612 699 l 605 701 q 616 783 605 694 q 608 853 623 842 q 575 859 604 863 q 551 855 566 858 q 532 851 535 852 q 511 854 525 850 q 494 855 498 857 q 482 865 492 855 q 481 865 482 865 q 481 866 481 866 l 481 865 q 466 853 469 863 q 465 781 457 835 q 464 715 473 730 l 464 709 q 411 707 455 709 q 366 710 373 706 q 358 810 366 710 q 361 820 358 813 q 361 831 363 826 q 351 847 359 839 q 339 861 342 856 q 306 853 343 861 q 288 855 300 852 q 271 859 275 859 q 228 857 232 854 q 210 844 219 855 q 205 833 203 836 q 218 810 205 836 q 222 774 224 799 q 220 734 220 741 q 226 703 224 698 l 226 699 q 185 694 224 699 q 152 699 159 690 q 144 692 146 696 q 133 695 140 692 q 122 697 126 698 q 24 645 111 695 q 26 632 24 637 q 74 651 33 631 q 105 659 92 646 q 172 614 112 656 q 144 598 163 605 q 111 586 117 589 q 102 579 109 585 q 92 573 96 574 q 81 572 89 571 q 72 573 74 574 l 70 566 q 64 564 67 563 q 57 566 60 566 q 45 559 53 564 q 35 551 37 551 q 39 545 37 547 q 98 558 75 547 q 102 562 99 558 q 107 566 106 565 q 115 565 111 566 q 120 566 117 564 q 139 557 128 564 q 157 547 151 549 q 180 547 165 545 q 200 549 196 549 q 212 545 203 548 q 226 539 222 541 q 226 532 227 537 q 226 524 226 526 q 238 503 226 525 q 241 478 245 488 q 231 468 238 469 q 215 465 216 466 q 172 437 208 463 q 135 417 141 414 q 124 413 130 416 q 126 402 124 407 q 200 420 149 398 q 250 400 200 420 q 267 311 261 337 q 268 287 269 305 q 273 264 268 273 q 276 239 272 246 q 288 244 279 239 q 291 313 292 310 q 300 319 298 316 q 313 311 317 311 q 326 246 313 284 q 327 235 328 242 q 326 227 326 228 q 343 157 334 193 l 351 157 q 345 252 357 182 l 347 272 q 343 287 343 288 q 360 354 348 317 q 364 391 362 360 q 374 422 366 414 q 376 425 375 423 q 384 414 379 420 q 391 404 389 407 q 410 408 395 404 q 407 431 412 419 q 399 452 399 446 q 454 443 442 452 q 471 408 465 438 q 471 359 476 380 q 473 181 468 347 l 477 181 q 479 203 480 189 q 481 227 478 218 q 488 250 489 255 q 488 279 490 258 q 490 304 488 298 q 498 317 490 305 q 505 335 504 326 q 513 315 515 329 q 511 304 513 312 q 509 292 509 296 q 511 281 508 288 q 516 272 515 273 q 514 261 517 267 q 514 248 511 255 q 512 220 517 236 l 517 216 q 519 216 518 216 q 519 214 519 215 l 524 218 q 521 227 523 221 q 519 233 519 231 q 527 239 524 237 q 525 257 526 237 q 536 279 536 277 q 538 305 537 284 q 544 333 540 321 q 549 344 545 337 q 555 354 554 351 q 557 374 557 361 q 560 391 557 386 q 568 398 562 394 q 575 408 574 401 q 612 393 573 408 q 633 388 620 390 q 653 383 646 386 q 674 374 659 382 q 696 365 688 368 l 707 376 q 703 385 706 382 q 669 405 701 389 q 629 420 637 420 q 625 445 625 439 q 637 447 630 445 q 646 448 643 449 q 677 439 682 441 q 700 448 685 439 q 689 464 699 463 q 672 465 669 466 q 652 478 665 469 q 633 491 638 488 q 615 495 627 494 q 600 498 604 496 q 597 522 595 503 q 597 554 599 547 q 601 560 600 556 q 696 553 677 559 q 707 547 699 551 q 721 541 715 543 q 750 539 739 533 q 763 545 755 540 q 729 560 764 540 z "},"$":{"ha":648,"x_min":-7,"x_max":652,"o":"m 168 104 q 166 94 165 97 q 169 94 167 94 q 172 93 171 93 l 177 78 q 182 75 178 77 q 186 73 186 73 q 189 56 189 69 q 192 39 191 43 q 201 20 194 35 q 210 2 208 8 q 222 3 217 2 q 216 39 220 18 q 210 74 212 64 q 229 63 213 74 q 260 59 237 67 q 268 15 264 43 q 273 -26 271 -14 q 274 -45 275 -32 q 273 -65 273 -60 q 283 -98 276 -76 q 290 -125 289 -119 q 302 -189 304 -184 q 304 -195 302 -193 q 307 -199 306 -197 q 315 -197 315 -197 q 313 -143 316 -157 l 316 -143 q 330 -173 319 -153 q 331 -197 325 -183 q 335 -200 332 -198 q 338 -203 338 -202 l 338 -227 q 348 -256 338 -224 q 346 -275 349 -250 q 355 -310 357 -312 q 359 -312 357 -311 q 365 -304 361 -307 q 357 -197 365 -232 l 361 -176 q 365 -52 346 -93 q 368 -50 367 -51 q 401 -84 387 -52 q 412 -110 405 -92 q 420 -130 417 -125 q 425 -131 422 -130 q 429 -132 428 -132 q 418 -71 434 -98 q 413 -37 422 -63 q 409 -31 412 -37 q 406 -22 406 -26 q 408 31 406 33 q 435 62 410 41 q 469 85 458 81 l 472 81 q 472 68 477 75 q 486 52 472 53 q 500 -13 491 28 q 515 -78 511 -62 q 521 -79 517 -79 q 526 -80 524 -79 q 519 -28 527 -71 q 519 -10 517 -23 q 519 9 520 3 q 513 50 515 28 q 507 104 509 106 q 513 108 510 105 q 511 115 512 112 q 526 158 522 152 q 537 167 528 160 q 547 176 545 172 q 557 201 551 185 q 569 227 564 218 q 575 234 570 229 q 582 241 581 239 q 583 250 584 245 q 584 258 583 256 q 595 274 586 262 q 606 292 604 285 q 593 373 609 300 q 594 380 593 375 q 595 388 595 387 q 578 410 595 386 q 541 397 557 412 l 537 397 q 535 418 538 402 q 534 433 534 432 q 541 463 542 460 q 527 482 541 475 q 515 488 524 484 q 504 494 507 492 q 494 505 500 496 q 486 516 489 513 q 426 546 456 536 q 365 541 385 559 l 350 541 q 347 568 348 549 q 342 592 345 583 q 283 597 349 591 q 270 690 248 667 q 300 692 266 686 q 338 711 321 696 q 366 692 336 712 l 366 685 q 469 633 448 671 q 504 553 515 548 l 507 557 q 500 631 507 613 q 504 648 501 635 q 491 692 499 680 l 491 696 l 494 696 q 519 666 502 682 q 543 640 538 650 q 546 630 545 637 q 549 620 547 623 q 582 557 579 564 l 582 544 q 590 534 583 539 q 597 529 597 529 q 600 517 599 526 q 602 507 602 509 q 614 511 608 507 q 607 524 612 517 q 600 534 602 531 q 596 558 597 542 q 591 581 595 573 q 584 589 593 578 q 584 606 582 593 q 582 626 585 618 q 576 633 581 628 q 571 640 572 638 q 568 659 570 647 q 565 677 566 671 q 555 711 562 688 q 547 747 549 739 l 547 760 q 539 769 545 763 q 532 778 533 775 q 528 790 529 783 q 524 802 527 798 q 525 803 525 802 q 526 804 526 804 q 602 720 511 805 q 623 707 604 718 q 640 690 637 698 q 645 690 641 690 q 650 689 648 689 q 652 690 650 688 q 632 715 652 687 q 628 724 629 718 q 625 735 627 732 q 616 745 623 739 q 608 753 610 751 q 606 760 607 755 q 604 767 606 765 q 600 768 603 767 q 597 768 598 768 l 593 783 q 585 789 589 787 q 589 798 587 793 q 587 802 589 799 q 584 806 584 805 q 585 821 585 814 q 566 844 580 831 q 547 865 551 859 q 541 882 544 873 q 521 902 534 890 q 503 907 516 906 q 484 911 488 909 q 476 922 480 913 q 469 932 471 930 q 424 966 424 966 q 418 1015 419 974 q 420 1067 417 1054 q 424 1107 428 1101 q 409 1116 418 1114 q 389 1110 412 1115 q 350 1108 363 1105 q 344 1113 347 1109 q 338 1118 340 1117 q 328 1118 334 1120 q 318 1118 321 1116 q 302 1108 319 1118 q 303 1080 297 1095 l 300 1077 q 298 1073 298 1074 q 296 1112 296 1083 q 287 1117 292 1113 q 277 1122 281 1120 q 243 1114 270 1123 q 209 1127 225 1108 q 189 1118 197 1127 q 194 1092 186 1101 q 207 1084 197 1088 q 218 1038 212 1069 q 227 995 224 1006 q 224 969 232 981 q 202 962 220 964 q 177 958 180 960 q 172 954 175 957 q 168 949 169 949 q 156 945 163 946 q 144 943 148 945 q 138 936 140 942 q 132 928 135 930 q 128 927 131 928 q 123 926 125 927 q 118 918 121 924 q 112 909 115 912 q 114 902 113 904 q 131 882 115 891 q 115 868 128 872 q 92 861 94 863 q 64 821 82 856 q 63 808 64 816 q 62 795 62 799 q 56 787 61 793 q 51 780 52 782 q 51 720 52 723 q 49 683 46 699 q 51 674 51 674 q 49 642 43 651 q 53 642 50 642 q 56 640 55 641 q 60 618 60 635 q 64 596 60 602 q 77 583 66 593 q 88 570 85 576 q 92 557 90 565 q 96 544 93 549 q 116 524 99 541 l 119 509 q 126 504 121 507 q 132 499 131 501 l 146 501 q 160 516 148 502 l 160 518 q 168 514 162 517 q 162 468 161 471 q 174 450 164 461 q 186 431 184 437 q 186 414 189 425 q 186 395 184 402 q 210 332 198 352 q 216 334 214 333 q 219 354 222 345 q 212 370 212 369 l 220 401 q 228 409 222 405 q 237 416 235 414 q 270 408 262 414 l 273 408 q 281 321 287 346 q 300 307 297 308 q 298 292 300 294 q 303 279 298 282 q 307 277 304 277 q 316 282 311 281 q 323 360 313 339 q 336 363 328 361 q 346 366 343 364 q 380 343 354 365 q 399 331 382 341 q 416 315 412 323 q 415 206 446 265 q 408 202 410 205 q 380 222 393 203 q 355 217 361 223 q 347 206 352 215 q 335 197 342 198 q 313 206 336 197 q 250 214 288 216 q 218 248 248 223 q 179 277 191 271 l 168 277 q 101 351 154 283 l 97 351 q 94 345 95 347 q 123 280 96 300 q 123 269 122 273 q 119 264 121 267 l 116 264 q 100 274 113 267 q 86 286 90 281 q 73 307 89 281 q 43 330 44 330 q 26 357 37 339 q 12 382 16 377 q 8 387 11 385 q 4 392 5 389 q -7 385 5 392 q 8 349 -7 385 l 8 338 q 20 323 10 334 q 31 308 28 313 q 32 297 32 305 q 34 284 32 289 q 60 239 61 232 q 69 233 68 238 q 73 222 73 224 q 88 206 77 218 q 103 189 99 196 q 107 178 104 187 q 112 167 110 170 q 130 153 117 161 q 147 139 142 144 q 168 104 150 136 z "},"%":{"ha":641,"x_min":0,"x_max":633,"o":"m 161 734 q 151 723 158 726 q 139 723 144 720 q 129 734 134 726 q 120 747 123 744 q 115 791 117 770 q 123 814 117 800 q 133 835 132 831 q 156 843 151 838 l 165 843 l 165 841 q 174 787 176 825 q 161 734 172 749 m 629 987 q 616 991 619 989 q 569 964 606 990 q 553 960 564 960 q 539 960 542 960 q 525 949 534 958 q 511 940 515 941 l 483 940 q 412 936 446 930 q 365 942 366 943 q 357 937 363 941 q 350 931 352 932 q 326 929 342 930 q 302 927 311 928 q 228 950 281 929 q 161 968 178 970 q 138 972 155 967 q 120 975 124 977 q 75 938 101 972 q 55 922 70 931 q 36 905 41 912 q 6 809 14 876 q 7 797 5 806 q 10 785 10 787 q 5 750 10 779 q 6 712 0 727 q 30 673 12 699 q 53 633 47 648 l 53 609 q 62 549 60 583 q 90 480 62 537 l 98 480 q 85 562 100 547 q 87 570 86 564 l 102 574 q 122 540 119 548 q 122 524 122 538 q 124 506 122 510 q 127 505 125 505 q 130 504 130 504 q 136 487 134 497 q 139 471 138 473 q 147 454 142 465 q 156 437 154 442 l 159 413 q 169 387 170 393 l 180 387 q 175 403 179 393 q 169 418 170 414 q 172 423 169 419 q 176 431 176 427 q 165 456 176 428 q 164 469 163 461 q 165 480 165 479 q 156 519 158 526 q 172 572 157 519 l 172 589 q 178 599 173 593 q 186 609 184 606 l 189 609 q 197 574 199 572 q 203 572 199 573 q 206 562 204 567 q 210 551 209 554 q 214 549 213 550 q 229 551 224 549 q 251 669 225 614 q 262 684 253 674 q 273 699 270 694 q 277 728 276 708 q 281 758 277 749 q 290 777 290 781 q 290 798 290 780 q 292 817 290 813 q 330 819 296 820 q 371 815 366 819 q 376 811 374 814 q 367 768 381 802 q 351 742 363 760 q 334 716 338 724 q 332 695 332 711 q 330 677 332 680 q 317 656 317 650 l 311 656 q 296 605 296 623 q 273 600 270 600 q 268 576 267 579 q 273 555 273 557 q 267 547 271 553 q 262 540 262 542 q 262 532 262 538 q 264 525 263 528 q 256 504 262 519 q 247 482 248 487 l 247 465 q 191 330 220 381 l 184 330 q 174 295 183 307 q 189 276 176 283 q 176 260 186 265 q 161 250 163 254 q 133 130 125 193 l 126 130 q 121 122 125 127 q 115 115 116 117 q 115 92 113 106 q 117 72 119 77 q 106 41 116 63 q 94 9 96 18 q 93 -19 92 2 q 94 -47 95 -41 q 104 -98 93 -56 q 106 -143 114 -134 q 117 -159 109 -155 q 122 -161 119 -159 q 128 -154 125 -156 q 124 -139 125 -138 q 133 -126 132 -125 q 126 -98 126 -97 q 128 -79 130 -81 l 128 -77 q 144 -104 140 -80 q 150 -141 151 -146 q 180 -324 181 -244 q 189 -321 186 -323 q 190 -292 195 -313 q 184 -260 184 -266 q 185 -213 185 -248 q 186 -169 185 -180 q 180 -149 187 -163 q 178 -126 175 -135 q 180 -100 180 -119 q 182 -71 179 -81 q 212 33 198 -7 q 214 49 214 39 q 216 65 214 59 q 224 76 218 69 q 231 87 230 84 l 233 104 q 243 112 235 106 q 253 121 251 117 q 257 151 259 134 q 283 224 269 173 l 288 258 q 307 297 292 274 q 328 334 324 326 q 330 346 329 336 q 332 357 332 353 q 338 363 334 359 q 344 370 342 367 q 343 390 350 379 q 339 403 343 392 l 332 403 q 363 429 332 397 q 376 452 369 435 q 376 466 376 456 q 378 480 377 475 q 397 526 382 494 q 416 570 412 555 q 415 576 416 572 q 414 581 414 579 q 418 585 416 583 q 422 589 421 588 l 422 602 q 435 614 425 608 q 448 626 446 622 q 453 643 452 631 q 459 661 454 654 q 515 749 488 698 q 522 771 517 753 q 532 793 526 787 q 536 795 533 795 q 541 798 540 797 q 545 808 543 800 q 549 817 547 815 q 569 833 570 833 l 575 852 q 590 864 578 856 q 604 878 600 872 q 607 890 606 883 q 610 903 608 899 q 614 909 610 905 q 618 914 618 913 q 618 923 620 917 q 616 929 616 929 q 623 938 617 932 q 629 947 628 945 q 632 964 633 953 q 633 981 632 977 q 629 987 631 983 m 490 87 q 485 85 488 85 q 451 136 456 113 q 468 201 444 165 q 509 166 460 203 q 490 87 511 109 m 616 218 q 604 238 613 224 q 588 260 592 254 q 583 276 586 265 q 578 291 581 286 q 549 308 570 300 q 519 319 523 317 q 511 332 515 322 q 433 336 488 336 q 415 326 429 331 q 397 315 401 320 q 394 304 395 311 q 393 293 394 297 q 385 282 391 289 q 376 271 377 275 q 374 254 374 260 q 361 237 371 249 q 350 220 352 227 q 348 198 347 213 q 347 179 349 183 q 347 74 331 130 l 347 59 q 364 41 351 51 q 382 24 378 29 q 388 12 384 21 q 395 1 391 4 q 397 -90 388 -58 q 408 -114 399 -95 q 416 -141 416 -129 l 420 -141 q 424 -93 427 -125 q 425 -49 421 -60 q 439 -31 429 -40 q 455 -14 452 -18 q 481 -27 463 -15 q 488 -66 481 -40 q 486 -85 488 -70 q 488 -107 485 -99 q 494 -126 494 -128 q 496 -197 492 -182 q 507 -264 514 -258 q 509 -283 507 -277 q 515 -281 513 -282 q 515 -254 519 -275 q 511 -218 510 -227 q 515 -193 515 -189 q 511 -165 511 -166 q 514 -161 511 -164 q 517 -156 517 -157 q 515 -140 519 -150 q 513 -124 511 -130 q 517 -118 513 -123 q 519 -111 520 -113 l 515 -107 q 515 -83 514 -101 q 513 -62 517 -68 q 547 -8 515 -56 l 562 -3 l 595 33 q 600 51 598 39 q 604 69 601 64 l 612 78 q 621 125 611 81 q 614 186 624 142 q 616 201 613 190 q 616 218 619 212 z "},"&":{"ha":736,"x_min":-1,"x_max":783,"o":"m 362 174 q 340 163 354 169 q 325 163 332 161 q 313 163 317 166 q 277 190 290 164 q 277 236 263 216 q 284 251 277 241 q 323 229 315 235 q 325 224 323 227 q 326 219 326 220 l 347 216 q 350 210 349 214 q 353 204 351 205 q 371 191 355 201 q 362 174 369 182 m 241 557 q 227 637 214 600 q 228 647 227 640 q 230 656 228 652 q 247 674 235 662 q 263 692 259 685 l 273 692 q 294 670 276 688 q 312 642 307 656 q 304 607 313 637 q 302 589 304 604 q 298 572 300 578 q 275 528 294 560 q 252 537 259 528 q 247 546 250 540 q 241 557 243 554 m 743 60 q 739 71 741 61 q 735 85 738 82 q 694 111 736 85 q 689 121 690 114 q 685 132 687 129 q 677 136 684 134 q 670 139 671 138 q 663 150 667 142 q 657 161 659 159 l 655 161 q 631 180 646 170 q 620 184 628 182 q 609 189 612 186 q 604 197 606 191 q 596 206 602 203 q 633 299 598 231 q 640 306 634 302 q 648 312 646 310 q 652 323 650 316 q 657 334 654 330 q 690 379 691 380 q 688 387 691 382 q 685 395 685 394 q 692 405 685 394 q 694 451 693 406 q 688 470 694 461 q 683 468 684 469 q 672 442 683 468 q 668 444 669 443 l 668 429 q 664 421 667 427 q 659 414 660 416 l 659 403 q 640 373 656 397 q 625 344 627 353 q 592 304 593 309 q 591 325 588 312 q 594 347 595 340 q 605 377 594 347 q 614 430 613 398 q 603 475 614 467 q 612 518 605 492 q 613 534 614 524 q 612 549 611 545 q 621 591 616 562 q 629 631 625 618 q 634 670 632 641 q 642 702 635 692 l 642 724 l 638 724 q 630 691 633 712 q 622 656 625 667 q 600 569 613 627 q 577 483 587 512 q 573 463 575 477 q 568 444 571 451 l 549 423 q 547 412 547 418 q 546 401 548 406 q 540 395 545 399 q 534 388 536 391 q 533 377 533 385 q 531 366 533 369 q 526 363 530 365 q 522 360 522 361 q 521 354 522 358 q 519 347 520 349 q 486 301 504 314 q 486 300 486 300 q 484 299 485 299 q 464 315 474 307 q 431 351 437 347 q 416 359 427 353 q 403 368 407 363 q 392 382 399 372 q 380 395 385 391 q 438 490 381 404 q 441 501 441 494 q 444 514 442 510 q 451 525 445 518 q 458 535 457 532 q 460 544 460 538 q 462 551 460 549 q 475 566 466 557 q 488 579 485 575 q 492 614 498 592 q 475 644 487 636 q 479 652 476 650 q 483 652 481 652 q 488 652 485 650 q 511 667 504 652 q 515 682 512 672 q 519 696 517 692 q 532 726 534 729 q 527 760 531 737 q 514 850 528 821 q 508 871 511 857 q 501 895 505 886 q 496 899 500 897 q 490 903 491 901 l 490 911 q 471 936 488 917 q 469 942 470 937 q 466 947 467 946 l 458 947 q 454 952 456 948 q 451 958 452 957 q 414 982 431 975 q 398 984 408 983 q 382 986 387 985 q 368 993 378 987 q 355 999 359 998 q 346 998 351 999 q 338 997 340 998 q 324 1006 331 999 q 313 1016 317 1014 q 300 1017 309 1016 q 286 1017 290 1017 q 212 1029 220 1032 q 210 1026 211 1027 q 210 1023 210 1024 q 194 1021 205 1021 q 176 1016 183 1020 q 161 1003 172 1013 q 144 991 151 994 q 93 967 92 967 q 89 932 83 956 q 106 901 94 910 q 102 888 105 894 q 44 878 61 888 q 24 804 31 869 q 26 781 24 800 q 29 762 30 762 l 29 761 q 29 761 28 760 l 28 761 l 28 761 q 28 761 28 760 q 28 761 28 760 l 28 760 l 27 760 q 27 760 28 760 l 27 760 q 27 760 28 760 q 27 760 28 760 q 26 760 28 760 l 24 758 q 18 726 31 745 q 9 716 17 724 q 1 705 3 710 q 3 690 -1 699 q 5 677 6 680 q 18 661 12 666 q 23 661 20 660 q 28 659 26 661 q 35 647 31 656 q 43 635 39 638 q 20 585 37 610 q 46 541 20 587 q 62 507 50 534 q 81 473 73 486 q 113 436 100 446 q 132 422 131 422 q 134 410 134 417 q 135 401 133 404 q 119 382 132 391 q 102 366 105 372 q 99 355 100 362 q 96 345 98 349 q 88 339 94 342 q 81 330 83 336 l 76 330 q 74 323 75 325 l 72 321 l 72 323 q 44 260 56 314 q 26 186 29 193 q 44 176 42 177 q 50 117 48 125 l 48 98 q 54 85 49 96 q 59 68 58 76 q 77 60 69 66 q 93 48 88 50 q 124 -48 93 39 q 130 -98 131 -68 q 128 -111 128 -107 q 136 -122 129 -115 q 144 -134 143 -130 q 145 -147 146 -138 q 149 -159 144 -155 q 154 -161 150 -161 q 152 -108 156 -142 q 161 -80 158 -99 q 169 -50 165 -58 q 178 -35 170 -47 q 185 -18 184 -26 q 227 -17 208 -16 q 227 -18 227 -17 q 228 -18 228 -18 q 231 -60 226 -32 q 235 -106 236 -92 q 234 -119 235 -122 q 241 -133 235 -123 q 249 -146 247 -142 q 258 -223 244 -168 q 257 -233 258 -227 q 256 -243 256 -240 q 262 -262 264 -268 q 263 -262 262 -262 q 265 -264 264 -263 q 267 -189 276 -239 q 268 -170 266 -183 q 269 -152 269 -156 q 264 -134 269 -151 q 262 -115 261 -119 q 298 -43 265 -90 q 344 -26 309 -36 q 386 -7 376 -18 q 410 -43 397 -12 q 421 -91 420 -71 q 427 -92 423 -92 q 433 -93 431 -92 q 438 -119 435 -106 q 441 -120 439 -119 q 444 -121 443 -120 q 446 -145 445 -141 q 454 -206 448 -157 q 459 -212 455 -209 q 464 -217 463 -216 q 465 -229 465 -220 q 468 -243 464 -238 l 468 -245 l 471 -245 q 447 -65 473 -182 q 451 -50 449 -59 q 454 -33 454 -37 q 468 30 452 6 q 482 41 477 37 q 486 54 485 45 q 490 67 488 62 q 522 96 487 62 q 585 50 538 96 q 612 29 593 41 q 640 9 633 16 q 648 15 645 11 q 650 18 649 16 q 577 87 591 79 q 575 110 578 106 l 575 115 q 587 109 581 113 q 597 102 595 103 q 610 101 602 102 q 624 100 619 100 q 660 80 637 94 q 696 58 688 62 q 705 56 699 56 q 711 56 710 56 q 715 51 713 54 q 720 46 719 48 l 733 46 q 780 26 773 24 l 783 26 q 766 45 781 37 q 743 60 746 56 z "},"'":{"ha":235,"x_min":22,"x_max":210,"o":"m 205 978 q 166 1002 200 992 l 151 1002 q 96 1015 98 1016 q 58 991 87 1013 q 26 962 30 969 q 25 931 22 955 q 26 892 28 903 q 40 854 28 897 q 39 841 41 848 q 38 831 37 833 q 43 828 40 830 q 45 814 45 819 q 55 800 47 810 q 64 783 62 789 l 62 776 q 68 770 63 774 q 73 765 73 766 q 75 745 74 758 q 77 726 76 732 q 90 692 77 725 q 93 669 92 686 q 96 650 93 654 q 99 637 96 643 q 106 638 102 637 q 112 640 109 640 q 109 680 114 648 q 109 718 104 709 l 109 722 q 124 690 118 720 q 129 665 126 683 q 133 644 131 650 q 138 620 136 629 l 136 603 l 140 603 q 142 595 142 600 q 146 588 144 591 q 149 587 146 588 q 151 587 151 587 q 149 566 150 570 q 153 558 150 564 q 157 549 156 553 q 159 509 159 540 q 164 477 159 484 q 166 477 164 477 q 175 510 165 477 q 181 583 176 513 q 177 595 177 591 q 180 608 178 599 q 181 618 181 616 q 182 644 180 625 q 181 665 183 660 q 186 693 181 666 q 189 718 190 715 q 194 720 190 720 q 191 742 194 726 q 190 761 189 755 q 201 928 210 854 q 203 956 201 935 q 205 978 206 975 z "},"(":{"ha":390,"x_min":-7,"x_max":543,"o":"m 533 1214 q 517 1199 526 1210 q 501 1182 505 1185 q 495 1181 500 1181 q 488 1179 490 1180 q 485 1173 486 1177 q 481 1168 482 1169 q 467 1156 476 1163 q 452 1145 455 1149 q 427 1119 444 1138 q 403 1093 412 1101 q 384 1082 399 1090 q 366 1069 371 1075 q 360 1056 364 1067 q 355 1041 357 1044 q 340 1030 350 1038 q 325 1019 330 1023 q 299 995 315 1007 q 269 972 276 979 q 260 962 267 970 q 251 952 254 955 q 241 948 248 950 q 232 945 235 947 q 224 934 229 942 q 216 922 218 925 l 216 920 l 214 920 q 227 958 215 935 q 231 961 227 959 q 236 963 235 962 q 242 979 240 969 q 245 995 244 992 q 279 1041 256 1019 q 290 1047 281 1044 q 301 1055 298 1050 q 302 1063 303 1058 q 301 1071 300 1069 q 309 1080 302 1076 q 319 1088 318 1086 q 321 1097 320 1090 q 362 1141 331 1111 q 368 1143 364 1143 q 380 1158 370 1153 l 380 1169 q 364 1166 374 1168 q 340 1139 361 1150 l 340 1133 l 334 1133 q 296 1093 299 1095 q 279 1090 291 1091 q 266 1086 270 1090 q 258 1072 262 1082 q 249 1058 253 1061 q 231 1047 244 1054 q 214 1036 218 1041 q 209 1027 212 1033 q 204 1017 207 1020 q 198 1012 203 1015 q 191 1006 193 1008 q 189 997 191 1003 q 183 995 188 996 q 176 993 178 994 q 158 972 168 987 q 151 957 155 967 q 143 941 146 946 q 133 930 140 937 q 123 919 125 922 q 122 912 122 916 q 121 905 121 908 q 108 880 117 899 q 93 850 98 859 q 88 845 92 848 q 83 841 84 842 q 80 822 81 837 q 76 802 78 806 q 17 601 78 806 q 4 439 -7 522 q 3 431 4 437 q 2 421 1 425 q 9 378 7 393 q 17 353 18 359 q 23 328 16 348 q 32 300 31 306 q 30 269 35 273 q 35 263 31 266 q 32 261 34 262 q 39 218 37 251 q 41 176 40 180 q 41 147 43 168 q 43 122 39 129 q 50 109 43 116 q 55 127 58 119 q 52 144 51 138 q 58 198 56 163 q 62 260 60 243 l 63 260 q 71 205 73 212 q 75 203 72 205 q 78 200 77 201 q 77 189 79 197 q 78 178 76 182 q 86 170 79 176 q 95 161 93 164 q 106 132 99 153 l 106 119 q 112 112 106 117 q 117 104 117 108 q 127 -5 122 67 q 136 -119 134 -99 q 140 -120 137 -119 q 143 -121 142 -121 q 144 -118 143 -120 q 145 -115 144 -117 q 144 -111 146 -113 q 143 -104 142 -109 q 149 -84 148 -82 q 145 -80 147 -83 q 141 -77 142 -78 q 149 -8 134 -55 q 148 -2 149 -6 q 147 3 147 2 q 151 57 146 50 l 151 61 l 154 61 q 165 47 157 56 q 176 33 174 38 q 191 5 193 3 q 223 -18 197 0 q 253 -43 244 -32 q 332 -112 294 -98 q 338 -114 334 -113 q 364 -138 336 -108 q 368 -149 366 -142 q 391 -170 376 -157 q 416 -190 410 -184 l 423 -190 q 414 -161 426 -175 q 394 -140 395 -141 l 394 -132 q 389 -130 393 -132 q 385 -127 386 -127 l 385 -119 q 379 -117 382 -119 q 374 -115 375 -116 l 372 -106 q 363 -99 370 -103 q 355 -92 357 -94 q 348 -77 351 -87 q 342 -62 345 -66 q 319 -45 342 -62 q 316 -39 318 -44 q 312 -34 313 -35 q 307 -33 311 -33 q 302 -32 304 -33 q 298 -21 300 -29 q 292 -9 294 -13 l 292 -6 q 332 -37 306 -12 q 347 -47 337 -42 q 362 -56 359 -54 q 370 -65 366 -58 q 377 -75 374 -73 q 387 -82 380 -77 q 397 -90 394 -86 q 416 -106 415 -106 q 420 -104 417 -105 q 418 -94 417 -90 q 406 -82 415 -89 q 392 -71 395 -75 q 374 -43 370 -40 q 357 -30 357 -31 l 351 -16 q 342 -9 349 -13 q 334 -2 336 -5 l 334 7 q 329 7 332 3 q 317 26 329 7 q 294 50 291 54 q 282 71 290 57 q 271 92 276 85 q 260 104 269 96 q 249 117 252 113 q 240 136 245 123 q 232 157 236 151 q 203 215 206 204 q 199 241 203 212 q 171 306 182 264 q 164 360 166 325 q 158 412 163 395 q 161 435 157 416 q 165 458 165 456 q 163 469 165 462 q 161 480 162 477 q 171 525 166 505 q 169 538 172 530 q 165 549 165 547 q 168 555 165 552 q 171 562 170 560 l 171 587 q 179 597 172 589 q 188 608 186 606 q 191 621 189 612 l 193 631 q 196 633 193 631 q 199 635 199 633 l 199 648 q 214 675 203 658 q 231 703 227 695 q 232 722 231 704 q 236 723 233 722 q 239 724 239 724 q 251 743 239 723 q 256 758 254 749 q 262 774 258 768 q 285 798 268 783 q 309 822 302 813 q 340 874 342 876 q 345 876 342 876 q 360 904 348 888 q 379 928 377 924 q 382 936 380 930 q 385 943 382 941 q 382 948 384 947 q 368 944 378 952 q 351 930 345 926 q 342 922 348 928 q 334 913 337 915 l 329 913 q 321 900 328 911 q 254 850 268 869 l 251 850 q 258 870 256 865 l 264 870 q 268 880 267 873 q 269 889 269 888 q 274 892 270 890 q 279 895 278 893 q 291 914 284 901 q 302 934 298 928 q 316 947 306 938 q 329 962 326 956 q 359 1008 359 1009 q 362 1019 360 1010 q 366 1030 363 1027 q 376 1035 367 1031 q 387 1041 384 1038 q 466 1126 404 1064 q 543 1203 542 1202 q 533 1214 542 1206 z "},")":{"ha":375,"x_min":-90,"x_max":366,"o":"m 355 458 q 346 484 347 486 q 342 530 349 505 q 345 548 341 537 q 348 562 349 559 q 337 629 344 585 q 335 677 335 640 q 326 724 336 703 q 326 738 328 730 q 322 751 322 749 q 320 796 321 794 q 317 800 319 797 q 313 803 314 802 q 309 819 311 808 q 307 831 309 829 q 298 842 306 833 q 290 853 292 848 q 287 880 288 875 q 281 885 283 883 q 281 897 279 890 q 281 909 283 905 q 267 936 278 920 q 252 961 254 956 q 214 1024 226 1015 q 209 1046 210 1030 q 201 1048 203 1047 q 185 1076 197 1051 q 170 1107 173 1104 q 154 1118 165 1114 q 136 1126 140 1124 q 115 1154 132 1130 q 98 1184 98 1178 q 84 1192 87 1185 q 64 1190 70 1192 q 71 1181 66 1183 q 79 1175 77 1177 q 84 1160 79 1173 q 105 1135 87 1156 q 121 1106 119 1119 l 127 1106 q 131 1095 130 1101 q 133 1084 131 1088 l 142 1076 q 155 1050 145 1071 q 170 1024 163 1033 q 176 1020 171 1023 q 181 1015 180 1017 q 184 1005 183 1011 q 186 994 185 998 q 193 987 187 992 q 197 980 197 982 q 203 954 203 954 l 203 948 q 180 964 193 951 q 159 983 163 981 q 123 1004 129 1004 q 117 1012 120 1006 q 112 1021 113 1019 q 90 1036 111 1022 q 84 1043 88 1038 q 79 1050 81 1048 q 53 1074 73 1055 q 25 1097 37 1090 l 21 1093 q 50 1050 24 1076 q 88 1009 83 1017 q 112 965 108 979 q 111 956 112 962 q 116 941 113 945 l 116 939 q 92 957 104 943 q 69 978 76 974 q 52 983 64 981 q 36 989 41 986 q 22 1008 31 992 q 3 1023 14 1021 q 3 1028 3 1026 q -23 1041 3 1028 q -90 1065 -72 1064 q -79 1044 -90 1050 q -68 1039 -76 1042 q -57 1034 -61 1036 q 1 993 -9 1004 q 8 977 4 988 q 16 961 12 965 q 27 953 18 958 q 38 945 35 949 q 45 930 41 939 q 53 916 50 921 q 69 897 57 909 q 86 878 82 884 q 89 869 88 875 q 92 861 90 864 q 106 842 95 855 q 119 824 115 831 q 129 791 125 813 q 138 760 132 770 q 163 728 142 753 q 184 694 178 709 q 187 677 187 688 q 189 664 187 667 q 218 378 247 522 q 218 355 216 370 q 218 335 219 340 q 209 298 216 325 q 207 263 208 288 q 200 205 203 248 q 192 146 197 164 q 148 13 182 108 q 106 -119 117 -72 q 109 -123 108 -121 q 146 -79 125 -121 q 176 -23 172 -27 l 176 -21 l 179 -21 q 178 -38 178 -27 q 177 -56 179 -49 q 161 -111 172 -79 q 157 -138 163 -122 q 96 -348 101 -265 q 110 -334 111 -346 q 111 -315 110 -316 q 119 -311 114 -313 q 127 -283 123 -298 q 138 -256 132 -273 q 147 -227 144 -236 q 159 -209 153 -214 q 168 -203 160 -207 q 176 -197 174 -200 q 178 -185 177 -194 q 181 -172 180 -175 q 191 -155 184 -165 q 203 -140 201 -144 q 206 -129 205 -136 q 209 -118 207 -121 l 240 -60 q 257 -166 259 -87 q 260 -181 257 -172 q 260 -192 262 -189 q 264 -207 260 -203 q 265 -208 264 -207 q 267 -209 266 -208 q 275 -201 269 -205 q 268 -192 273 -195 q 271 -182 269 -187 q 274 -175 273 -177 q 267 -121 273 -180 q 268 -25 260 -72 q 266 -7 269 -18 q 262 10 262 5 q 281 75 267 50 q 290 85 286 80 l 292 111 q 298 130 298 126 q 307 96 294 132 q 314 83 309 93 q 320 70 319 75 l 318 47 q 322 26 319 42 q 326 7 325 9 q 326 -12 328 1 q 330 -28 325 -22 l 331 -31 q 335 -6 336 -5 q 338 -10 337 -7 q 340 42 344 -6 q 337 98 336 96 q 334 117 338 104 q 338 127 332 124 q 328 183 327 166 q 330 198 328 186 q 331 213 332 208 q 328 354 321 290 q 327 409 328 357 q 333 460 326 448 l 333 462 q 335 453 336 458 q 335 445 334 447 q 339 441 336 442 q 345 437 343 439 q 345 402 344 404 q 354 373 345 398 q 361 341 361 354 l 363 341 q 357 404 366 350 q 357 431 356 412 q 355 458 359 448 z "},"*":{"ha":524,"x_min":26,"x_max":501,"o":"m 496 741 q 492 745 495 743 q 488 748 488 747 q 488 757 487 751 q 490 763 490 762 q 487 769 490 763 q 484 776 485 774 l 488 822 q 477 827 484 823 q 466 831 470 831 q 412 819 466 831 q 391 822 405 817 q 373 824 378 827 l 369 824 q 385 863 370 838 q 408 895 399 888 q 413 896 410 895 q 418 897 416 897 q 434 926 414 894 q 448 942 433 924 q 454 960 458 954 q 435 987 454 975 q 399 999 417 998 q 380 1031 396 1006 q 366 1062 368 1051 q 341 1071 351 1065 q 305 1035 320 1064 q 294 1010 302 1029 q 282 985 287 994 q 267 970 279 981 q 254 950 257 960 l 250 950 q 243 970 247 957 q 235 991 239 985 q 218 1017 233 996 q 204 1047 205 1034 q 196 1051 201 1048 q 189 1055 191 1054 q 183 1053 186 1055 q 176 1053 180 1052 q 121 1008 170 1040 q 115 1000 118 1006 q 109 991 112 993 q 88 981 104 987 q 68 969 75 975 q 62 961 66 967 q 56 954 60 956 q 81 922 54 960 q 113 856 84 919 q 121 844 115 852 q 128 829 126 836 q 129 829 128 829 q 130 828 130 828 l 128 828 q 111 829 125 827 q 93 828 98 831 q 84 833 87 829 q 78 839 80 838 q 70 841 75 840 q 63 843 65 841 q 33 829 55 841 q 29 819 33 826 q 26 808 26 811 q 35 765 26 812 q 34 751 36 760 q 35 737 33 743 q 44 709 44 716 q 63 700 47 707 q 63 646 64 641 q 87 694 53 644 q 132 696 96 709 q 121 661 123 682 q 76 607 79 640 q 92 593 81 606 q 104 574 103 580 q 123 547 114 572 q 136 510 137 507 l 142 510 q 156 566 155 566 q 163 570 157 568 q 171 574 169 572 q 176 572 175 572 l 180 572 q 180 559 180 568 q 180 545 179 550 q 184 532 180 542 q 187 519 186 523 q 184 497 186 524 q 191 475 183 492 q 194 474 192 475 q 197 473 196 473 q 200 477 198 475 q 206 553 206 545 q 212 574 205 561 q 212 588 216 584 q 214 595 213 594 q 228 585 220 594 q 235 587 233 585 l 239 587 q 236 610 239 595 q 232 629 233 625 q 233 643 231 635 q 235 657 235 653 q 263 683 260 682 q 297 652 283 691 q 321 572 319 592 q 319 566 321 569 q 317 560 316 564 q 325 529 325 535 l 328 529 q 336 540 330 536 q 334 605 332 602 q 341 605 334 605 q 368 553 349 563 q 373 473 372 473 q 375 453 372 456 q 382 449 376 452 q 393 527 385 456 q 391 547 394 530 q 393 566 390 559 q 419 587 399 577 q 449 603 444 598 q 448 625 457 614 q 427 638 445 629 q 390 707 401 652 q 393 708 391 707 q 395 709 394 709 q 438 703 399 710 q 444 707 440 703 q 453 709 449 710 q 454 708 453 709 q 454 707 454 707 q 475 701 465 707 q 479 678 478 694 l 479 663 q 486 648 486 649 q 501 652 494 648 q 496 707 500 693 l 496 741 z "},"+":{"ha":481,"x_min":-5,"x_max":458,"o":"m 447 281 q 447 298 446 286 q 446 312 448 308 q 442 315 445 313 q 439 317 439 316 l 440 326 q 449 380 441 338 q 445 422 452 396 q 439 444 444 427 q 433 465 435 457 q 446 510 435 459 l 444 543 q 445 553 444 545 q 447 563 446 558 q 456 573 451 567 q 453 585 456 578 q 449 597 449 595 q 439 600 446 597 q 430 604 433 602 q 403 597 405 596 q 391 602 401 597 q 378 607 384 606 q 366 604 374 607 q 356 600 359 600 q 323 612 345 599 q 318 625 319 615 q 315 642 317 638 l 310 646 q 311 649 309 648 q 313 651 313 650 l 312 671 q 315 689 313 676 q 319 707 318 702 q 317 713 318 709 q 317 718 317 716 q 323 728 318 722 q 330 737 330 734 q 327 747 331 739 q 313 763 320 762 q 295 759 311 763 q 279 759 288 758 q 268 759 270 760 q 254 754 270 760 q 254 745 253 747 l 254 742 l 252 742 q 252 755 252 743 q 243 766 250 761 q 227 769 233 771 q 222 765 226 768 q 215 762 220 762 q 198 760 205 764 q 191 755 196 759 q 183 751 186 752 q 138 742 169 743 q 136 749 137 747 q 115 759 133 754 q 107 752 113 755 q 111 722 104 738 q 117 710 112 720 q 122 696 121 702 l 124 661 q 128 654 125 659 q 132 646 132 648 q 134 627 134 640 q 138 610 134 616 l 138 604 q 122 604 125 606 q 114 600 116 600 q 101 602 109 599 q 88 602 94 604 q 77 590 84 597 q 61 589 75 589 q 44 588 47 589 q 34 600 41 596 q 21 602 30 603 q 9 597 14 600 q -5 580 12 598 q 2 574 -3 577 q -1 554 2 559 q 16 534 -1 542 q 27 454 31 469 q 21 445 27 452 q 17 433 16 439 q 24 398 19 422 q 31 365 29 373 q 31 351 32 361 q 31 334 29 340 q 39 275 41 289 q 47 277 44 275 q 44 300 50 288 q 46 382 46 312 l 51 382 q 58 390 54 387 l 58 395 q 63 393 62 395 q 78 368 74 389 q 87 338 83 342 q 95 339 91 336 q 95 363 100 344 q 92 389 90 385 q 102 403 92 398 q 117 412 115 409 q 138 404 127 410 q 158 395 151 397 q 176 311 158 368 q 177 294 178 304 q 176 281 176 284 q 181 273 177 277 q 186 265 186 267 l 186 246 q 203 167 206 161 l 205 163 l 208 163 q 212 168 210 167 q 209 189 212 175 q 205 214 205 209 q 208 258 200 245 q 205 281 202 261 q 208 296 206 286 q 210 307 210 304 l 215 307 q 227 279 217 296 q 241 252 238 259 l 241 238 q 245 222 241 235 q 251 208 250 212 l 251 194 q 256 183 252 192 q 261 172 260 175 l 259 158 q 279 119 268 127 q 278 100 279 117 q 276 84 277 85 q 279 77 277 79 l 279 75 l 283 75 q 285 130 284 81 l 286 144 q 276 192 278 173 q 279 199 276 195 q 281 208 282 203 q 283 295 274 261 q 282 304 283 298 q 281 314 281 311 q 315 402 292 395 q 322 400 318 404 q 329 385 330 396 q 329 366 328 369 q 334 353 330 362 q 339 341 338 345 q 338 334 338 338 q 337 326 338 328 q 342 304 337 328 q 342 297 342 301 q 340 292 340 292 q 349 243 349 241 l 356 243 q 356 209 351 216 l 356 205 l 361 205 q 353 372 357 233 q 364 388 361 378 q 373 407 370 402 q 379 416 374 410 q 386 424 385 421 q 393 422 391 423 q 393 417 394 420 q 393 412 393 414 l 398 409 q 401 397 400 405 q 403 389 403 389 q 407 384 404 387 q 410 380 410 380 l 408 370 q 413 361 409 368 q 418 351 418 354 q 420 333 420 345 q 420 317 419 321 q 430 294 422 309 q 442 269 439 276 q 444 245 445 260 q 447 224 443 231 l 449 221 l 454 221 q 456 262 458 250 q 451 272 455 264 q 447 281 448 279 z "},",":{"ha":290,"x_min":27,"x_max":252,"o":"m 241 182 q 243 210 239 193 q 246 240 247 227 q 235 255 237 248 q 155 266 197 251 q 126 262 144 258 q 96 260 106 264 q 87 254 93 259 q 77 248 81 249 q 66 248 75 245 q 53 255 56 250 q 33 248 43 255 q 37 238 35 241 q 27 227 35 231 q 33 195 27 218 l 27 99 q 35 9 37 28 q 42 -5 42 -3 q 50 -7 45 -5 q 59 -9 55 -9 q 85 0 60 -9 q 113 -1 102 5 l 117 -1 q 119 -28 115 -12 q 124 -52 125 -45 q 111 -105 118 -85 q 94 -217 120 -146 q 85 -249 96 -223 q 72 -278 76 -274 q 74 -288 72 -283 q 92 -271 86 -285 q 103 -248 102 -251 q 146 -180 130 -216 q 147 -173 146 -178 q 148 -167 148 -169 l 155 -159 q 155 -155 155 -158 q 153 -150 154 -151 q 161 -130 157 -137 q 165 -130 161 -130 q 184 -106 169 -121 q 202 -81 197 -90 q 207 -61 205 -74 q 211 -41 209 -47 q 218 -29 212 -37 q 224 -18 222 -22 q 222 -7 221 -9 q 233 6 224 -2 q 243 19 241 14 q 243 39 245 26 q 243 62 240 54 q 241 182 252 96 z "},"-":{"ha":454,"x_min":5,"x_max":449,"o":"m 427 442 q 405 442 422 444 q 380 444 388 440 q 372 450 378 445 q 361 457 366 456 q 348 456 357 458 q 336 455 338 454 q 258 466 257 467 q 220 429 232 458 q 215 431 216 430 l 213 431 q 210 458 214 452 q 197 471 212 455 l 187 471 q 163 465 180 465 q 135 463 141 465 q 103 445 123 458 q 72 427 82 431 q 26 427 69 426 q 13 372 5 387 q 17 368 14 370 q 22 366 21 367 q 31 334 26 359 q 31 315 32 330 q 31 295 30 301 q 41 232 45 243 q 35 219 35 218 q 39 214 35 218 q 42 210 42 211 q 48 187 46 201 q 52 167 51 169 q 52 120 55 153 q 57 80 50 92 l 57 76 q 62 79 60 77 q 66 81 64 81 q 74 156 64 111 q 75 184 76 164 q 76 210 73 203 q 80 218 77 212 q 85 227 84 224 q 101 227 90 227 q 117 229 111 228 q 130 236 121 230 q 146 243 138 241 q 172 182 146 242 q 180 151 176 172 q 187 124 182 133 q 193 126 191 125 q 197 131 195 127 q 202 136 200 134 q 198 145 201 140 q 195 153 195 151 q 193 173 192 159 q 191 189 195 185 q 208 214 192 201 q 244 218 215 218 q 278 224 271 218 q 291 215 286 223 q 295 197 297 206 q 292 194 295 197 q 291 189 290 192 q 296 182 292 186 q 302 176 302 178 l 302 159 q 309 125 305 149 q 313 100 312 104 q 311 78 314 98 q 319 35 308 50 l 319 32 q 321 78 310 26 q 326 123 328 112 q 319 188 317 181 q 360 266 326 214 q 369 267 365 266 q 377 261 371 264 q 384 254 382 257 q 410 182 397 233 q 409 177 410 180 q 408 173 408 174 q 412 171 410 172 q 416 169 414 170 q 419 161 416 168 q 423 153 422 154 q 428 132 427 146 q 427 117 429 119 q 432 110 426 118 q 439 111 437 110 q 441 146 448 123 q 436 182 435 174 q 435 197 436 184 q 436 217 433 209 q 438 219 436 218 q 439 223 440 220 q 436 271 435 267 q 438 272 437 271 q 439 273 439 273 q 441 302 443 283 q 439 329 439 323 q 442 347 440 332 q 445 368 444 361 q 444 387 445 374 q 449 420 448 402 q 427 442 426 442 z "},".":{"ha":179,"x_min":21,"x_max":148,"o":"m 145 54 q 145 66 145 56 q 147 77 144 74 q 145 90 147 88 q 143 91 145 90 q 139 95 141 92 q 136 101 138 97 q 134 107 135 105 q 125 119 125 120 q 56 121 85 127 q 46 120 53 120 q 37 118 41 120 q 36 115 37 117 q 34 112 35 113 q 31 110 33 111 q 26 108 27 109 q 24 104 25 107 q 21 100 22 102 q 29 68 22 94 q 34 34 33 54 q 30 2 34 13 q 52 -8 50 -5 q 56 -39 54 -13 q 56 -45 57 -41 q 56 -52 55 -50 q 58 -56 56 -54 q 60 -59 59 -58 l 64 -59 q 66 -54 64 -56 q 68 -50 68 -52 q 74 -12 70 -54 q 78 -8 77 -10 q 87 -9 81 -9 q 94 -10 92 -10 q 97 -14 95 -11 q 100 -21 99 -16 q 100 -29 101 -26 q 99 -31 100 -30 q 98 -33 98 -32 q 100 -39 98 -35 q 103 -43 103 -42 l 103 -54 q 106 -75 105 -60 q 107 -97 107 -94 q 108 -98 108 -98 q 109 -98 109 -98 l 111 -98 q 113 -75 113 -93 q 117 -55 113 -62 q 115 -42 115 -52 q 115 -29 114 -32 q 121 -5 122 -4 l 137 -3 q 141 -1 138 -3 q 145 3 144 2 q 147 28 145 20 q 146 35 148 31 q 145 39 146 37 q 144 41 144 40 q 145 54 143 44 z "},"/":{"ha":591,"x_min":-71,"x_max":594,"o":"m 477 113 q 486 111 481 111 q 494 119 486 112 q 490 129 493 125 q 486 136 486 134 q 492 159 485 139 q 486 195 495 168 q 489 224 485 201 q 488 251 492 243 q 494 279 496 270 q 484 304 493 283 q 481 330 486 311 q 483 355 480 337 q 484 378 485 372 q 481 385 484 378 q 477 392 478 390 q 479 414 475 401 q 481 437 484 426 q 484 505 475 466 q 485 532 486 515 q 486 557 484 548 q 485 583 488 567 q 486 609 483 599 q 492 631 490 624 l 492 658 q 504 703 504 695 q 500 724 504 704 q 500 748 497 741 q 525 781 504 759 q 551 812 547 803 q 570 882 559 827 q 594 943 578 926 q 560 974 593 968 q 510 983 512 983 q 476 943 496 981 q 449 892 446 888 l 449 889 l 447 889 q 446 901 448 892 q 447 912 445 909 q 450 913 448 912 q 453 914 452 913 l 455 941 q 431 979 455 933 q 367 969 386 981 l 357 959 q 343 958 353 957 q 332 955 336 958 l 332 953 q 313 914 324 942 l 316 900 q 308 889 315 897 q 299 879 300 882 q 295 861 297 870 l 283 850 q 262 805 273 836 q 242 758 248 770 q 218 709 220 716 q 238 656 212 682 q 222 643 236 648 q 201 633 203 636 q 199 619 199 629 q 197 603 199 608 l 193 603 q 187 582 189 595 q 182 559 185 566 q 170 543 180 553 q 154 527 157 531 q 147 512 151 522 q 140 496 143 502 q 127 490 132 492 q 124 476 125 486 q 121 462 123 465 q 80 388 102 413 q 95 353 81 368 q 78 336 91 344 q 60 322 64 328 q 45 290 51 310 l 45 271 q 32 254 43 265 q 19 239 22 244 q 15 222 17 234 q 11 205 14 210 q 7 204 10 205 q 3 201 3 203 q 5 181 5 181 q -18 132 5 186 l -22 107 q -28 102 -23 106 q -35 97 -33 99 l -37 85 l -43 83 l -43 68 q -67 42 -47 58 l -65 20 l -71 20 l -71 13 l -65 13 q -63 7 -64 9 q -43 -16 -62 -5 q -28 -83 -41 -49 q -26 -104 -26 -90 q -24 -124 -28 -117 l -16 -128 q -9 -161 -9 -141 q -5 -162 -8 -161 q 1 -163 -1 -163 q 23 -28 5 -60 l 27 -28 q 37 -56 36 -49 q 35 -79 37 -64 q 38 -81 35 -79 q 39 -85 39 -82 q 37 -116 37 -115 q 41 -130 41 -132 q 41 -183 41 -182 q 45 -212 43 -190 q 50 -241 47 -231 l 45 -300 q 58 -390 58 -372 l 60 -392 l 66 -392 q 62 -304 62 -383 q 60 -281 61 -293 q 64 -261 64 -261 q 65 -251 64 -258 q 66 -241 67 -245 q 63 -235 66 -240 q 60 -231 60 -231 q 64 -187 56 -218 q 60 -177 63 -191 q 66 -144 59 -174 q 64 -106 64 -119 q 69 -102 64 -104 q 74 -97 73 -100 q 99 -42 98 -43 q 102 -40 100 -41 q 105 -38 104 -39 l 109 -38 q 115 -58 111 -45 q 119 -75 118 -68 q 120 -106 119 -77 q 125 -136 121 -127 l 125 -138 q 130 -191 118 -144 q 128 -227 132 -199 q 132 -261 126 -252 q 136 -263 133 -262 q 136 -262 136 -262 q 138 -261 137 -261 q 132 -249 136 -254 q 139 -209 139 -239 q 140 -165 139 -170 q 136 -146 138 -156 q 140 -106 132 -127 q 136 -50 129 -64 q 142 -45 138 -49 q 148 -40 146 -41 q 149 -27 150 -36 q 148 -18 147 -18 q 153 -13 149 -16 q 158 -9 157 -10 q 160 3 160 -5 q 160 13 159 12 q 165 18 162 15 q 170 24 169 22 q 174 33 172 26 q 176 42 176 39 q 198 67 180 48 q 216 95 211 81 q 215 106 217 100 q 216 117 213 113 q 238 180 222 132 q 262 239 250 216 q 273 248 264 243 q 283 257 281 254 q 289 269 286 260 q 295 279 292 277 q 320 300 321 302 q 322 316 321 311 q 334 342 323 321 q 345 370 341 359 l 349 370 q 349 269 366 321 q 357 261 354 264 q 365 261 357 261 q 373 279 374 286 q 370 290 374 282 q 367 302 366 298 q 373 357 374 363 q 370 366 374 360 q 369 378 367 372 q 378 389 371 383 q 387 398 386 396 q 389 410 391 404 q 387 420 387 418 q 391 424 389 422 q 393 427 393 426 l 393 449 q 414 545 418 550 l 414 549 q 420 521 419 542 q 425 488 422 495 q 432 470 426 481 q 441 454 439 458 q 444 398 435 434 q 453 342 454 359 q 449 290 447 287 q 456 277 450 280 q 469 273 472 271 q 471 252 475 264 q 467 228 465 236 q 471 222 467 227 q 473 218 473 218 l 469 185 q 472 182 470 184 q 475 179 474 180 q 473 151 484 161 q 479 134 472 144 q 477 113 486 125 z "},":":{"ha":194,"x_min":19,"x_max":162,"o":"m 159 530 q 159 545 160 532 q 162 559 159 554 q 160 573 162 571 q 157 575 160 573 q 153 580 155 576 q 150 587 152 582 q 147 595 148 592 q 138 608 137 610 q 58 611 92 619 q 47 610 55 610 q 37 607 41 610 q 35 604 37 607 q 34 600 35 601 q 29 598 33 600 q 24 595 26 597 q 22 591 23 595 q 19 587 20 588 q 28 547 20 578 q 29 468 41 501 q 54 455 51 460 q 59 418 56 450 q 58 410 60 416 q 58 404 58 405 q 60 399 59 401 q 63 394 62 396 l 67 394 q 70 400 68 397 q 73 404 73 403 q 79 452 74 401 q 83 455 82 454 q 94 454 87 455 q 102 453 100 453 q 105 448 102 452 q 109 430 111 441 q 108 428 109 429 q 106 425 106 427 q 109 419 107 422 q 113 414 112 415 l 113 401 q 115 375 115 393 q 117 348 117 353 q 117 347 117 348 q 118 347 118 347 l 121 347 q 123 374 123 353 q 127 399 123 391 q 125 430 121 414 q 133 458 133 460 l 151 461 q 155 465 152 462 q 159 469 158 468 q 162 499 159 490 q 159 515 162 500 q 159 530 157 518 m 159 180 q 159 194 160 182 q 162 208 159 203 q 160 222 162 220 q 157 224 160 222 q 153 229 155 227 q 150 237 152 231 q 147 244 148 241 q 138 258 137 260 q 58 260 92 269 q 47 259 55 259 q 37 257 41 259 q 35 254 37 256 q 34 250 35 250 q 29 248 33 249 q 24 245 26 246 q 22 241 23 244 q 19 236 20 237 q 28 197 20 228 q 29 117 41 151 q 54 104 51 109 q 59 68 56 99 q 58 60 60 66 q 58 53 58 54 q 60 48 59 50 q 63 43 62 45 l 67 43 q 70 50 68 47 q 73 54 73 52 q 79 101 74 50 q 83 104 82 103 q 94 103 87 104 q 102 102 100 102 q 105 98 102 102 q 109 79 111 90 q 108 77 109 79 q 106 75 106 76 q 109 68 107 73 q 113 63 112 64 l 113 50 q 115 24 115 42 q 117 -3 117 2 q 117 -3 117 -3 q 118 -3 118 -3 l 121 -3 q 123 24 123 3 q 127 48 123 40 q 125 79 121 64 q 133 108 133 110 l 151 111 q 155 114 152 111 q 159 119 158 117 q 162 149 159 140 q 159 165 162 150 q 159 180 157 168 z "},";":{"ha":199,"x_min":14,"x_max":174,"o":"m 154 530 q 154 545 155 532 q 157 559 154 554 q 155 573 157 571 q 152 575 155 573 q 147 580 149 576 q 144 587 146 582 q 142 595 142 592 q 132 608 132 610 q 53 611 87 619 q 42 610 50 610 q 32 607 36 610 q 30 604 31 607 q 28 600 29 601 q 24 598 27 600 q 19 595 20 597 q 16 591 18 595 q 14 587 14 588 q 23 547 14 578 q 24 468 36 501 q 48 455 45 460 q 54 418 50 450 q 53 410 54 416 q 53 404 52 405 q 55 399 54 401 q 58 394 57 396 l 62 394 q 64 400 62 397 q 68 404 67 403 q 73 452 68 401 q 78 455 77 454 q 88 454 81 455 q 96 453 94 453 q 100 448 97 452 q 104 430 105 441 q 102 428 103 429 q 101 425 101 427 q 104 419 102 422 q 107 414 106 415 l 107 401 q 110 375 109 393 q 111 348 111 353 q 112 347 112 348 q 113 347 113 347 l 116 347 q 118 374 117 353 q 122 399 118 391 q 119 430 115 414 q 127 458 127 460 l 145 461 q 150 465 146 462 q 154 469 153 468 q 157 499 154 490 q 153 515 157 500 q 154 530 152 518 m 166 219 q 168 236 165 226 q 170 255 170 247 q 163 264 164 260 q 113 271 140 262 q 95 269 106 267 q 77 268 83 270 q 71 264 75 267 q 65 260 67 260 q 58 260 63 258 q 50 264 52 261 q 37 260 44 264 q 39 254 38 256 q 34 247 39 250 q 37 227 34 241 l 34 168 q 39 112 39 124 q 43 103 43 104 q 48 102 45 103 q 54 100 51 100 q 70 106 54 100 q 87 105 80 109 l 89 105 q 91 88 87 98 q 94 74 94 78 q 85 41 90 53 q 75 -28 92 15 q 70 -49 76 -33 q 62 -66 64 -64 q 62 -73 62 -70 q 74 -62 71 -71 q 81 -48 80 -50 q 108 -5 98 -28 q 108 -1 108 -4 q 109 3 109 1 l 113 7 q 113 10 113 8 q 112 13 113 12 q 117 26 114 21 q 119 26 117 26 q 131 41 122 31 q 142 56 139 50 q 145 68 144 60 q 148 81 146 77 q 152 88 149 83 q 156 95 155 93 q 155 102 154 100 q 161 110 156 104 q 168 118 166 115 q 168 130 169 122 q 168 144 166 139 q 166 219 174 166 z "},"<":{"ha":688,"x_min":59,"x_max":629,"o":"m 629 728 l 205 485 l 629 244 l 629 131 l 59 457 l 59 513 l 629 842 l 629 728 z "},"=":{"ha":688,"x_min":59,"x_max":629,"o":"m 59 428 l 629 428 l 629 333 l 59 333 l 59 428 m 59 640 l 629 640 l 629 545 l 59 545 l 59 640 z "},">":{"ha":688,"x_min":59,"x_max":629,"o":"m 59 842 l 629 513 l 629 457 l 59 131 l 59 244 l 483 485 l 59 728 l 59 842 z "},"?":{"ha":667,"x_min":6,"x_max":661,"o":"m 602 826 q 593 827 599 827 q 583 828 587 827 l 583 823 q 552 798 588 824 l 552 796 l 550 796 q 553 852 546 817 q 552 905 559 884 q 494 927 501 923 q 491 932 492 928 q 488 938 490 937 l 479 938 q 474 943 477 939 q 470 949 471 948 q 463 949 468 951 q 456 949 458 948 q 447 960 450 957 l 429 964 q 418 972 425 966 q 408 981 411 979 q 404 980 408 981 q 397 979 399 979 q 341 1000 372 987 q 319 989 344 1002 q 317 927 317 928 l 317 923 q 300 947 309 927 l 292 947 q 277 977 292 956 q 201 968 251 979 q 187 960 196 967 q 175 949 177 951 q 165 948 172 949 q 156 947 159 947 l 154 942 q 148 941 152 941 q 141 940 143 940 q 127 932 136 938 q 113 925 117 927 q 106 924 111 925 q 98 923 100 924 q 97 920 98 922 q 96 918 96 918 q 71 912 90 914 q 47 905 54 910 q 35 909 41 905 q 24 916 28 914 q 12 908 20 913 q 9 901 12 905 q 7 895 7 897 q 10 869 12 876 q 7 850 6 852 q 16 839 9 846 q 20 827 17 835 q 24 815 22 819 q 29 811 24 813 q 35 808 34 809 q 50 740 47 787 q 62 731 58 736 q 96 744 92 732 l 100 744 q 86 718 98 731 q 66 695 70 703 q 91 647 87 661 l 91 623 q 96 611 92 618 q 102 602 101 603 q 107 570 104 597 l 106 561 q 109 558 106 560 q 111 555 111 556 l 111 529 q 115 509 112 528 q 121 486 117 493 q 130 462 120 471 q 136 460 132 461 q 138 483 136 465 q 139 501 140 498 q 136 513 136 513 q 141 520 136 516 q 146 529 146 525 q 159 544 157 532 q 163 566 163 564 q 184 588 168 576 q 206 608 202 600 q 221 524 205 608 q 220 498 224 507 q 233 484 222 484 q 239 537 239 500 q 243 581 239 572 q 277 623 243 579 l 285 623 q 290 632 286 627 q 294 642 293 637 q 342 598 323 642 q 342 586 344 596 q 347 570 342 577 l 347 566 q 359 570 355 567 q 363 590 366 579 q 360 600 363 593 q 357 611 358 607 l 361 632 q 371 635 368 633 q 394 607 385 633 q 397 559 403 581 q 368 509 389 528 q 349 492 363 504 q 328 473 336 481 q 326 468 327 471 q 302 463 317 467 q 279 458 284 459 q 257 460 274 457 q 233 458 242 461 q 224 453 230 457 q 216 447 217 448 q 225 380 214 408 q 230 374 226 378 q 235 369 234 370 q 234 361 235 366 q 233 355 233 356 q 248 290 242 311 q 252 271 250 283 q 255 253 254 258 q 253 231 257 245 q 255 212 250 220 q 256 209 255 211 q 257 206 256 207 q 276 233 276 210 q 277 275 276 272 q 290 307 283 295 l 292 311 l 296 311 q 304 271 301 297 q 309 233 307 239 q 319 195 319 192 q 287 189 290 191 q 276 182 285 189 q 264 176 269 178 q 250 176 258 175 q 235 171 243 176 q 236 100 230 146 q 253 42 242 52 q 244 23 252 37 q 240 3 239 14 q 313 -12 243 3 q 330 -13 319 -13 q 349 -14 342 -14 q 356 -7 350 -13 q 365 -1 361 -3 q 380 2 368 0 q 393 6 389 3 q 399 13 397 8 q 404 20 402 18 q 396 55 403 31 q 389 89 391 77 q 391 98 389 92 q 395 107 395 104 q 393 117 395 111 q 389 124 389 123 q 395 146 389 124 q 389 212 405 186 q 392 216 390 214 q 395 218 395 217 l 395 238 q 399 290 401 277 q 408 322 397 296 l 412 340 q 434 356 417 348 q 460 363 452 363 q 466 360 462 363 q 471 357 471 357 q 479 361 473 357 q 486 363 484 365 q 503 347 493 362 q 515 324 511 334 l 515 309 q 518 307 515 308 q 522 303 522 305 q 521 292 523 300 q 520 281 519 283 q 525 250 522 272 q 531 219 528 231 q 533 218 532 219 q 535 218 534 218 q 536 279 542 237 q 531 335 529 324 q 541 382 541 382 q 600 425 543 387 q 629 514 601 457 q 625 548 639 536 q 641 568 627 557 q 659 587 655 578 q 654 625 661 596 q 647 665 646 656 q 602 826 652 743 z "},"@":{"ha":1188,"x_min":-3,"x_max":1164,"o":"m 687 419 q 669 402 681 415 q 650 387 658 391 q 640 322 656 336 q 660 285 652 288 q 652 270 659 277 q 642 257 644 262 q 605 255 631 258 q 605 245 605 245 q 594 239 600 237 q 580 240 585 241 q 563 222 568 229 q 543 219 557 220 q 526 215 531 218 q 464 271 481 216 q 481 342 446 326 q 453 387 480 370 l 453 394 q 483 399 473 399 q 496 387 500 382 q 508 389 505 387 q 520 404 515 393 q 530 419 526 415 q 532 420 531 419 q 533 421 532 421 q 534 420 533 421 q 535 419 535 419 l 535 421 q 590 384 560 421 q 620 382 596 379 q 650 410 627 390 q 680 439 670 426 l 687 439 q 687 419 686 423 m 1149 387 q 1152 414 1148 419 q 1142 431 1151 427 q 1124 439 1120 441 q 1122 444 1123 440 q 1124 449 1123 446 l 1132 449 q 1137 461 1133 456 q 1144 471 1143 468 q 1147 509 1143 469 q 1135 558 1147 510 q 1122 608 1123 606 q 1113 614 1120 610 q 1105 620 1106 618 q 1101 636 1101 625 q 1097 652 1099 648 q 1082 667 1092 657 q 1081 676 1082 670 q 1080 685 1080 682 q 1030 794 1044 741 q 1008 802 1031 794 q 983 801 1000 804 q 963 802 969 798 q 963 857 960 808 q 951 870 959 860 q 941 884 945 880 q 931 884 937 887 q 920 884 925 882 q 895 901 911 888 q 871 921 876 918 q 855 926 865 924 q 838 930 844 928 q 824 941 835 932 q 808 951 814 949 l 794 951 q 768 965 787 954 q 742 981 751 977 q 715 982 730 977 q 692 988 697 988 q 625 988 626 987 q 618 993 624 988 q 612 998 614 998 q 588 995 604 1001 q 565 988 570 988 q 548 992 560 988 q 530 998 533 997 q 481 994 510 1002 q 439 985 448 985 q 351 964 401 986 q 284 916 302 941 q 282 907 281 912 q 282 899 283 901 q 270 880 278 892 q 260 863 262 869 q 264 819 252 844 l 262 819 q 245 818 259 817 q 222 817 231 819 q 208 809 217 815 q 193 802 198 803 q 118 665 180 747 q 115 652 117 660 q 85 595 82 591 q 54 543 58 557 q 41 424 23 446 q 24 380 41 400 q 1 345 4 357 q 9 303 -3 328 q 16 262 21 279 q 1 215 0 209 q 16 140 -2 193 l 16 109 q 21 99 17 106 q 26 91 26 93 q 25 76 27 87 q 24 61 23 64 q 31 21 24 52 q 32 -7 31 12 q 33 -36 33 -26 q 51 -113 45 -70 q 61 -170 57 -167 q 62 -172 61 -170 q 63 -173 63 -172 l 63 -170 l 68 -170 q 68 -46 67 -50 q 68 -29 70 -39 q 68 -16 66 -20 l 68 -11 q 85 -24 78 -14 q 98 -39 94 -36 q 105 -39 100 -39 q 113 -41 111 -41 q 131 -52 119 -43 q 150 -63 142 -60 l 153 -83 q 157 -76 156 -81 l 163 -76 q 200 -152 191 -105 q 205 -197 202 -165 q 212 -250 209 -231 q 222 -299 221 -304 q 227 -327 221 -308 q 227 -351 232 -343 l 230 -361 q 242 -359 237 -361 q 242 -257 234 -279 q 252 -242 244 -252 q 260 -227 258 -234 q 267 -180 270 -176 q 294 -186 279 -175 q 306 -196 298 -189 q 317 -205 313 -202 q 369 -247 363 -235 l 369 -262 q 391 -347 378 -285 q 393 -369 393 -353 q 396 -389 393 -382 l 396 -391 q 399 -390 397 -391 q 401 -389 400 -389 q 402 -390 401 -389 q 404 -391 404 -391 q 399 -422 399 -398 q 406 -451 401 -445 l 406 -454 q 418 -441 416 -450 q 417 -431 420 -439 q 414 -416 413 -420 q 411 -312 421 -352 q 406 -262 401 -271 q 409 -254 409 -254 q 448 -254 449 -255 q 484 -271 458 -257 q 523 -284 507 -282 q 532 -281 526 -285 q 541 -277 538 -277 q 557 -281 544 -277 q 570 -284 570 -285 q 578 -277 580 -275 q 595 -282 575 -277 q 623 -275 594 -281 q 654 -279 618 -275 q 705 -275 661 -280 q 751 -282 738 -271 q 777 -277 767 -282 q 772 -252 777 -281 q 705 -235 766 -253 q 673 -238 692 -231 q 642 -242 653 -245 q 633 -237 640 -241 q 623 -232 626 -233 q 605 -231 616 -232 q 587 -230 593 -230 q 576 -222 585 -229 q 565 -215 568 -216 q 556 -216 562 -214 q 548 -217 551 -218 q 508 -185 556 -218 q 496 -182 505 -182 q 483 -180 488 -182 q 467 -163 477 -177 q 451 -145 455 -149 l 451 -143 q 513 -153 485 -140 q 538 -166 522 -157 q 565 -180 555 -176 q 583 -186 572 -183 q 595 -190 591 -188 q 608 -185 600 -189 q 591 -157 607 -165 q 576 -152 587 -156 q 560 -145 566 -149 q 529 -123 555 -142 q 496 -103 509 -108 q 490 -104 494 -103 q 483 -106 486 -105 q 426 -91 443 -97 q 387 -68 393 -79 q 385 -62 385 -66 q 381 -56 384 -58 q 368 -52 377 -53 q 354 -48 359 -51 q 347 -37 351 -46 q 339 -24 342 -26 q 314 -7 334 -19 q 290 12 296 2 l 290 21 q 260 39 283 31 q 230 56 236 47 q 187 138 226 61 q 180 148 186 140 q 172 158 174 155 q 175 205 178 194 q 157 277 157 274 q 164 310 158 277 q 172 342 169 335 q 185 361 186 365 q 185 375 186 364 q 185 389 184 387 q 242 494 200 464 q 239 515 242 504 q 237 528 237 528 q 284 538 232 520 q 290 543 286 539 q 299 546 293 545 q 319 591 300 571 q 354 620 321 594 q 365 635 359 625 q 374 652 371 648 q 385 658 377 656 q 399 663 395 661 q 412 675 404 666 q 426 690 422 686 q 445 694 431 694 q 466 697 460 694 q 475 707 467 699 q 563 732 570 736 q 574 748 569 736 q 580 764 578 762 l 580 769 q 610 685 604 755 q 662 685 621 682 q 707 682 699 688 q 736 656 718 675 q 764 630 755 637 l 764 623 q 808 588 800 614 l 808 573 q 829 552 813 564 q 851 533 846 539 q 865 507 855 528 q 883 484 873 492 l 883 473 l 893 473 l 893 464 q 908 448 899 459 q 923 431 918 435 q 923 412 922 426 q 923 394 924 398 q 905 357 913 363 q 905 355 905 356 q 903 354 903 355 l 903 357 q 859 406 872 377 q 851 439 852 433 q 823 471 847 444 q 802 528 797 532 q 764 551 795 535 q 732 578 738 565 l 724 578 l 724 585 q 587 625 650 612 q 560 615 580 627 q 530 621 552 621 q 498 623 505 620 q 478 607 494 616 q 460 588 465 598 q 460 568 456 581 q 463 553 464 555 l 463 548 q 445 556 454 550 q 429 566 434 564 q 382 551 418 571 q 342 518 347 532 l 334 518 l 334 511 q 299 473 313 497 l 292 473 q 260 404 293 484 q 240 315 245 368 q 252 233 235 256 q 275 218 257 220 q 299 225 283 214 q 302 222 302 222 q 287 161 298 175 q 295 148 288 153 q 304 138 302 141 q 387 56 347 64 q 436 -66 411 -46 l 439 -68 q 444 -62 439 -67 q 448 -56 448 -58 q 433 21 450 -50 q 475 61 438 38 q 533 73 481 64 q 541 31 547 44 q 555 -3 539 6 q 570 -130 547 -101 q 575 -133 572 -132 q 583 -128 578 -131 q 582 -79 584 -112 q 579 -24 580 -35 q 597 68 578 43 q 635 86 608 82 q 667 94 664 90 q 686 84 681 94 q 692 64 688 81 q 729 56 722 56 q 749 76 741 67 q 779 56 764 73 q 785 34 783 50 q 789 14 788 15 q 814 -85 797 -11 q 814 -122 817 -100 q 814 -155 812 -145 q 817 -166 814 -158 q 821 -178 821 -175 q 819 -202 819 -193 q 825 -211 820 -205 q 831 -220 830 -218 l 841 -220 q 839 -186 842 -212 q 838 -153 837 -163 q 841 -103 843 -123 q 841 -54 838 -69 q 840 -32 842 -45 q 841 -16 839 -20 l 841 12 q 878 14 874 16 l 905 14 q 926 -39 911 11 q 930 -197 924 -35 q 945 -205 937 -200 q 941 -214 944 -210 q 935 -220 937 -218 q 935 -262 934 -224 q 938 -302 937 -299 q 939 -303 939 -302 q 941 -304 940 -304 q 944 -282 944 -296 q 945 -260 945 -264 q 956 -159 950 -233 q 968 -61 960 -92 q 970 -31 969 -55 q 978 -3 972 -14 q 986 0 980 -1 q 995 4 993 2 q 1000 24 996 7 q 1011 34 1003 28 q 1023 43 1019 39 q 1027 42 1024 43 q 1032 41 1031 41 q 1039 1 1036 28 q 1045 -39 1042 -28 l 1042 -91 q 1053 -156 1048 -117 q 1062 -224 1059 -208 l 1067 -224 q 1069 -14 1063 -76 q 1067 21 1071 -4 q 1067 58 1063 43 q 1095 153 1070 71 l 1102 153 l 1102 161 l 1107 161 q 1117 9 1108 81 q 1114 -41 1122 -33 q 1127 -58 1116 -53 q 1122 -155 1130 -52 q 1124 -160 1123 -157 l 1129 -160 q 1139 131 1140 119 q 1147 146 1139 125 q 1154 227 1164 195 q 1147 235 1149 233 q 1154 287 1144 242 q 1149 387 1152 280 z "},"A":{"ha":839,"x_min":-9,"x_max":834,"o":"m 332 406 q 336 425 334 411 q 340 440 336 435 q 351 450 342 443 q 360 464 357 455 q 352 490 359 461 q 380 501 375 486 q 393 480 385 498 q 406 456 404 458 q 419 441 410 450 q 433 428 430 432 q 446 406 439 421 q 457 382 453 389 q 472 369 460 377 q 485 359 484 361 q 488 349 486 355 q 492 341 490 345 q 490 337 492 338 q 469 336 488 336 q 439 333 450 336 q 430 328 436 332 q 421 323 424 323 l 393 329 q 374 311 392 329 q 382 268 384 274 q 378 261 381 266 q 374 252 375 256 l 370 252 q 361 267 368 258 q 352 279 354 276 q 351 295 351 282 q 346 311 350 307 q 304 326 344 314 q 332 406 305 330 m 44 -219 q 42 -237 42 -237 q 56 -300 58 -278 l 58 -302 q 68 -298 62 -301 q 64 -223 68 -307 q 64 -178 61 -181 l 66 -176 q 75 -219 72 -191 q 81 -264 80 -256 l 81 -290 q 92 -372 89 -313 l 94 -372 q 96 -366 95 -366 l 96 -363 q 99 -395 104 -374 q 101 -399 100 -396 l 105 -399 q 103 -315 109 -378 q 99 -233 96 -250 q 99 -207 100 -227 q 99 -185 98 -189 q 107 -177 100 -183 q 115 -168 114 -171 q 119 -115 121 -153 q 125 -68 119 -79 l 125 -53 l 129 -53 q 139 -104 143 -100 l 139 -114 q 145 -110 140 -113 q 146 -121 146 -115 q 147 -134 145 -128 q 161 -181 156 -170 l 163 -207 q 195 -292 195 -296 l 198 -292 q 176 -185 195 -251 l 178 -168 q 171 -128 170 -126 q 189 -110 171 -117 q 190 -50 193 -87 q 189 9 186 -8 q 186 42 192 37 l 198 56 q 200 100 208 81 q 224 121 218 111 q 226 113 227 120 q 243 123 245 124 q 248 125 245 124 q 257 82 254 109 q 264 40 262 45 l 262 24 q 275 -15 262 -7 q 271 -29 275 -16 q 277 -29 273 -29 q 278 -51 274 -39 q 283 -66 283 -65 q 290 -62 287 -65 q 286 -31 284 -37 q 283 -12 286 -28 q 283 9 281 3 q 290 17 285 12 q 297 28 296 22 q 307 82 311 87 q 331 119 307 77 q 339 117 336 119 q 347 94 345 109 q 353 66 350 73 q 357 57 353 64 q 363 48 361 51 l 366 -23 q 378 -110 377 -64 l 380 -112 q 387 -110 385 -111 q 385 -105 389 -108 q 382 -98 381 -102 l 388 -96 q 391 -72 393 -87 q 390 -47 389 -54 q 394 -35 391 -43 q 398 -21 397 -26 q 397 -5 399 -16 q 396 9 395 6 q 399 12 396 9 q 402 16 402 16 q 401 24 403 20 q 400 28 400 28 q 410 60 399 47 l 410 64 l 416 64 q 432 14 418 51 q 437 -14 435 5 q 441 -43 437 -33 q 447 -47 442 -45 q 452 -51 451 -50 l 450 -77 q 454 -85 450 -79 q 458 -92 457 -92 l 454 -106 q 456 -110 454 -107 q 463 -108 461 -109 q 458 -19 468 -90 l 461 -9 q 455 9 461 -7 q 452 31 450 23 q 471 71 455 46 q 493 110 489 97 l 511 111 q 527 56 511 108 q 526 30 530 46 q 527 7 523 14 q 532 3 528 5 q 536 -1 536 1 q 551 -79 559 -56 q 555 -92 551 -85 l 560 -92 q 558 -27 562 -77 q 560 42 555 14 q 559 55 562 47 q 557 66 556 62 q 565 90 557 73 q 574 113 572 106 q 589 102 588 113 q 592 82 593 81 q 600 72 593 78 q 608 62 606 65 q 612 43 611 56 q 616 24 614 30 q 622 14 617 21 q 628 5 627 8 q 628 -18 629 -2 q 628 -37 627 -33 q 652 -241 654 -131 l 657 -239 l 663 -239 q 671 -197 662 -227 l 669 -168 q 687 -106 675 -142 l 691 -104 q 699 -134 694 -111 l 697 -146 q 702 -153 698 -147 q 707 -161 706 -159 l 707 -185 q 711 -193 707 -186 q 715 -201 714 -200 l 713 -221 q 717 -229 713 -223 q 721 -237 720 -235 q 732 -286 733 -287 l 732 -288 l 736 -288 q 730 -183 747 -246 q 734 -136 722 -149 l 734 -134 q 745 -172 736 -134 q 758 -256 743 -163 q 759 -277 758 -258 q 760 -296 760 -295 l 766 -298 q 767 -316 768 -302 q 768 -338 766 -330 q 790 -409 788 -404 l 796 -456 l 804 -465 l 802 -472 q 808 -496 801 -486 q 814 -494 808 -496 q 806 -454 811 -470 q 806 -448 805 -452 q 808 -444 808 -445 q 804 -439 808 -444 q 800 -435 800 -435 q 800 -412 798 -429 q 800 -387 802 -394 q 788 -344 793 -368 l 790 -318 q 786 -306 786 -307 q 781 -268 787 -296 q 784 -233 777 -246 q 778 -205 776 -219 q 774 -172 780 -195 q 770 -138 768 -151 q 775 -122 771 -134 q 780 -104 779 -110 q 790 -53 791 -52 l 792 -51 q 812 -144 789 -43 q 812 -164 813 -151 q 812 -181 811 -178 q 820 -252 826 -241 l 820 -260 l 829 -262 q 832 -219 829 -252 q 831 -179 834 -195 l 833 -159 q 820 -77 825 -127 q 829 -41 818 -64 q 828 -20 827 -35 q 827 5 830 -4 q 825 13 827 6 q 822 20 822 18 l 822 24 q 825 28 822 25 q 827 33 827 32 q 822 46 827 31 l 822 80 q 814 108 823 73 q 804 153 810 120 q 794 199 798 184 q 785 214 792 204 q 776 229 778 223 q 774 243 774 233 q 774 254 775 252 q 768 262 773 256 q 760 270 762 268 q 732 315 743 298 q 705 381 728 323 q 671 436 688 426 q 655 439 665 439 q 642 440 645 439 q 624 444 631 440 q 637 503 637 496 q 631 515 635 506 q 624 525 627 522 l 618 526 l 616 526 q 616 527 616 526 q 616 527 614 527 q 616 527 614 527 l 615 527 l 615 527 q 614 527 617 526 l 614 527 q 614 527 614 527 l 614 527 q 588 567 599 539 q 581 597 585 576 q 572 626 577 616 q 542 673 566 640 q 513 721 519 704 q 513 729 512 724 q 515 735 515 735 q 507 744 513 738 q 497 753 499 750 q 486 772 492 759 q 473 792 478 786 l 458 804 q 451 818 454 808 q 444 832 447 827 q 434 838 441 835 q 426 846 428 840 q 406 844 412 840 l 398 844 q 402 857 399 848 q 406 869 406 864 q 414 859 412 867 l 416 859 q 395 916 414 886 q 366 964 370 958 l 363 990 q 323 1059 352 1021 q 309 1061 314 1060 q 292 1040 300 1046 q 297 1010 296 1005 q 281 960 299 1020 q 282 954 281 958 q 283 951 283 951 q 265 892 280 942 q 245 833 254 854 q 240 804 242 825 q 234 774 238 784 q 214 729 212 723 q 212 711 213 724 q 208 695 211 700 l 208 693 q 214 699 209 694 q 216 699 214 700 q 226 682 220 695 q 236 665 231 670 q 234 660 235 661 l 234 656 q 204 656 208 658 l 200 656 q 208 680 199 673 l 208 691 l 206 691 q 178 594 181 640 l 171 592 q 172 589 171 585 l 174 591 q 159 543 174 555 l 159 541 l 155 545 l 155 549 l 153 549 l 157 533 l 155 533 q 151 533 154 532 l 147 529 q 121 432 145 458 q 117 436 119 433 q 114 422 115 432 q 111 406 113 410 q 102 387 109 401 q 91 365 94 373 q 96 321 80 336 q 74 274 96 292 q 96 222 77 258 l 96 218 q 44 216 87 218 q 40 210 43 212 q 36 205 37 206 q 36 197 35 201 q 38 191 38 191 q 30 173 38 195 l 30 159 q 24 128 28 154 q 16 96 20 108 q 5 74 14 89 q -5 52 -3 58 q -5 28 -8 46 q -9 5 -3 12 q 3 -28 -9 -7 q 20 -60 18 -54 q 21 -77 22 -64 q 22 -96 20 -90 q 31 -134 25 -109 q 40 -170 37 -159 q 39 -185 41 -176 q 38 -197 37 -195 q 41 -207 38 -198 q 44 -219 44 -215 z "},"B":{"ha":732,"x_min":-50,"x_max":728,"o":"m 247 281 q 258 374 260 307 q 300 376 298 376 q 328 372 321 370 q 357 378 348 378 q 363 410 357 378 q 383 433 367 429 q 387 435 385 435 q 393 392 397 409 q 387 370 388 368 q 396 349 387 357 q 407 332 406 342 q 420 330 419 331 l 422 321 l 429 321 q 448 271 445 286 q 447 254 450 263 q 446 239 444 245 q 417 220 448 248 q 408 206 413 217 q 397 194 402 197 q 403 162 396 173 l 403 137 q 357 184 388 147 q 340 180 345 184 q 330 164 335 176 q 308 157 318 162 q 288 165 301 164 q 267 168 273 165 q 256 211 259 179 q 258 256 252 245 q 243 279 258 267 l 241 281 q 247 281 242 281 m 256 703 q 267 741 269 713 q 273 784 265 772 l 273 786 l 276 786 q 280 754 279 776 q 284 724 281 734 q 308 720 305 720 q 334 726 330 728 q 347 719 338 725 q 361 711 356 713 q 347 645 376 675 q 370 619 348 628 l 370 612 l 375 612 q 379 602 376 605 l 379 600 q 338 625 370 602 q 314 621 328 630 q 292 606 286 603 q 274 606 288 604 q 258 608 261 609 l 252 608 q 256 658 248 629 q 256 703 262 684 m 21 873 q 15 821 24 865 q 21 728 14 812 q 38 710 23 711 q 64 705 60 707 q 68 701 66 703 q 73 696 68 698 q 39 659 72 669 q 35 648 39 656 q 33 637 33 640 q 40 612 34 631 q 47 586 45 593 l 39 554 q 51 491 32 523 q 96 487 73 481 l 108 469 q 90 450 103 454 q 68 439 73 445 q 65 431 66 437 q 62 422 64 424 q 92 384 64 402 q 71 348 91 374 q 45 309 49 319 q 51 275 45 311 q 51 257 52 271 q 51 239 50 245 q 55 208 56 214 q 60 125 50 176 q 57 79 64 112 l 58 64 q 55 55 58 63 q 53 45 52 48 q 82 -61 61 -3 l 81 -79 q 83 -85 81 -82 q 86 -91 86 -90 q 85 -109 88 -97 q 84 -127 83 -121 q 100 -156 83 -148 l 102 -154 q 146 -7 94 -98 q 155 -9 153 -8 q 157 -21 157 -11 q 159 -35 157 -32 q 181 -79 177 -62 l 179 -103 l 187 -111 q 191 -160 192 -121 q 203 -168 193 -161 q 209 -214 203 -193 l 207 -248 q 222 -294 211 -264 q 237 -340 233 -324 q 241 -369 239 -350 q 245 -397 243 -388 q 243 -416 245 -402 q 247 -433 242 -427 l 247 -435 q 254 -395 256 -422 q 252 -352 252 -359 q 254 -324 256 -331 q 251 -309 251 -307 q 253 -305 251 -309 q 254 -300 256 -303 l 251 -300 q 245 -281 250 -298 q 243 -260 243 -276 q 241 -239 243 -244 q 252 -146 252 -181 q 268 -98 252 -144 q 269 -43 279 -61 q 282 -20 269 -28 q 308 -91 298 -55 q 310 -111 309 -95 q 314 -130 311 -125 l 316 -136 q 330 -93 337 -132 l 330 -85 q 330 -73 331 -77 q 326 -68 330 -73 q 322 -63 322 -64 l 322 -59 q 325 -55 322 -58 q 328 -52 328 -52 q 331 -22 331 -43 q 334 2 331 -3 q 357 18 338 10 q 383 34 378 26 q 402 4 401 32 q 393 -35 403 -21 q 401 -41 395 -39 q 409 -47 407 -45 q 420 -138 421 -67 q 433 -130 427 -136 q 433 -93 439 -119 q 435 -78 431 -85 q 439 -67 439 -71 q 441 -2 434 -12 q 456 12 444 6 q 475 -56 468 -12 q 488 -128 486 -117 q 488 -153 490 -136 q 488 -174 486 -169 q 502 -322 496 -201 q 506 -324 505 -323 q 514 -319 512 -319 q 516 -249 507 -289 l 512 -231 q 515 -224 512 -230 q 516 -214 517 -219 q 515 -193 515 -208 q 516 -172 517 -176 q 547 12 493 -66 l 555 12 q 577 -111 583 -99 q 581 -117 578 -115 l 581 -119 l 584 -117 l 587 -117 q 591 -33 597 -92 q 609 43 587 18 l 609 45 l 614 43 l 618 41 q 640 -65 642 -53 q 646 -73 644 -68 l 654 -73 q 662 -101 654 -70 q 666 -158 669 -130 l 662 -168 q 668 -186 668 -186 l 670 -188 q 682 -182 673 -187 l 682 -50 q 684 -31 684 -42 q 684 -9 682 -18 l 688 -2 l 682 14 q 684 20 682 16 q 686 24 686 23 q 684 37 687 28 q 680 50 680 47 q 688 101 680 56 q 688 120 689 106 q 690 135 688 131 q 708 176 706 170 l 709 222 q 726 295 728 288 q 722 302 725 297 q 718 309 718 307 q 718 331 715 317 q 718 353 720 346 q 710 367 716 358 q 702 380 703 376 q 701 394 700 385 q 702 406 703 403 l 692 416 q 672 450 667 454 l 650 457 l 650 463 q 623 467 646 467 l 621 469 q 627 500 621 486 q 612 522 620 506 q 599 545 605 539 q 555 564 581 560 q 547 562 551 565 q 540 562 543 561 l 536 562 q 557 595 547 587 q 553 631 559 622 q 569 633 559 635 q 585 631 581 630 l 599 640 q 598 673 598 646 q 595 709 597 694 l 597 730 q 581 784 581 779 q 579 817 583 808 q 574 825 578 819 q 569 833 570 831 q 568 845 568 838 q 565 857 568 852 q 556 866 564 861 q 547 877 549 871 q 498 875 523 873 q 507 888 500 881 q 516 905 514 896 q 510 928 515 902 q 484 945 495 930 q 463 968 469 964 q 399 976 458 970 q 378 979 394 976 q 349 983 361 982 q 330 979 345 984 q 308 978 317 975 q 219 981 245 1000 q 203 944 223 984 q 178 985 187 949 q 106 976 162 987 q 62 980 93 973 q 48 979 58 981 q 33 976 36 976 q -2 987 24 975 q -35 991 -24 998 q -47 982 -45 991 q -50 960 -45 989 q 21 873 7 907 z "},"C":{"ha":747,"x_min":-9,"x_max":737,"o":"m -1 461 q 31 329 15 414 l 27 287 q 62 164 50 197 l 62 161 l 62 161 q 62 161 62 163 l 62 161 q 62 161 62 163 l 61 160 l 61 160 l 61 159 q 61 159 61 160 q 61 159 62 161 l 61 159 q 61 159 61 160 l 61 159 l 60 159 l 73 144 l 73 133 q 86 91 85 94 l 84 65 q 86 57 85 61 q 88 52 88 52 q 88 17 90 42 q 88 -16 86 -7 l 84 -41 q 90 -44 85 -42 q 94 -47 94 -46 q 104 -91 101 -60 q 100 -106 104 -85 q 104 -117 100 -107 q 102 -158 98 -136 q 109 -181 102 -161 q 114 -203 114 -197 q 114 -218 114 -217 q 120 -225 116 -221 q 126 -233 124 -229 l 127 -233 q 127 -233 127 -233 q 127 -233 127 -231 l 127 -233 l 127 -233 l 127 -232 l 127 -232 l 128 -231 l 134 -229 q 130 -199 134 -220 q 126 -166 125 -176 q 134 28 130 16 q 136 63 136 37 q 142 93 136 85 l 142 95 q 157 84 151 92 q 170 71 165 74 q 214 3 204 50 q 219 -37 216 -9 q 225 -75 222 -62 q 225 -109 227 -84 q 229 -140 223 -130 l 229 -144 l 233 -144 q 241 -132 241 -131 q 242 -106 243 -127 q 243 -77 241 -83 q 248 -53 243 -73 q 254 -30 252 -37 q 254 3 258 -20 q 256 30 250 22 q 292 -41 253 30 q 316 -130 304 -64 q 312 -152 316 -130 q 314 -190 312 -153 q 311 -218 315 -197 q 310 -248 308 -237 q 317 -289 312 -258 q 324 -328 321 -317 q 330 -410 335 -378 q 328 -437 325 -440 q 330 -457 328 -451 q 349 -427 351 -454 q 346 -388 347 -384 q 351 -350 353 -357 q 346 -317 346 -317 q 348 -308 346 -313 q 349 -300 350 -304 q 353 -132 336 -191 q 385 10 342 -77 q 441 12 429 20 q 444 6 442 11 q 446 0 445 1 q 463 -14 463 -14 l 463 -28 q 467 -35 463 -30 q 472 -41 471 -39 q 472 -68 474 -47 q 474 -97 471 -87 q 479 -101 475 -99 q 484 -104 484 -103 q 484 -166 484 -105 q 486 -182 484 -178 q 496 -186 489 -184 q 500 -138 505 -162 q 498 -136 500 -138 q 496 -132 496 -134 q 502 -113 497 -127 q 508 -93 507 -97 q 506 -73 509 -87 q 504 -50 503 -58 q 506 -9 506 -35 q 545 10 543 10 q 549 1 546 4 q 553 -6 553 -4 q 555 -18 555 -12 q 555 -30 555 -26 q 560 -42 556 -33 q 566 -56 564 -51 l 565 -58 l 565 -62 l 565 -64 q 565 -64 565 -65 l 565 -64 l 565 -65 l 565 -68 l 564 -81 l 564 -94 l 564 -100 l 564 -106 q 571 -140 566 -116 q 577 -170 576 -164 q 576 -178 578 -174 q 575 -184 575 -182 q 578 -217 577 -194 q 583 -249 580 -237 q 583 -271 585 -254 q 585 -295 583 -287 l 595 -295 q 597 -155 599 -253 q 603 -18 597 -64 q 600 21 604 -10 q 597 52 597 52 l 597 56 l 599 54 q 609 45 594 56 q 618 0 609 35 q 618 -13 620 -5 q 616 -24 616 -21 q 625 -119 632 -66 q 631 -128 629 -123 l 637 -128 q 642 -85 638 -104 q 638 -69 642 -90 q 640 -66 638 -68 q 642 -63 642 -63 q 644 -35 645 -53 q 642 -7 642 -14 q 640 22 644 1 q 640 58 637 42 q 646 76 642 63 q 652 93 651 89 l 650 100 l 648 107 q 656 129 648 100 l 656 157 q 661 162 657 158 q 664 168 664 167 q 664 182 665 173 q 666 198 663 191 q 676 206 668 201 q 686 214 684 210 l 686 226 l 694 232 l 696 256 q 705 271 698 260 q 713 287 712 281 l 713 311 q 719 317 714 312 q 724 323 723 321 q 724 330 725 327 q 726 336 724 332 q 730 372 737 362 q 724 382 729 374 q 694 372 712 382 q 690 358 692 368 q 688 347 689 349 q 668 303 669 298 q 665 300 667 302 q 662 297 663 297 q 654 297 660 296 q 648 299 648 298 q 640 288 645 296 q 633 275 635 278 l 633 273 l 631 273 q 642 313 631 282 q 648 349 652 340 q 645 359 648 354 q 640 370 642 366 q 629 368 631 370 q 621 348 623 365 q 616 325 618 328 q 602 304 614 320 q 589 283 591 289 l 591 273 q 579 254 592 277 l 579 245 q 562 237 576 241 q 557 231 560 237 q 553 226 555 227 q 538 224 550 224 q 519 220 526 224 q 498 199 512 215 q 476 178 485 183 q 413 155 479 180 q 357 161 398 176 q 308 190 317 168 q 273 161 302 189 l 273 159 l 269 159 q 269 206 269 205 q 262 212 267 210 q 254 218 256 216 q 211 285 214 279 q 209 307 208 294 q 211 329 212 323 q 208 334 211 329 q 205 340 205 340 q 199 400 194 377 q 210 435 200 403 q 219 477 218 459 q 178 519 182 517 q 183 532 178 524 q 211 530 191 532 q 241 530 227 529 l 241 536 q 258 580 232 534 l 269 586 l 273 608 q 338 720 311 702 q 357 724 342 724 q 379 720 374 724 q 403 728 389 720 q 407 752 408 755 q 407 752 408 753 q 407 752 409 753 q 408 752 406 751 q 408 753 406 751 q 408 753 406 751 q 408 753 410 755 q 408 753 406 751 q 408 753 408 753 q 409 754 408 753 l 409 754 q 409 754 410 755 q 409 754 408 753 l 409 752 q 429 722 417 745 q 448 692 439 699 q 468 686 456 688 q 488 681 482 684 q 498 673 492 680 q 508 665 504 667 l 512 663 l 513 663 l 514 663 l 514 663 q 514 663 512 664 l 515 663 l 517 662 l 526 659 l 534 629 q 553 588 551 597 q 557 536 564 545 q 575 521 558 524 q 573 441 576 534 q 571 386 572 385 l 571 382 q 587 401 585 386 q 591 427 589 424 q 605 485 593 433 l 603 515 q 609 535 604 521 q 614 554 614 552 q 601 637 619 569 q 600 659 599 645 q 599 677 602 671 q 577 716 599 696 l 577 720 q 601 701 597 709 q 603 688 603 696 q 607 677 604 681 q 625 660 610 672 q 642 642 637 649 q 645 632 644 637 q 646 621 645 625 q 651 614 647 619 q 656 606 655 608 q 654 582 652 587 l 662 574 l 661 554 q 663 544 661 551 q 666 532 665 539 l 668 530 q 666 527 668 529 q 664 524 665 525 q 670 451 654 481 q 676 431 670 437 q 686 427 677 431 q 688 497 699 467 q 680 515 680 517 q 686 536 686 543 l 682 560 q 688 564 688 563 q 690 594 690 572 l 688 612 l 686 629 q 690 659 691 655 q 675 691 687 673 q 661 718 663 711 l 661 730 q 646 770 653 749 l 646 770 l 646 770 l 647 770 q 647 770 648 772 l 647 770 q 647 770 648 772 l 647 771 l 648 771 l 648 772 q 663 762 659 771 q 670 746 671 744 l 679 743 q 690 736 688 739 q 694 727 692 733 q 698 718 695 721 q 694 705 698 709 q 711 681 696 689 q 713 643 712 646 q 724 645 726 646 q 724 655 724 648 q 724 665 723 662 q 726 736 737 715 q 717 776 720 747 q 708 815 714 805 q 702 819 707 817 q 696 823 697 822 q 694 830 694 826 q 694 836 694 835 q 638 895 678 868 l 623 899 q 614 910 618 901 q 605 922 608 920 q 592 928 601 925 q 579 932 583 930 l 577 935 l 577 935 l 576 935 l 576 935 q 576 935 575 937 l 576 935 l 576 936 q 576 936 575 937 l 576 936 l 576 936 l 576 936 l 576 937 l 574 938 l 574 939 l 574 939 l 574 939 l 574 939 l 574 939 l 573 939 l 573 939 l 573 939 q 573 939 575 937 q 573 940 572 941 q 573 940 572 941 l 572 940 l 572 940 q 572 940 572 941 l 570 943 l 562 954 q 553 956 559 956 q 545 958 548 956 q 517 983 541 961 q 486 1004 499 1000 q 467 1002 479 1006 q 448 1000 453 998 q 434 1008 449 1000 q 415 1009 425 1015 q 379 1039 400 1011 q 361 1039 364 1040 q 326 1009 339 1039 q 318 1014 321 1010 q 312 1019 314 1018 q 296 1023 307 1022 q 282 1027 286 1025 q 235 991 246 998 q 214 985 231 989 q 195 978 199 981 q 189 967 192 975 q 183 956 186 958 q 167 945 180 952 q 152 934 155 939 q 146 920 149 930 q 140 905 143 909 q 121 891 138 902 q 100 877 103 880 q 99 871 99 875 q 98 863 99 865 q 89 844 96 857 q 79 823 81 829 l 77 812 l 77 802 q 64 778 67 782 q 58 774 64 777 q 53 770 54 772 q 51 758 50 766 q 49 744 51 749 q 39 701 35 714 q 50 680 41 692 q 60 659 58 667 q 45 649 43 648 q 21 651 24 653 q 0 641 8 651 q -7 618 -9 630 q -7 541 -4 602 q -1 461 -9 486 z "},"D":{"ha":712,"x_min":-106,"x_max":687,"o":"m 198 547 q 275 552 253 543 q 271 590 279 562 l 273 606 q 279 679 267 641 q 290 675 275 680 q 306 676 292 674 q 323 677 319 678 q 332 668 327 675 q 340 659 338 661 q 351 659 342 659 q 364 657 360 659 q 382 637 368 655 q 409 655 397 640 q 418 667 412 659 q 426 679 422 675 l 428 679 q 454 625 416 648 l 475 618 q 501 566 493 604 q 484 455 508 534 q 469 410 469 411 q 517 360 515 368 l 519 360 l 513 354 l 497 353 q 481 345 501 353 q 458 349 484 346 q 432 305 429 328 q 432 285 434 281 q 400 256 430 279 q 377 229 395 252 q 351 206 361 211 l 335 206 q 279 188 273 187 q 264 190 273 187 q 250 194 254 194 q 212 271 246 249 q 214 281 212 279 q 224 283 217 283 q 238 285 233 283 q 247 291 241 286 q 256 297 252 296 q 252 414 267 338 q 252 455 248 431 q 256 498 256 488 q 235 510 244 510 q 220 513 223 511 q 209 524 215 515 q 198 536 201 534 l 198 547 m -75 989 q -41 960 -75 989 q -37 946 -39 956 q -33 932 -36 937 q -23 921 -31 928 q -14 908 -16 914 l -9 875 q -3 867 -9 873 q 2 857 1 861 l 2 815 q 12 788 13 785 q 11 784 13 785 q 8 784 8 784 l 14 762 q 68 728 26 741 q 62 715 67 720 q 54 707 56 710 l 44 707 q 40 675 39 677 q 46 645 46 647 q 48 616 45 637 q 50 584 52 595 q 52 519 43 551 q 52 491 54 513 q 52 461 50 469 q 98 424 60 435 l 98 422 q 71 366 65 398 q 77 301 81 315 q 79 184 65 250 q 77 156 82 173 q 74 127 71 140 q 85 67 85 73 q 83 40 85 35 q 94 9 87 29 q 103 -18 101 -10 q 103 -32 105 -23 q 101 -45 101 -43 q 104 -68 102 -48 q 105 -95 107 -85 q 101 -136 101 -121 q 117 -121 115 -135 q 119 -109 118 -119 q 121 -95 120 -100 q 130 -81 123 -90 q 139 -67 137 -73 l 143 -30 q 165 -4 149 -18 q 191 20 185 13 q 197 17 195 19 q 204 14 200 15 q 208 -50 205 9 l 206 -69 q 213 -83 208 -73 q 220 -101 218 -94 q 219 -127 222 -111 q 216 -152 216 -147 q 220 -168 216 -158 q 226 -180 225 -177 q 227 -191 227 -184 q 228 -201 226 -197 q 224 -271 220 -224 q 223 -292 224 -275 q 224 -311 222 -307 q 230 -334 224 -314 l 234 -334 q 240 -291 243 -306 q 236 -279 237 -277 l 242 -277 q 243 -266 244 -273 q 242 -257 241 -258 q 254 -178 242 -257 q 252 -151 254 -172 q 252 -125 250 -132 q 255 -122 252 -123 q 258 -121 258 -121 l 258 -120 l 258 -120 q 258 -119 257 -118 l 258 -119 l 258 -119 l 257 -118 q 257 -118 257 -115 q 257 -117 257 -115 l 257 -117 q 257 -117 257 -115 l 257 -116 l 257 -114 l 257 -113 q 257 -113 257 -115 q 257 -113 257 -115 q 257 -113 257 -115 l 256 -112 l 256 -103 q 271 -56 258 -93 l 273 -26 q 305 22 283 3 q 315 20 314 20 q 327 -16 321 16 q 329 -56 333 -48 q 333 -69 329 -56 l 335 -70 l 336 -70 l 336 -70 l 337 -70 l 338 -70 l 338 -70 l 340 -71 l 342 -71 q 353 -109 343 -75 q 359 -140 361 -136 q 366 -162 358 -157 l 368 -164 q 372 -156 372 -158 q 374 -123 379 -145 q 368 -94 373 -117 q 361 -63 362 -72 q 361 -47 360 -59 q 363 -31 363 -37 q 367 -16 363 -28 q 372 0 370 -4 q 408 54 410 58 q 416 56 414 54 q 426 45 423 53 q 429 -5 434 36 q 426 -63 425 -55 q 429 -111 429 -78 q 434 -158 431 -143 l 432 -184 q 435 -211 436 -193 q 437 -243 435 -231 q 454 -354 452 -298 q 461 -356 459 -355 l 465 -356 q 463 -239 465 -282 q 460 -170 460 -168 q 478 -87 468 -140 q 493 -9 490 -25 q 501 37 497 7 q 509 83 505 68 q 507 109 510 89 q 515 159 504 128 q 526 170 517 164 q 538 180 536 177 l 541 190 q 547 197 542 193 q 553 204 551 201 l 556 204 q 566 163 562 191 q 572 119 570 128 l 572 93 q 578 80 573 90 q 582 65 581 71 q 580 59 583 62 q 578 54 578 56 q 596 -28 596 -28 q 599 -30 597 -28 q 602 -31 601 -31 q 606 24 593 -37 q 594 101 607 28 q 602 125 595 98 q 602 146 603 130 q 604 172 602 163 q 609 199 606 180 q 614 226 612 216 q 613 239 614 230 q 612 252 611 249 q 617 267 613 257 q 622 279 621 276 l 620 297 q 626 336 619 313 q 642 386 637 378 q 648 395 643 388 q 653 404 652 400 l 663 457 q 666 459 663 458 q 669 461 669 460 q 665 491 663 482 q 679 618 687 561 q 680 673 678 626 q 677 722 683 713 l 675 724 l 673 722 l 673 724 q 654 755 665 730 q 631 782 644 777 l 631 788 q 618 791 625 788 q 604 793 613 793 q 598 823 600 821 l 598 827 l 592 827 q 588 847 592 842 q 566 873 587 860 q 549 882 562 876 q 534 890 538 888 q 499 922 526 897 q 481 932 493 928 q 461 942 466 939 q 456 949 459 943 q 450 956 452 955 q 432 957 444 958 q 418 958 420 956 l 416 966 q 397 970 410 970 q 376 974 382 972 q 369 979 374 975 q 361 983 363 983 q 346 983 356 985 q 335 981 336 981 q 323 990 330 983 q 309 998 316 996 q 295 994 302 1000 q 281 961 285 987 q 271 922 276 930 l 271 920 q 248 968 269 922 q 231 992 243 978 q 212 1015 215 1010 q 161 1019 170 1015 q 141 1027 141 1027 q 83 1015 127 1027 q 56 1017 72 1013 q 32 1021 36 1021 q -3 1021 27 1021 q -43 1021 -31 1022 q -61 1037 -46 1025 q -98 1021 -76 1036 q -106 1011 -97 1022 q -100 996 -106 1001 q -88 992 -97 993 q -75 989 -79 991 z "},"E":{"ha":677,"x_min":-56,"x_max":639,"o":"m 257 307 q 261 336 261 336 q 269 362 261 349 q 284 354 277 360 q 296 345 294 346 q 298 337 297 340 q 300 332 300 333 q 298 321 302 328 q 296 311 295 315 l 304 305 q 314 267 309 296 q 317 228 319 235 q 315 224 315 225 q 259 232 301 216 q 258 254 257 241 q 259 271 260 266 q 257 307 256 294 m -36 934 q 16 873 15 909 q 26 871 20 871 q 29 857 26 866 q 33 845 33 848 q 35 819 35 838 q 39 795 34 804 q 44 793 40 795 q 50 789 48 791 q 77 764 75 765 q 87 760 80 762 q 95 756 92 759 q 95 754 95 755 q 73 728 94 739 q 75 663 64 707 l 75 625 q 79 582 76 608 l 71 530 q 89 481 90 482 q 125 455 92 475 q 125 444 125 445 l 125 437 l 106 433 q 95 422 102 431 q 83 412 87 414 q 77 378 83 410 q 81 340 75 367 q 85 305 88 315 q 85 170 68 250 q 81 144 87 163 q 79 119 77 127 l 83 117 q 82 103 84 113 q 83 89 80 95 q 99 18 100 55 q 101 -91 96 -66 q 106 -91 106 -91 q 113 -68 113 -87 q 113 -41 111 -45 q 130 -7 116 -30 q 146 28 144 14 q 170 14 163 24 q 176 -9 178 6 q 178 -35 174 -27 l 186 -41 l 192 -89 q 188 -127 185 -116 q 195 -197 193 -149 q 201 -267 197 -245 q 203 -300 204 -279 q 205 -328 203 -320 l 205 -332 q 218 -330 212 -332 q 216 -319 218 -328 q 216 -304 214 -311 q 220 -248 214 -311 l 218 -233 q 222 -156 220 -223 q 229 -152 228 -153 q 233 -119 236 -142 q 233 -81 229 -94 q 242 -62 235 -75 q 251 -43 249 -49 q 273 26 243 1 l 273 28 l 275 28 q 296 -119 302 -89 q 301 -153 296 -125 q 302 -184 307 -177 q 309 -200 303 -191 q 317 -175 313 -197 q 318 -140 321 -153 q 322 0 302 -46 q 348 0 349 1 q 376 -81 349 -1 q 374 -104 378 -89 q 372 -128 370 -121 q 380 -164 382 -169 q 378 -186 376 -176 q 381 -192 378 -186 q 384 -198 384 -197 q 382 -205 384 -198 q 382 -214 380 -210 q 390 -248 390 -245 q 387 -254 389 -249 q 384 -261 384 -260 l 386 -287 q 393 -378 378 -337 q 397 -397 396 -385 q 401 -414 398 -408 q 410 -421 410 -423 l 414 -421 q 415 -386 414 -410 q 412 -383 415 -385 q 410 -382 410 -382 l 412 -352 q 406 -313 405 -317 q 412 -273 411 -275 l 412 -249 q 417 -214 420 -224 q 414 -166 410 -190 l 417 -158 q 414 -151 417 -158 q 412 -142 411 -146 q 416 -131 412 -140 q 421 -119 421 -121 q 420 -114 422 -116 q 417 -111 418 -111 l 419 -73 q 420 -39 420 -64 q 421 -3 420 -16 q 443 52 425 37 l 443 54 l 449 52 q 485 -103 446 60 q 496 -99 490 -102 q 483 26 496 3 q 509 62 489 54 q 518 60 509 62 q 524 44 519 55 q 528 30 528 35 q 526 26 528 29 q 526 20 525 22 l 534 14 q 537 -17 536 9 q 548 -47 538 -37 l 548 -50 q 556 -45 549 -49 q 550 43 559 -33 l 554 69 q 546 87 553 75 q 538 107 540 100 q 538 126 536 113 q 540 138 540 138 q 534 155 534 155 q 546 232 537 222 q 532 265 546 247 q 488 256 522 265 l 467 256 q 455 248 464 254 q 443 239 446 241 q 370 245 419 229 q 360 190 359 225 l 358 190 q 336 218 336 218 l 338 239 q 334 315 329 297 q 340 323 335 317 q 346 330 345 329 l 354 368 l 360 370 q 372 315 378 326 q 376 308 373 311 q 382 301 380 304 q 393 301 393 300 q 399 305 397 302 q 398 330 401 309 q 390 360 395 353 l 390 364 l 406 358 q 431 295 425 333 q 443 250 439 252 q 453 250 444 249 q 461 261 454 257 q 453 314 458 283 q 445 370 448 348 q 448 383 445 372 q 449 400 450 395 q 446 481 445 428 q 443 552 447 532 q 391 547 427 552 l 378 548 l 376 545 l 356 545 l 350 536 l 336 538 q 334 545 335 543 q 326 545 332 546 q 317 547 320 545 q 294 526 296 546 q 257 545 272 534 q 253 645 260 601 q 255 656 252 650 q 255 665 257 661 l 257 673 q 287 677 281 669 q 313 648 302 676 q 320 624 315 640 q 326 604 324 609 q 336 602 332 603 q 350 625 349 621 l 350 647 q 356 656 351 649 q 362 667 361 663 q 393 679 357 667 q 406 680 397 680 q 419 681 416 680 q 425 677 421 679 q 437 639 431 663 q 447 606 444 613 l 451 558 q 463 509 463 507 l 469 509 l 465 489 q 467 441 475 452 q 475 431 471 435 q 479 429 476 431 q 481 448 484 439 q 481 461 479 458 l 486 467 q 486 523 488 473 q 484 524 486 523 q 481 526 481 526 q 485 554 487 545 q 481 561 484 555 q 479 568 479 566 q 483 616 479 621 q 496 645 482 611 q 516 631 505 642 q 518 617 519 626 q 520 600 517 607 q 527 593 522 597 q 534 584 533 589 q 534 572 535 581 q 534 562 533 564 q 543 549 536 559 q 552 536 550 541 q 562 497 552 536 q 566 451 568 470 q 564 439 564 439 q 569 433 564 438 q 574 426 573 429 l 574 392 q 576 377 574 386 q 580 364 579 368 q 579 347 580 360 q 580 329 578 336 q 584 299 582 318 q 587 271 586 279 q 587 258 589 267 q 585 248 585 249 q 595 166 597 208 q 604 168 602 167 q 610 197 610 178 q 613 232 612 223 l 613 256 q 613 282 617 267 q 611 307 609 298 q 609 404 609 298 q 615 435 609 399 q 614 465 616 442 q 613 493 612 488 l 609 509 l 606 524 q 613 548 606 530 q 619 570 619 564 q 616 584 619 575 q 611 595 612 595 q 615 634 610 602 q 623 669 621 665 q 615 689 623 680 q 604 705 605 701 q 599 720 602 709 q 593 734 597 730 q 595 748 593 743 l 615 748 q 621 782 621 781 q 609 812 609 809 q 615 905 611 887 l 613 912 q 619 925 614 915 q 625 938 624 934 q 625 1004 639 985 q 615 1011 621 1009 q 600 1011 614 1012 l 600 1004 q 578 1007 593 1004 q 558 1007 568 1010 q 532 1000 529 1000 q 447 1007 482 1010 q 409 1010 443 1007 q 378 1002 389 1013 q 370 979 372 996 q 366 958 367 960 l 366 954 q 354 968 369 953 q 302 998 336 986 q 279 998 293 1001 q 255 996 261 995 q 205 998 208 998 q 201 995 205 998 q 196 991 197 991 l 191 992 l 185 994 l 174 996 q 138 991 163 994 q 104 985 117 988 q 63 991 95 983 q 5 991 53 994 q -20 989 -19 990 q -56 968 -28 989 l -56 954 q -45 950 -51 953 q -36 946 -40 947 l -36 934 z "},"F":{"ha":660,"x_min":-20,"x_max":627,"o":"m 12 916 q 20 899 14 912 q 28 881 26 888 q 28 864 29 875 q 30 847 28 854 q 38 817 38 818 q 41 770 40 767 q 41 728 43 730 q 58 703 43 710 l 93 699 l 107 691 l 107 687 q 103 681 105 685 q 91 683 94 681 q 58 665 63 684 q 58 642 52 657 q 64 616 64 624 q 73 515 63 611 q 67 498 73 519 l 69 435 q 79 422 67 441 q 119 418 96 418 l 121 416 q 83 378 118 404 q 92 345 83 359 q 105 317 103 326 q 97 309 103 315 q 89 301 92 304 q 83 282 85 296 q 77 267 82 271 q 87 241 81 260 l 87 226 q 103 162 109 182 q 93 91 87 112 q 94 78 95 85 q 95 64 93 71 q 102 53 96 58 q 109 43 108 47 q 111 29 112 37 q 111 14 109 20 q 115 -1 113 7 q 119 -14 118 -12 q 118 -36 121 -21 q 117 -56 115 -51 q 123 -69 117 -65 l 123 -71 q 133 -65 129 -69 q 138 -43 138 -57 q 140 -20 138 -26 q 146 -9 142 -16 q 151 2 149 -4 l 153 2 l 157 -2 q 188 -220 149 -71 l 190 -261 q 195 -288 193 -272 q 200 -313 197 -303 q 198 -321 201 -316 q 196 -330 195 -326 l 202 -332 q 205 -353 205 -338 q 208 -372 205 -367 q 214 -374 210 -373 q 222 -249 224 -302 q 226 -231 222 -245 q 228 -214 229 -218 q 224 -209 227 -212 q 220 -203 220 -205 q 219 -184 217 -196 q 220 -164 222 -171 q 216 -132 214 -143 q 218 -73 218 -125 q 230 -22 219 -35 q 232 -18 231 -19 q 250 -99 243 -87 q 259 -93 256 -98 q 261 -18 264 -26 q 258 -6 258 -4 q 245 81 262 19 l 250 149 q 245 254 243 221 q 259 336 252 324 l 259 338 l 263 338 q 273 313 263 339 q 277 286 277 304 q 281 261 277 269 l 281 258 q 299 265 291 258 q 295 279 298 263 q 299 295 295 278 l 295 327 q 306 339 299 331 q 317 353 313 349 l 317 354 q 349 307 338 345 q 349 294 350 301 q 349 283 348 287 q 374 144 378 135 q 386 149 382 145 q 386 157 387 150 q 390 168 386 164 q 378 277 387 175 q 388 283 382 279 q 390 256 391 258 q 386 248 387 245 q 397 153 391 220 q 410 58 403 88 l 410 58 q 410 58 412 57 l 410 58 q 410 57 408 58 l 411 57 q 411 57 408 58 q 411 57 408 58 q 411 57 412 57 q 412 57 414 56 q 412 57 412 57 q 412 57 412 57 q 412 57 414 56 l 412 57 l 412 56 q 412 56 414 56 l 412 56 q 413 56 414 56 l 413 56 l 413 56 q 413 56 412 57 l 414 56 l 414 56 l 414 56 q 414 56 414 56 l 415 56 q 415 56 414 56 q 415 56 416 56 q 415 56 412 57 l 416 56 q 424 62 418 58 q 424 212 421 222 q 420 291 422 220 q 425 298 420 292 q 427 309 429 304 q 422 322 427 312 q 416 336 416 332 q 424 416 410 360 l 422 439 q 425 447 422 440 q 427 455 427 454 q 427 483 429 462 q 427 509 425 503 q 406 545 428 530 q 386 541 410 542 l 386 534 q 329 532 366 528 q 277 545 292 535 q 283 586 276 576 q 261 614 281 608 l 263 616 q 277 627 267 623 q 293 635 290 633 q 296 663 300 644 q 293 689 292 686 q 303 707 294 695 q 351 705 342 710 q 355 689 357 696 q 354 675 353 680 q 358 669 355 673 q 362 663 361 665 q 366 648 364 657 q 368 635 367 640 l 374 633 q 404 691 401 674 q 431 681 412 691 q 443 629 435 660 q 455 578 452 591 l 454 571 q 454 569 454 567 l 454 568 l 454 568 l 454 568 q 454 568 454 565 l 454 568 q 454 568 454 565 l 454 567 l 454 567 l 454 566 l 454 566 l 453 564 q 459 534 455 557 q 465 507 463 514 q 468 477 468 496 q 471 453 468 460 q 479 422 475 444 q 479 394 484 397 q 487 376 487 378 q 497 392 490 378 q 492 422 492 403 q 487 457 491 444 q 481 473 481 475 q 485 482 481 473 q 487 493 488 490 q 513 635 473 562 l 519 635 q 522 597 522 593 q 521 570 518 578 q 531 554 522 565 q 541 536 539 543 l 538 511 q 543 493 543 492 l 541 481 q 547 466 541 478 q 552 451 551 455 q 548 427 553 450 q 547 400 544 406 q 556 364 557 372 l 562 353 q 552 305 553 300 q 578 208 553 299 l 576 192 q 580 187 576 191 q 584 182 583 184 l 582 164 l 588 162 q 594 133 591 155 l 606 142 q 595 200 606 170 q 593 227 593 210 q 594 252 595 245 q 586 287 590 272 l 588 349 q 592 380 593 374 q 585 395 591 385 q 578 414 580 406 l 582 465 q 588 498 581 470 l 586 519 q 594 545 595 551 q 591 551 594 548 q 590 558 589 554 q 593 563 590 559 q 595 568 595 567 l 590 597 q 591 628 591 604 q 594 659 590 650 l 595 661 q 586 689 586 688 q 597 754 587 703 l 595 786 q 604 829 600 800 q 612 871 608 858 q 612 888 613 876 q 614 908 610 901 q 621 921 615 912 q 627 932 626 929 q 621 980 625 925 q 608 996 614 987 q 562 980 618 998 q 547 981 556 978 q 532 983 538 985 q 523 978 530 983 q 513 972 515 972 q 474 979 499 968 q 446 991 446 991 l 427 987 q 360 1000 393 981 q 330 983 357 996 q 327 940 331 946 q 323 938 326 939 q 303 976 307 970 q 293 983 300 979 q 283 991 286 988 q 194 980 233 991 q 168 983 187 977 q 138 989 144 989 q 91 985 104 993 q 88 981 90 985 q 83 978 86 979 q 62 987 84 979 q 42 989 54 990 q 24 989 28 988 q 17 994 23 990 q 8 998 12 998 q -4 991 2 997 q -16 983 -12 985 q -20 976 -17 979 q -6 952 -19 964 q 12 930 9 938 l 12 916 z "},"G":{"ha":777,"x_min":-13,"x_max":756,"o":"m -9 457 q 7 406 -5 439 q 22 362 20 374 q 28 307 31 321 q 24 289 24 289 q 29 278 24 286 q 34 267 33 271 q 36 243 35 262 q 40 218 37 227 q 62 184 41 213 q 65 174 64 180 q 68 162 66 166 q 78 144 71 156 q 90 125 87 128 l 93 90 q 102 75 94 86 q 109 60 109 64 q 107 52 109 57 q 107 41 105 47 l 113 36 q 111 24 114 32 q 111 12 108 18 q 117 9 112 10 q 123 6 122 7 q 127 -12 127 0 q 131 -28 126 -22 q 125 -35 129 -33 q 128 -52 130 -44 q 127 -63 126 -62 q 134 -75 125 -57 q 131 -89 138 -83 l 137 -97 l 140 -97 l 142 -95 q 144 -28 140 -46 l 142 -6 q 151 40 152 28 q 156 62 150 46 q 159 77 161 75 l 159 79 q 178 63 168 77 q 186 41 187 50 q 218 -4 217 -1 q 220 -59 227 -31 q 218 -69 218 -68 q 226 -115 227 -94 q 236 -151 235 -134 l 237 -152 l 243 -152 q 239 -89 254 -102 q 256 0 265 -62 q 258 4 256 1 q 261 6 260 5 q 287 -21 281 3 q 290 -43 288 -27 q 293 -65 291 -58 q 303 -94 295 -71 q 313 -127 310 -115 q 313 -144 314 -132 q 311 -160 311 -156 q 315 -175 312 -166 q 321 -190 319 -185 q 327 -259 326 -212 q 345 -287 340 -261 q 342 -324 349 -311 q 351 -348 349 -332 q 349 -359 351 -350 q 351 -370 349 -366 l 351 -417 q 366 -417 357 -418 q 370 -354 363 -395 q 366 -324 373 -339 l 366 -322 q 372 -293 374 -298 q 364 -259 363 -261 q 372 -218 374 -225 q 370 -214 372 -217 q 366 -210 367 -210 q 376 -132 363 -201 q 372 -113 377 -128 q 374 -82 374 -102 q 376 -50 375 -60 q 385 -43 378 -48 q 394 -37 391 -39 q 414 -37 401 -35 q 428 -37 427 -37 q 453 -59 422 -37 q 461 -192 460 -201 l 467 -192 l 467 -194 q 469 -199 469 -195 q 475 -198 473 -199 q 477 -182 472 -200 q 481 -174 477 -181 q 485 -166 485 -168 q 485 -153 486 -163 q 485 -138 484 -142 l 485 -95 q 491 -85 486 -94 q 497 -73 496 -79 q 487 -43 496 -79 q 526 24 477 -3 q 541 16 525 26 q 549 -12 552 5 q 550 -43 547 -34 l 551 -44 q 551 -44 553 -46 q 551 -44 550 -43 l 551 -45 l 552 -45 q 552 -45 553 -46 l 552 -45 l 553 -45 l 553 -45 l 553 -45 q 553 -46 554 -47 q 553 -46 553 -45 l 553 -46 q 553 -46 553 -46 l 553 -47 l 553 -47 l 554 -47 q 554 -47 553 -45 l 554 -47 l 555 -47 l 555 -47 l 555 -48 l 555 -48 l 555 -48 l 556 -49 l 556 -49 l 556 -50 q 556 -50 557 -50 l 556 -50 l 557 -50 q 557 -50 556 -50 q 557 -50 555 -48 l 557 -50 q 557 -50 556 -50 q 557 -50 556 -50 l 557 -50 l 557 -50 l 557 -50 q 557 -50 556 -50 q 557 -51 557 -51 l 557 -51 l 559 -52 l 559 -52 l 559 -52 q 559 -52 560 -53 l 559 -52 q 559 -52 557 -51 q 559 -53 559 -52 q 559 -53 561 -54 l 560 -53 l 560 -53 l 560 -53 q 559 -73 562 -58 q 558 -97 557 -91 q 558 -184 567 -153 l 564 -190 l 568 -190 l 569 -175 l 570 -168 l 570 -160 l 576 -160 q 582 -95 572 -121 q 578 -77 578 -77 q 584 -65 578 -75 q 590 -54 589 -56 q 589 -47 591 -51 q 590 -41 589 -44 l 590 -39 l 594 -39 q 602 -77 602 -76 q 598 -113 595 -103 q 598 -245 621 -210 q 623 -251 606 -258 q 631 -271 625 -255 q 637 -293 636 -284 q 633 -390 644 -338 q 640 -475 629 -410 q 638 -503 640 -480 q 637 -526 636 -524 q 644 -535 638 -528 q 651 -544 650 -541 q 652 -562 654 -551 q 653 -578 650 -572 q 661 -591 654 -587 l 661 -593 l 663 -593 q 659 -528 669 -564 q 660 -503 656 -517 q 663 -477 665 -487 q 657 -449 661 -467 q 660 -446 657 -449 q 663 -441 663 -442 q 665 -404 666 -430 q 671 -372 664 -383 q 677 -366 672 -366 q 663 -307 669 -332 q 666 -281 661 -300 q 667 -249 670 -261 q 667 -127 644 -163 q 677 -134 667 -127 q 680 -166 677 -144 q 683 -192 684 -186 q 680 -212 683 -194 q 679 -231 678 -225 q 688 -263 680 -239 q 693 -296 693 -282 q 691 -342 692 -345 q 695 -349 691 -343 q 699 -356 699 -354 q 696 -372 699 -375 l 696 -392 q 707 -384 692 -394 q 703 -350 707 -359 q 713 -338 711 -343 q 710 -328 713 -336 q 709 -315 707 -320 q 715 -259 718 -282 q 709 -239 707 -253 q 718 -151 718 -156 q 709 -83 720 -141 l 709 -82 q 709 -82 709 -80 l 709 -82 q 709 -82 709 -80 l 709 -81 l 709 -81 l 709 -81 q 709 -81 709 -79 l 709 -80 q 709 -79 709 -79 q 709 -79 709 -79 l 709 -78 q 709 -78 709 -81 l 709 -78 l 709 -73 l 711 -63 q 706 -19 707 -47 q 703 22 704 12 q 717 60 703 23 q 718 138 728 90 q 718 190 711 175 q 734 232 735 224 l 736 241 l 733 243 l 733 243 l 732 243 q 732 243 732 243 q 732 243 732 243 l 732 243 q 732 243 732 243 l 732 243 l 731 243 l 731 243 q 731 243 732 243 q 731 243 728 244 l 730 243 l 728 259 q 723 263 727 261 q 717 267 718 265 q 694 271 723 267 l 694 277 q 739 295 713 279 q 743 340 741 326 q 739 352 743 342 q 739 366 736 361 l 756 392 q 739 418 756 394 q 709 418 727 418 q 687 420 694 419 l 669 418 q 606 424 623 427 q 534 412 522 410 l 532 412 l 531 412 l 530 412 l 526 413 l 517 414 q 501 408 514 413 q 485 402 490 403 l 448 404 q 437 400 435 400 q 421 406 432 401 q 406 412 409 411 q 390 410 399 414 q 376 408 380 408 q 363 412 370 408 q 353 418 354 417 q 336 422 336 423 q 323 412 338 422 q 339 396 326 401 q 362 386 363 385 q 364 380 363 385 l 424 362 q 428 360 427 361 q 357 346 412 352 q 299 327 309 340 q 299 325 298 326 q 307 315 300 319 q 317 307 315 309 l 327 317 q 435 303 316 311 q 433 299 435 300 q 418 296 430 297 q 402 293 407 296 q 384 283 397 292 q 391 275 386 279 q 398 269 396 272 q 444 275 433 280 l 450 267 l 465 269 q 483 261 469 269 q 513 259 489 264 q 527 264 513 259 q 549 267 541 270 l 554 267 q 552 196 559 243 q 497 164 532 195 q 494 151 494 161 q 491 137 493 140 q 448 117 486 119 q 396 129 411 115 q 368 168 379 136 q 353 172 355 171 q 317 133 338 171 q 313 131 315 132 q 303 192 296 179 l 303 216 l 273 241 q 266 241 273 242 q 256 243 259 241 q 232 279 245 250 q 222 313 219 307 q 198 336 220 321 q 178 336 188 342 l 174 336 l 176 338 q 202 349 184 348 l 202 355 q 218 362 216 361 q 217 385 220 368 q 214 410 214 404 q 254 554 227 535 q 243 585 254 574 q 224 606 222 609 q 226 612 223 608 l 228 614 q 232 606 231 607 q 267 597 238 601 l 275 606 l 277 635 l 287 644 q 294 658 290 648 q 301 671 298 666 q 325 684 307 678 q 349 696 343 690 q 380 681 352 696 q 398 675 385 679 q 418 671 416 671 l 426 673 q 429 668 427 672 q 431 663 431 664 q 446 655 435 659 q 461 647 457 651 l 463 640 l 475 637 l 497 616 l 497 610 q 534 568 508 607 l 539 566 l 540 566 l 540 566 q 541 566 538 566 q 541 566 542 565 l 541 566 l 541 566 l 541 566 q 541 566 542 565 l 542 565 q 542 565 543 565 q 543 565 542 565 l 543 565 l 543 565 q 543 565 542 565 l 543 564 q 543 564 543 565 l 544 564 l 545 564 q 553 551 549 560 q 562 536 559 541 q 574 530 564 534 q 584 523 582 526 q 586 507 587 518 q 586 495 585 496 q 593 486 587 492 q 600 475 598 481 q 618 483 611 475 q 610 547 625 496 q 610 555 608 551 q 614 562 614 562 q 606 633 619 611 q 610 642 607 639 q 612 642 610 642 q 642 621 612 642 q 675 595 671 601 q 680 580 679 590 q 685 562 682 568 q 690 554 686 559 q 696 547 696 548 q 715 495 692 553 q 721 485 716 491 q 726 475 725 479 l 728 475 q 728 475 730 474 q 729 475 730 474 q 729 475 730 474 l 729 475 q 729 474 730 474 l 730 474 l 730 474 l 731 474 q 731 474 730 474 l 731 474 l 732 473 l 733 473 q 733 473 730 474 l 733 473 l 734 473 l 734 473 l 734 475 q 732 493 738 479 q 717 547 732 493 q 712 555 715 549 q 709 562 709 561 l 711 574 l 707 576 l 706 577 q 706 577 707 576 l 706 577 q 705 577 705 577 q 705 577 705 577 l 705 578 q 705 578 705 578 q 705 578 704 578 l 705 578 l 705 578 q 705 578 704 578 q 707 591 704 580 q 709 608 711 602 q 709 608 709 608 q 709 608 708 608 l 708 608 q 708 608 708 608 l 708 608 l 707 608 l 707 609 l 707 609 l 707 609 l 707 609 q 707 609 708 608 q 707 609 708 608 l 707 610 q 706 610 705 611 q 706 610 708 608 q 706 610 705 611 l 706 610 l 706 610 q 706 610 708 608 q 705 610 708 608 l 705 610 l 705 610 q 705 610 706 610 q 705 611 702 613 l 705 611 q 705 611 702 613 q 705 611 702 613 l 704 611 q 704 612 705 611 l 704 612 l 704 612 l 703 612 q 703 612 702 613 l 703 612 l 703 612 q 703 612 705 610 q 703 612 701 614 q 703 612 705 611 l 703 612 l 702 613 l 702 613 q 702 613 702 613 q 701 613 702 613 q 701 614 702 613 l 701 614 l 701 614 q 701 614 699 615 l 701 614 q 701 614 700 615 q 701 614 702 613 q 701 614 702 613 l 701 614 l 701 614 l 700 614 l 700 614 q 700 614 702 613 l 700 614 q 700 614 702 613 q 700 615 702 613 l 699 615 l 699 615 q 699 615 698 616 q 699 615 698 616 l 699 615 l 699 616 q 693 635 697 618 l 694 651 q 689 664 694 655 q 683 677 684 673 q 682 693 681 682 q 679 709 682 703 q 658 745 679 715 q 631 778 637 774 q 616 786 611 790 l 614 786 l 614 788 q 630 788 617 787 q 647 786 641 788 q 689 770 686 770 q 732 635 691 766 l 739 635 q 732 724 744 684 q 734 739 732 726 q 726 768 736 748 q 728 784 730 778 q 720 794 726 789 q 713 802 713 800 l 715 810 q 691 857 705 832 q 640 897 694 852 q 636 902 637 899 q 633 909 635 907 l 633 909 q 633 909 633 908 l 633 909 l 632 909 q 632 909 633 908 l 632 909 q 632 909 634 908 l 631 909 q 631 909 634 908 l 631 910 l 631 910 l 631 910 q 631 910 631 909 l 631 910 l 631 910 q 631 910 628 912 q 631 911 631 909 q 630 911 631 909 l 630 911 l 630 911 l 630 911 l 629 911 l 629 912 l 628 912 q 628 912 627 913 l 628 912 l 628 912 q 627 913 630 911 q 627 913 628 912 l 627 913 l 627 913 l 627 913 l 627 913 l 627 913 l 627 913 l 626 913 l 623 916 l 614 922 q 609 933 611 926 q 604 944 606 941 q 592 962 592 959 q 563 975 580 965 q 536 987 545 985 q 522 987 531 989 q 509 987 513 986 q 475 991 484 996 q 463 994 467 995 q 435 944 450 987 q 431 942 433 943 q 424 960 427 948 q 418 980 420 975 q 411 989 416 983 q 404 998 406 995 q 400 1000 401 998 q 374 985 387 1000 q 351 983 353 983 q 344 987 350 984 q 336 989 339 989 q 305 974 309 975 l 303 974 q 299 968 302 972 q 295 962 297 963 l 273 960 q 262 947 267 957 q 254 934 257 937 l 249 933 l 248 933 l 248 933 l 247 932 q 247 932 248 933 l 246 932 l 246 932 l 245 932 l 245 932 l 245 932 l 240 931 l 236 930 l 218 926 l 202 910 l 174 907 q 159 895 157 895 q 144 878 156 886 q 127 863 130 868 q 121 817 131 869 q 121 798 118 802 l 121 793 q 85 795 100 798 q 74 778 81 784 q 62 766 64 770 q 52 745 57 760 q 44 724 47 730 q 37 718 43 723 q 32 711 33 713 l 30 681 q 24 671 28 677 q 18 661 19 664 l 18 633 q 10 616 16 627 q 2 600 3 604 l 2 564 q -2 558 1 563 q -5 552 -5 554 q -5 540 -7 547 q -2 530 -2 532 q -7 496 -2 525 q -9 457 -13 471 z "},"H":{"ha":677,"x_min":-41,"x_max":629,"o":"m -26 859 q -20 764 -33 821 q -12 741 -18 756 q -3 718 -4 723 q -1 685 1 708 q -1 657 -3 662 q 23 590 14 623 l 25 564 q 31 551 26 560 q 37 538 36 543 q 35 481 42 519 q 33 422 28 444 q 42 399 35 413 q 53 376 51 381 q 52 342 58 363 q 51 313 45 323 q 60 300 52 304 q 73 291 71 294 q 81 273 76 286 q 91 256 85 262 q 69 214 87 224 q 64 213 67 213 q 59 212 60 214 q 55 203 57 210 q 51 194 53 197 q 83 166 53 184 q 81 65 79 78 q 79 58 81 64 q 79 47 78 52 q 87 26 81 39 q 94 6 93 12 q 94 -4 96 3 q 93 -12 92 -11 q 96 -16 93 -13 q 98 -20 98 -20 q 100 -35 100 -25 q 98 -47 98 -46 q 106 -91 100 -55 l 106 -94 l 106 -96 q 106 -97 106 -101 q 106 -98 106 -101 l 106 -99 l 106 -100 q 106 -100 106 -100 l 106 -105 q 106 -105 106 -106 l 106 -106 l 106 -106 l 106 -111 q 106 -111 106 -114 q 106 -111 106 -114 q 106 -111 106 -114 q 106 -111 106 -114 l 106 -112 q 106 -112 106 -114 l 106 -113 l 106 -119 l 104 -149 q 109 -199 109 -166 q 111 -253 109 -241 q 116 -292 112 -267 q 122 -328 121 -324 l 120 -386 q 122 -441 127 -415 q 120 -453 120 -453 q 126 -489 125 -469 l 134 -489 q 140 -441 138 -473 q 146 -388 142 -408 q 144 -356 147 -382 q 148 -345 144 -359 q 146 -326 150 -337 q 144 -311 144 -313 l 147 -307 q 150 -302 150 -303 q 148 -241 156 -280 l 145 -238 q 145 -238 146 -239 q 145 -238 144 -238 l 144 -238 l 144 -238 l 144 -238 l 144 -237 l 144 -237 q 144 -237 144 -238 l 144 -237 l 144 -237 l 144 -237 q 144 -237 142 -235 l 143 -236 l 142 -236 l 142 -236 q 142 -236 144 -238 l 142 -235 q 150 -172 149 -174 l 146 -134 q 158 -41 161 -36 q 162 -39 159 -41 q 168 -43 164 -41 q 184 -119 185 -122 q 186 -144 187 -128 q 186 -168 184 -163 q 191 -176 186 -171 q 195 -182 195 -180 q 190 -220 191 -218 q 193 -230 190 -222 q 197 -241 197 -239 l 201 -241 q 205 -212 208 -223 q 203 -208 205 -212 q 201 -203 201 -205 q 197 -30 214 -142 q 199 -26 199 -28 q 222 -31 220 -32 q 243 -20 223 -31 q 237 2 242 -5 l 237 6 l 231 6 q 227 218 216 163 q 228 241 228 222 q 231 261 228 256 q 255 303 230 295 q 265 296 261 307 q 271 277 264 300 q 275 267 271 275 q 279 258 278 261 l 279 218 q 285 202 285 201 l 287 200 q 302 208 293 200 q 304 221 302 212 q 304 234 306 229 q 300 237 304 235 q 298 243 298 239 q 301 250 298 244 q 304 258 304 256 q 302 262 304 260 q 300 269 299 264 q 307 281 301 273 q 314 293 313 290 q 342 303 328 296 l 346 299 q 349 285 349 294 q 350 271 349 273 q 355 242 354 260 q 358 210 355 220 q 359 178 361 196 q 358 144 357 152 q 361 34 361 47 l 368 34 q 376 105 368 37 q 374 120 376 110 q 374 135 373 130 q 379 170 376 145 q 385 204 382 190 q 382 224 386 205 q 382 273 376 246 q 401 309 380 269 l 425 307 q 433 243 431 252 q 445 204 445 205 q 467 41 442 123 l 467 -12 l 468 -39 l 469 -65 q 480 -168 481 -121 l 484 -168 l 486 -165 l 486 -163 l 486 -162 q 484 -130 488 -156 q 488 -104 481 -113 q 488 -58 483 -87 q 508 -9 492 -23 l 508 -7 l 512 -7 q 522 -103 513 -47 q 519 -117 523 -108 q 516 -132 515 -127 q 521 -174 518 -144 q 526 -210 524 -199 q 525 -231 527 -214 q 524 -253 522 -248 l 530 -259 l 528 -298 q 531 -303 528 -300 q 534 -309 534 -307 q 535 -343 536 -315 q 540 -378 534 -368 l 540 -393 q 544 -395 543 -395 l 550 -395 q 551 -346 553 -379 q 550 -293 547 -310 q 549 -267 550 -290 q 551 -235 549 -245 q 557 -188 562 -201 q 550 -144 553 -175 q 553 -81 545 -109 q 562 -50 563 -52 q 568 -35 562 -45 q 575 -37 573 -36 q 589 -91 576 -38 q 600 -160 591 -98 q 607 -194 600 -165 q 611 -227 612 -217 q 615 -252 610 -234 q 615 -275 619 -267 l 617 -281 l 623 -283 q 629 -273 628 -274 q 625 -245 628 -267 q 621 -220 623 -229 q 623 -191 618 -209 q 625 -166 627 -173 q 617 -127 617 -129 q 619 -89 618 -83 q 613 -52 612 -52 l 619 -50 q 619 -26 623 -41 q 615 -6 615 -7 q 618 20 615 3 q 621 47 621 41 q 618 64 621 52 q 615 77 615 75 q 618 106 615 81 q 619 135 621 125 q 614 157 618 140 q 609 180 610 175 q 610 184 608 183 q 613 186 613 186 q 613 205 614 191 q 613 226 612 220 q 607 299 616 243 q 611 351 606 304 q 607 380 612 358 l 609 410 q 603 463 609 430 q 606 494 602 473 q 609 521 610 515 q 615 586 606 547 q 614 610 617 595 q 611 631 610 627 q 612 653 612 636 q 613 673 612 669 q 619 724 622 712 q 615 760 613 751 q 617 808 621 787 q 617 858 614 824 q 615 908 620 889 q 614 922 614 911 q 611 934 613 930 l 611 944 q 619 944 616 945 q 625 958 624 956 q 609 987 619 972 q 584 997 604 996 q 562 1000 563 998 q 540 983 544 1000 q 539 963 535 975 q 544 944 545 949 q 546 881 540 916 q 543 873 546 878 q 540 867 540 867 l 542 843 q 524 886 529 851 q 516 934 518 930 l 516 974 l 508 976 q 498 994 505 979 q 490 996 495 994 q 480 1000 484 998 q 463 983 461 980 q 462 977 462 982 q 458 970 463 973 l 456 968 q 399 987 441 994 q 385 985 386 985 q 372 998 376 987 q 346 996 364 998 l 346 994 q 349 962 338 983 q 358 946 351 958 q 366 932 364 937 q 374 890 376 906 q 372 886 374 890 q 370 881 370 882 q 376 850 371 871 q 383 819 382 829 q 382 793 384 815 q 382 766 380 772 l 387 760 q 385 745 389 754 q 383 732 382 736 q 410 696 386 713 q 430 682 416 690 q 449 671 444 674 q 433 655 445 661 q 419 654 429 653 q 401 653 408 655 q 393 648 398 652 q 385 642 387 642 q 391 612 387 632 q 395 582 393 591 l 391 572 q 397 564 392 570 q 404 556 402 559 q 408 524 406 547 q 415 495 408 505 l 415 487 q 372 493 377 495 q 344 481 344 481 q 337 468 342 477 q 332 453 333 460 l 328 453 q 307 491 323 469 q 295 488 303 491 q 287 487 288 486 q 281 492 287 487 q 271 498 275 498 q 247 494 266 500 q 221 497 231 490 l 217 497 q 218 531 216 507 q 219 562 221 554 q 215 576 216 578 q 220 589 216 578 q 223 602 224 597 q 221 665 217 646 q 225 687 226 685 q 217 788 211 754 q 233 879 233 866 q 237 886 233 882 q 241 892 241 891 l 243 930 q 253 983 257 976 q 257 1007 258 1005 q 233 1031 255 1027 q 203 1015 235 1029 q 128 1021 192 1010 q 113 1002 112 999 q 114 980 110 995 q 118 956 119 963 q 113 944 119 962 q 113 884 110 937 l 113 883 q 85 962 92 897 q 79 1004 80 1002 q 16 998 67 1012 q 7 1004 14 1000 q -1 1011 2 1008 q -35 953 -41 1010 q -26 859 -26 861 z "},"I":{"ha":321,"x_min":-15,"x_max":272,"o":"m -1 972 q 17 920 -1 959 q 37 823 19 916 q 34 771 39 810 q 35 713 29 733 q 49 619 43 677 q 60 523 55 552 q 60 503 61 517 q 58 483 58 488 q 66 439 66 434 q 64 418 65 414 q 76 387 68 408 q 88 358 85 366 q 82 323 87 361 q 83 319 81 319 q 86 317 86 317 q 85 304 86 314 q 84 289 83 294 q 87 254 86 278 q 90 220 87 231 q 89 195 92 210 q 86 176 85 179 q 100 77 95 132 q 100 47 102 59 q 96 41 100 47 q 94 34 94 35 q 100 14 95 28 q 106 0 106 1 q 112 -61 106 -53 l 112 -65 l 117 -65 q 121 -55 119 -60 q 123 -47 123 -49 q 121 -31 125 -42 q 121 -16 118 -22 l 121 -7 l 123 -7 q 146 -138 138 -52 q 165 -265 155 -229 q 173 -313 168 -275 q 183 -354 177 -345 l 183 -358 l 187 -358 q 191 -356 189 -357 q 181 -315 191 -344 l 183 -289 q 177 -218 175 -254 q 174 -189 178 -211 q 175 -164 171 -173 q 169 -151 169 -151 q 172 -142 170 -149 q 175 -132 175 -135 q 173 -109 174 -106 q 179 -104 177 -106 q 182 -94 181 -101 q 183 -85 182 -86 q 187 -79 183 -83 q 191 -73 191 -74 q 193 -35 192 -68 q 197 -24 193 -33 q 201 -12 200 -18 l 205 -12 q 211 -35 206 -20 q 216 -57 215 -51 q 215 -71 218 -63 q 213 -83 212 -79 q 216 -87 213 -85 q 220 -91 220 -90 l 218 -119 q 222 -127 219 -121 q 227 -134 227 -133 l 224 -152 q 228 -182 227 -159 q 237 -216 229 -203 q 240 -224 237 -222 l 240 -225 l 244 -225 q 239 -178 244 -227 q 240 -155 237 -170 q 242 -136 243 -140 q 240 -71 237 -92 q 239 -62 241 -66 q 237 -56 236 -58 q 246 -33 236 -61 l 248 -6 q 252 4 249 -3 q 256 14 256 12 q 254 22 256 17 q 252 30 253 27 q 260 73 254 55 q 260 86 262 78 q 258 97 258 97 q 262 113 258 98 q 262 139 264 121 q 264 166 261 156 q 258 232 269 182 q 260 265 256 241 q 258 268 260 266 q 256 273 256 271 q 260 330 256 291 q 258 394 254 341 q 248 523 234 444 q 254 582 257 568 q 252 646 249 608 q 252 707 254 688 q 254 715 253 709 q 256 722 256 720 q 272 976 241 850 q 269 980 271 977 q 266 983 267 983 q 213 998 269 979 q 155 1002 198 1002 q 98 991 109 1000 q 88 980 99 992 q 94 958 87 984 q 93 937 96 952 q 94 918 90 924 l 94 901 l 92 901 q 52 991 77 964 q 23 999 45 996 q -7 998 1 1002 q -11 993 -8 997 q -15 987 -14 988 q -13 976 -15 979 q -1 972 -9 972 z "},"J":{"ha":701,"x_min":28,"x_max":679,"o":"m 35 332 q 35 327 35 330 q 33 321 34 323 q 33 283 37 309 q 33 239 28 256 q 47 209 37 229 q 61 178 58 187 l 61 161 q 66 151 62 158 q 71 140 71 143 l 71 127 l 79 121 q 99 62 87 107 q 93 30 95 41 q 109 -115 108 -108 q 105 -133 109 -116 q 104 -154 102 -149 q 111 -174 104 -168 q 115 -176 112 -175 q 126 -164 119 -167 q 127 -142 123 -155 q 128 -121 130 -127 q 126 -101 125 -104 q 132 -85 132 -82 q 136 -43 131 -71 l 134 -22 q 144 79 138 -7 q 177 45 165 80 q 184 16 180 36 q 192 -12 189 -4 q 199 -47 195 -22 q 205 -83 203 -74 q 204 -100 208 -90 q 201 -115 200 -111 q 206 -121 202 -116 q 212 -127 211 -125 q 214 -196 220 -148 q 208 -285 204 -264 q 208 -388 219 -353 q 209 -409 205 -394 q 210 -427 212 -422 q 214 -443 210 -431 l 220 -443 q 224 -382 221 -429 q 229 -324 225 -344 l 225 -309 q 231 -251 224 -302 l 227 -231 q 231 -218 228 -228 q 235 -205 235 -210 q 231 -188 233 -194 q 235 -172 231 -193 q 234 -148 237 -165 q 233 -125 232 -131 q 236 -119 233 -123 q 239 -115 239 -115 q 241 -74 244 -98 q 237 -41 237 -46 q 235 -22 237 -39 q 237 -2 234 -7 l 237 6 l 239 6 q 262 -20 241 2 q 269 -54 276 -35 q 275 -58 271 -55 q 281 -63 279 -62 q 277 -93 281 -72 q 275 -119 274 -110 q 278 -138 275 -122 q 281 -156 281 -151 q 278 -165 281 -159 q 277 -176 276 -170 q 281 -208 281 -199 q 296 -200 283 -208 q 315 -41 296 -96 q 336 0 327 -7 l 340 8 q 380 -6 342 9 q 399 4 376 -1 l 421 0 q 434 -56 422 -7 q 437 -117 443 -93 q 441 -123 439 -119 q 449 -125 446 -124 q 461 -97 459 -108 l 459 -77 q 463 -65 463 -62 q 457 -43 457 -41 q 463 -2 463 -15 l 469 -2 q 481 -28 483 -24 q 486 -39 481 -36 q 492 -47 491 -44 q 493 -59 493 -48 q 494 -79 493 -72 q 494 -168 503 -119 q 492 -186 492 -182 q 495 -189 492 -186 q 496 -192 496 -191 q 503 -293 489 -235 q 506 -323 505 -303 q 509 -348 507 -342 q 508 -361 510 -354 q 505 -372 505 -372 q 512 -397 505 -370 q 518 -395 514 -397 q 522 -368 524 -382 q 522 -338 521 -348 q 526 -307 527 -309 q 520 -271 519 -275 q 523 -201 524 -253 q 528 -125 522 -152 q 529 -100 531 -114 q 528 -77 527 -84 q 524 -45 528 -79 q 522 -7 524 -44 q 524 -5 522 -7 q 526 -2 526 -3 q 520 16 526 -6 q 528 58 519 22 q 560 157 553 149 q 570 157 561 157 q 572 85 578 115 q 571 60 570 77 q 572 38 572 42 q 572 18 571 34 q 570 -2 574 5 q 572 -7 570 -6 q 578 -9 574 -9 q 580 8 578 5 l 582 10 l 582 8 q 593 67 603 23 q 606 138 612 100 q 609 152 604 144 q 615 164 614 161 q 611 228 623 157 q 611 336 604 271 q 608 357 612 341 q 608 378 606 371 q 615 391 609 383 q 623 404 622 401 q 623 444 630 419 q 604 473 616 467 q 613 487 605 480 q 623 498 621 494 q 647 570 652 574 q 637 602 648 594 q 625 608 633 605 q 609 614 614 612 q 611 619 610 618 q 621 623 613 621 q 631 629 628 625 q 651 724 669 634 q 652 754 648 736 q 655 788 655 776 q 669 903 654 842 q 673 941 671 913 q 679 974 674 965 l 656 998 q 650 995 654 997 q 643 993 645 993 q 633 998 636 991 q 614 990 621 997 q 602 980 605 981 q 587 989 601 979 q 574 988 584 993 q 560 983 564 983 q 530 983 556 984 q 503 985 506 983 q 492 980 501 985 q 481 932 487 964 q 481 922 480 928 q 481 914 482 918 l 481 912 q 472 939 476 916 q 463 972 467 965 q 449 987 461 984 q 436 987 445 989 q 421 985 427 984 q 372 1000 374 998 q 344 987 369 1000 q 351 963 346 979 q 358 940 357 947 q 356 913 359 932 q 356 886 352 896 q 361 880 357 885 q 366 873 365 875 q 366 865 368 869 q 366 859 366 861 q 380 817 368 850 l 380 789 q 382 772 381 785 q 386 756 384 760 q 386 653 374 709 q 396 629 387 645 q 408 604 406 610 q 410 545 411 549 q 406 528 406 528 q 414 467 415 479 l 414 418 q 408 382 407 391 q 410 354 408 350 q 356 245 393 284 q 350 243 354 244 l 350 237 q 241 230 260 220 l 239 235 q 220 245 233 240 q 199 254 204 251 q 176 319 176 315 q 198 453 178 377 q 192 463 193 457 l 186 463 q 168 429 186 466 q 154 378 160 414 q 152 330 147 341 q 150 323 151 325 q 146 323 149 322 q 140 342 145 328 q 132 362 134 358 q 132 393 128 374 q 134 418 136 412 q 154 517 129 446 q 160 549 157 524 q 170 576 162 567 q 164 592 170 584 q 128 526 155 589 l 128 515 q 121 504 127 512 q 113 493 115 497 q 102 461 109 485 l 104 448 q 98 430 103 441 q 91 412 93 418 q 93 393 89 406 q 95 372 97 381 q 89 342 89 351 l 85 342 q 79 354 83 347 q 73 364 74 361 q 72 389 76 373 q 69 412 68 405 q 99 528 84 497 l 95 530 q 91 532 94 532 q 50 439 66 498 l 47 416 q 42 411 45 414 q 37 406 39 408 q 40 384 36 400 q 41 362 44 368 q 30 338 41 346 q 33 335 31 336 q 35 332 35 334 z "},"K":{"ha":689,"x_min":-16,"x_max":654,"o":"m 28 853 q 28 836 30 846 q 28 821 27 825 q 38 764 34 781 q 39 745 39 758 q 40 730 39 733 q 60 696 40 712 l 94 691 l 95 689 q 90 673 94 678 q 75 664 85 665 q 64 663 64 663 q 56 654 62 662 q 47 645 50 647 q 56 619 50 637 q 64 594 62 602 q 62 572 65 587 q 60 550 58 557 q 68 491 64 526 q 64 481 67 496 q 66 448 63 477 q 69 416 68 418 q 101 388 67 419 q 90 365 100 377 q 79 342 81 352 q 84 304 79 334 q 85 273 89 278 q 92 269 87 271 l 90 245 q 97 220 96 216 q 87 153 84 161 q 102 87 96 130 q 113 24 111 34 q 113 -13 116 12 q 111 -43 111 -39 q 119 -106 111 -39 q 117 -117 119 -110 q 115 -130 114 -125 q 119 -188 124 -170 l 119 -192 q 125 -190 123 -191 q 131 -154 132 -159 l 129 -149 q 127 -144 127 -145 q 135 -136 130 -142 l 135 -135 l 134 -134 l 134 -132 l 134 -130 l 134 -128 l 134 -128 l 134 -127 l 134 -123 l 134 -123 l 133 -122 l 133 -121 l 133 -119 q 139 -95 132 -122 q 138 -85 140 -91 q 139 -77 137 -80 q 153 -39 138 -62 l 157 -39 q 159 -63 161 -50 q 159 -89 157 -80 q 166 -117 160 -98 q 174 -144 172 -135 l 172 -166 q 175 -168 172 -167 q 176 -172 177 -169 l 172 -176 q 180 -231 176 -191 q 190 -289 185 -269 q 206 -374 212 -380 l 206 -376 l 210 -376 q 208 -250 216 -340 q 210 -123 201 -163 q 212 -77 212 -113 q 216 -39 211 -46 q 218 -35 217 -37 q 221 -54 220 -41 q 224 -75 222 -69 q 230 -97 228 -90 l 234 -97 q 236 -113 237 -102 q 238 -130 235 -125 q 241 -134 238 -132 q 245 -138 245 -136 q 254 -168 252 -166 l 254 -170 l 256 -170 q 239 -75 255 -87 q 252 -19 252 -64 q 252 16 253 -7 q 252 40 251 35 q 248 76 252 50 q 245 115 243 100 q 241 142 244 124 q 245 192 242 167 q 245 220 247 201 q 245 250 243 237 q 244 255 246 252 q 241 259 241 259 q 245 291 239 274 l 250 293 q 258 279 258 279 l 267 279 q 291 239 279 273 q 293 220 292 236 l 293 206 q 299 204 295 205 l 297 194 q 302 172 298 189 q 307 151 306 157 q 311 127 310 128 l 313 123 q 321 142 321 128 q 321 166 320 164 q 334 202 323 179 q 347 237 345 225 q 396 218 353 237 q 399 203 397 214 q 402 188 400 193 q 412 167 404 183 q 422 144 419 153 q 427 117 425 134 q 430 91 429 97 q 433 36 437 59 q 430 18 431 16 q 444 -41 437 -4 q 443 -52 444 -43 q 444 -65 441 -60 q 463 -216 465 -126 l 469 -216 q 467 -70 472 -172 q 469 73 463 24 l 471 75 q 487 60 471 75 q 494 57 488 58 q 501 54 500 56 l 501 43 q 507 35 502 42 q 513 26 511 29 q 517 -1 517 16 q 521 -30 518 -20 q 527 -47 522 -33 q 532 -67 531 -60 q 530 -95 534 -75 q 534 -127 529 -102 q 534 -148 536 -135 q 534 -170 532 -161 q 537 -196 536 -180 q 538 -218 538 -213 q 549 -313 549 -269 l 554 -313 l 556 -311 q 562 -168 557 -207 q 561 -127 564 -158 q 564 -95 559 -104 q 566 -97 566 -95 q 572 -138 570 -102 q 576 -192 574 -181 q 584 -300 585 -230 q 590 -399 583 -370 q 593 -446 592 -410 q 600 -487 593 -475 l 602 -492 q 616 -477 612 -490 q 612 -412 623 -458 q 616 -372 612 -414 q 608 -342 609 -358 q 612 -289 618 -321 q 608 -273 608 -271 l 612 -271 l 608 -237 q 598 -104 610 -218 q 606 -47 598 -104 q 600 -28 606 -48 l 601 -19 l 602 -9 q 594 56 592 50 q 602 67 595 57 l 602 69 q 618 56 614 65 q 622 -2 622 49 q 625 -93 622 -54 q 623 -123 626 -98 q 625 -152 619 -142 q 631 -154 627 -153 q 629 -138 631 -149 q 627 -123 628 -127 q 633 -115 628 -121 q 637 -104 637 -109 q 646 -11 637 -81 q 651 81 654 52 q 652 100 650 88 q 653 115 654 110 q 651 131 651 129 q 653 144 654 142 q 648 158 652 149 q 642 170 642 167 q 637 192 640 177 q 631 212 635 204 q 622 220 627 216 l 621 227 l 620 233 l 618 245 q 610 257 616 248 q 604 269 606 265 q 606 281 606 279 q 597 294 604 285 q 588 309 590 304 l 588 310 l 588 310 q 588 310 588 309 l 587 311 l 587 311 q 587 311 587 315 l 587 312 q 587 312 587 315 l 587 313 q 587 313 587 315 l 587 313 q 587 313 587 315 l 587 313 q 587 313 587 315 l 587 314 l 587 314 q 587 314 587 312 l 587 315 q 587 315 587 317 l 587 315 l 587 315 q 587 316 587 317 l 587 316 l 587 316 l 587 317 l 587 318 l 587 319 q 587 319 587 317 l 587 319 l 586 319 q 586 319 587 317 l 586 320 l 586 320 q 586 320 587 317 l 586 321 q 586 321 586 322 q 586 321 586 319 l 586 322 q 586 322 585 325 l 586 322 l 586 323 l 585 324 l 585 324 q 585 324 586 322 l 585 325 l 585 326 l 585 326 q 585 326 586 322 l 585 326 l 585 327 q 585 327 585 326 l 585 328 l 585 328 l 585 328 q 585 328 585 330 l 585 329 q 585 329 585 330 l 585 330 l 585 330 l 584 331 q 584 332 585 330 l 584 332 l 584 332 q 584 332 585 330 l 584 332 q 584 332 584 331 l 584 333 l 584 334 l 584 334 l 584 334 q 584 335 584 334 l 584 335 q 584 335 584 332 l 583 336 l 583 336 q 583 336 583 338 l 583 336 q 583 336 583 338 l 583 336 l 583 337 q 583 337 583 338 l 583 337 q 583 338 583 338 l 583 338 q 583 338 583 338 l 583 339 l 583 340 q 583 340 583 338 l 583 340 q 583 340 583 338 l 583 340 l 583 341 q 583 341 583 340 l 583 341 q 583 341 583 340 l 583 342 q 583 342 583 340 l 583 342 q 583 342 583 341 l 583 343 l 582 343 l 582 344 q 582 344 582 346 l 582 345 q 563 365 578 353 q 543 386 547 377 q 526 388 536 385 q 493 366 515 393 l 491 366 q 483 437 500 405 q 463 461 481 455 q 430 473 431 472 q 424 481 427 475 q 418 491 420 489 q 388 515 388 515 l 382 515 q 403 562 386 533 q 426 610 421 594 l 431 610 q 446 541 448 536 q 444 526 446 540 q 448 503 443 522 q 448 485 449 496 q 452 471 446 477 q 455 469 453 470 q 463 541 463 491 l 463 553 l 461 566 q 465 572 462 568 q 467 578 467 577 q 463 594 468 583 q 461 614 459 605 q 466 642 463 618 q 473 673 469 662 q 486 698 475 677 q 497 724 495 714 l 501 724 q 513 703 500 728 q 523 663 510 708 q 530 600 529 641 q 534 547 532 558 q 534 533 536 543 q 534 519 532 525 q 538 515 535 518 q 541 511 541 511 q 538 500 541 507 q 541 489 536 494 q 545 487 542 488 q 549 523 552 505 l 546 526 q 545 530 545 530 q 547 572 547 545 q 551 618 548 600 q 552 635 553 633 q 551 713 542 680 q 547 732 551 718 q 549 768 547 736 q 558 804 551 794 l 560 810 q 573 786 572 806 q 574 752 575 745 q 576 705 574 736 q 586 635 585 673 q 590 620 586 632 q 592 604 593 609 q 594 582 592 589 l 598 580 q 594 637 603 593 l 598 659 q 594 679 598 659 q 592 705 591 696 q 595 711 592 706 q 598 716 597 715 q 596 740 600 724 q 596 766 593 754 q 602 777 597 769 q 608 788 607 783 q 610 827 610 800 q 612 863 610 853 q 629 909 614 873 q 644 946 644 942 q 646 961 643 950 q 646 976 649 970 q 631 996 643 985 q 586 989 623 1000 q 571 991 580 988 q 560 994 562 994 q 558 991 559 993 q 556 987 557 989 l 523 985 q 515 960 515 971 l 513 960 q 510 972 511 962 q 505 983 508 979 q 481 989 496 994 q 467 981 471 987 q 432 987 455 986 q 396 987 401 987 q 385 994 393 988 q 374 991 380 997 q 345 966 346 991 q 342 914 341 909 q 329 888 342 913 q 323 865 327 881 l 317 863 q 315 847 316 858 q 310 844 314 845 q 305 841 306 842 q 303 834 304 840 q 301 827 302 829 q 329 786 302 814 l 329 784 q 283 780 315 785 q 265 730 274 739 l 265 726 q 260 744 264 727 q 256 788 252 771 q 262 823 262 821 q 256 825 260 824 q 258 845 252 833 q 265 861 265 857 q 256 918 265 882 q 260 940 256 918 q 252 983 264 968 q 241 988 250 987 q 230 991 232 990 q 210 982 224 989 q 190 974 197 975 q 155 983 181 972 q 122 984 142 989 q 97 968 102 979 q 101 934 91 951 q 99 928 100 930 l 99 926 q 87 953 90 932 q 90 981 84 972 q 79 998 87 991 q 22 987 69 1004 l 0 987 q -8 979 -4 985 q -16 968 -14 970 q -3 952 -13 962 q 8 936 6 943 q 19 895 14 921 q 28 853 26 863 z "},"L":{"ha":689,"x_min":5,"x_max":661,"o":"m 24 859 q 33 726 39 793 q 37 640 26 656 q 87 616 43 624 q 78 606 85 609 q 66 597 68 601 q 55 576 61 591 q 44 554 50 560 q 62 523 44 555 q 76 473 70 508 q 75 458 77 470 q 74 441 73 447 q 76 398 80 418 q 70 345 66 352 q 100 319 78 326 q 108 321 102 319 q 117 313 111 319 q 127 305 123 307 q 112 288 126 296 q 92 269 96 277 q 100 229 88 263 q 115 182 115 189 l 112 155 q 119 133 111 160 q 117 62 115 112 q 119 -12 120 -1 q 119 -104 115 -111 l 119 -106 l 125 -109 q 136 -103 130 -104 q 181 52 135 12 q 201 30 186 54 q 214 -4 216 5 q 216 -33 212 -18 q 214 -47 216 -38 q 216 -77 216 -55 q 218 -109 216 -98 l 218 -117 l 216 -125 q 224 -198 229 -188 l 229 -208 q 240 -205 235 -208 q 243 -186 240 -200 q 244 -170 245 -176 l 240 -166 q 246 -140 247 -155 l 243 -132 q 242 -119 241 -124 q 246 -104 246 -105 q 244 -79 243 -82 q 252 -63 245 -74 q 258 -47 257 -52 q 257 -29 258 -43 q 258 -9 256 -16 q 264 3 259 -6 q 270 16 269 9 l 276 16 q 291 -41 285 -4 q 302 -99 300 -92 q 323 -216 309 -129 q 319 -229 323 -218 q 319 -248 316 -239 q 323 -252 320 -248 q 328 -257 327 -255 q 330 -294 331 -269 q 329 -326 329 -323 q 329 -416 336 -378 q 326 -439 325 -440 q 329 -449 327 -442 q 339 -447 334 -449 q 345 -403 342 -430 q 349 -362 347 -375 q 349 -329 351 -353 q 349 -295 347 -304 q 345 -251 347 -273 q 361 -140 355 -229 l 357 -128 q 369 -69 363 -87 q 406 38 395 28 l 406 40 l 410 40 q 444 -71 435 -67 q 454 -64 448 -73 q 456 -47 459 -56 l 450 -45 q 452 -7 443 -32 q 470 26 459 15 q 475 28 471 27 q 481 30 480 28 q 486 37 484 32 q 492 43 488 41 q 498 44 492 44 q 505 45 503 44 q 517 41 501 46 l 517 36 l 523 36 q 537 -152 541 -117 q 540 -160 537 -153 q 543 -168 543 -167 q 543 -189 545 -175 q 541 -208 541 -205 l 546 -219 q 547 -233 549 -228 q 561 -366 564 -355 q 565 -368 564 -367 q 576 -366 572 -368 q 574 -320 581 -355 q 576 -307 574 -316 q 578 -293 579 -297 q 574 -263 574 -264 q 574 -235 577 -254 q 572 -208 570 -216 q 580 -151 577 -190 q 587 -91 583 -110 l 585 -65 q 596 26 597 26 q 604 24 600 27 q 618 -81 632 3 q 619 -109 618 -85 q 616 -132 621 -129 q 618 -152 616 -146 q 636 -146 633 -151 l 634 -127 q 637 -122 634 -125 l 640 -119 q 638 -115 640 -115 q 636 -113 636 -113 q 638 -81 632 -96 q 644 -77 642 -79 q 642 -64 645 -75 q 642 -47 640 -52 q 648 -26 647 -30 l 647 -5 l 646 16 l 652 20 q 652 71 659 39 q 648 103 646 96 q 648 131 650 111 q 650 161 648 151 q 658 216 658 197 l 656 233 l 656 235 l 656 235 l 655 235 l 655 237 q 655 237 655 238 l 655 237 l 654 241 l 654 242 q 654 242 654 244 q 654 242 654 242 l 654 243 q 654 243 654 242 l 654 245 l 654 248 l 654 248 q 654 248 654 245 q 654 248 654 245 l 654 250 q 656 255 654 250 q 660 261 660 260 q 657 294 661 269 q 656 323 654 318 q 652 351 656 342 q 642 347 646 350 q 636 342 638 343 q 620 341 631 340 q 602 338 610 342 q 569 325 570 325 q 559 328 564 323 q 549 330 554 332 q 517 325 530 326 q 511 306 515 320 q 503 287 507 292 l 503 283 q 479 295 494 286 q 456 305 465 303 q 420 293 463 304 l 399 295 q 365 291 384 292 q 326 299 368 291 q 298 285 302 304 q 294 287 295 286 l 292 289 l 294 289 q 276 315 294 290 q 266 313 269 315 q 258 340 266 313 q 254 350 258 340 q 250 362 251 357 q 256 400 249 370 q 256 429 258 411 q 254 453 253 448 q 253 483 256 460 q 256 509 252 501 q 214 530 258 500 l 212 530 q 241 553 217 543 q 268 570 265 562 q 252 608 267 568 q 256 665 249 616 q 254 677 256 669 q 252 689 252 686 q 252 703 252 691 q 254 720 252 712 q 261 738 256 726 q 268 754 267 750 q 269 777 266 762 q 270 800 271 792 q 264 823 266 815 q 283 978 287 945 q 248 998 245 998 q 197 991 246 998 q 174 995 195 991 q 151 998 152 998 q 149 995 150 997 q 143 991 146 992 q 139 966 140 964 q 144 959 140 964 q 149 952 149 954 q 150 935 151 946 q 149 920 149 922 q 149 819 157 870 q 150 811 149 817 q 149 804 151 807 l 149 791 l 147 793 q 134 853 134 804 q 136 869 134 859 q 123 897 136 865 q 123 913 120 904 q 125 926 127 922 q 98 980 120 945 q 44 987 43 989 q 11 972 28 984 q 22 901 5 948 l 24 880 l 24 859 z "},"M":{"ha":858,"x_min":4,"x_max":831,"o":"m 26 926 q 26 911 28 921 q 26 893 24 899 q 30 866 28 885 q 33 840 32 846 q 33 802 35 833 q 28 770 29 772 l 31 767 q 31 767 31 768 l 31 767 q 31 767 33 765 l 31 767 l 31 767 q 31 766 31 768 l 31 766 l 31 766 l 31 766 l 31 766 l 32 766 q 32 766 33 765 q 32 766 31 767 l 32 766 q 32 766 31 766 l 32 766 q 33 766 33 765 q 33 766 34 764 q 33 765 34 764 q 33 765 35 763 q 33 765 35 763 q 33 765 31 767 q 33 765 32 766 l 33 765 q 33 764 33 765 q 33 764 35 763 q 33 764 34 764 q 33 764 34 764 q 33 745 34 763 q 31 717 31 725 l 33 713 q 28 681 27 682 q 39 661 30 674 q 47 644 47 648 q 81 628 71 635 l 85 628 q 84 627 85 627 q 83 626 83 626 q 43 588 80 618 q 50 556 47 567 q 43 519 43 519 q 50 491 50 492 q 47 418 39 433 q 99 387 50 410 q 97 370 99 374 q 54 345 97 371 q 69 291 54 339 q 72 275 71 286 q 73 260 73 262 q 64 215 76 245 q 56 167 52 185 q 59 153 56 161 q 63 139 62 142 q 63 119 65 132 q 63 101 61 109 q 75 77 65 94 q 85 52 83 60 l 83 32 q 89 20 84 29 q 95 8 94 12 l 93 -3 q 103 -49 98 -34 q 103 -69 104 -56 q 103 -85 102 -82 q 108 -96 104 -87 q 113 -109 112 -104 l 109 -122 q 113 -137 109 -127 q 119 -150 118 -149 q 119 -176 121 -156 q 125 -199 119 -192 q 130 -201 126 -201 q 130 -150 130 -185 q 130 -98 131 -111 q 142 -41 129 -56 q 146 -35 143 -40 q 156 -75 153 -40 q 162 -126 160 -119 q 185 -231 174 -166 q 203 -330 199 -308 l 203 -366 q 211 -392 205 -372 q 218 -417 216 -410 q 225 -467 225 -467 l 226 -467 l 226 -467 l 226 -467 l 226 -467 l 227 -467 l 227 -468 l 227 -468 l 227 -468 l 227 -468 l 227 -468 l 227 -469 l 233 -463 q 222 -387 223 -395 q 222 -361 220 -378 q 224 -336 224 -341 q 216 -275 223 -325 q 205 -210 205 -210 q 208 -204 205 -206 q 210 -197 210 -201 q 202 -167 208 -187 q 194 -138 195 -146 q 190 -106 187 -103 q 195 -99 191 -102 q 201 -93 201 -95 q 208 -67 206 -85 q 212 -37 209 -46 q 224 6 223 2 l 227 6 q 247 -37 232 -12 q 269 -77 266 -69 q 271 -90 271 -82 q 271 -100 271 -99 q 279 -138 273 -106 q 283 -174 281 -150 q 289 -212 286 -197 q 290 -241 290 -219 q 295 -264 290 -257 q 298 -279 295 -275 q 309 -277 298 -278 q 305 -260 308 -270 q 300 -247 301 -249 q 304 -225 300 -244 q 304 -195 307 -206 q 303 -147 301 -178 q 304 -104 306 -114 q 302 -97 304 -103 q 298 -91 299 -92 q 300 -83 298 -89 q 302 -77 302 -77 q 302 -51 304 -70 q 300 -23 300 -31 q 304 6 304 7 q 296 41 303 13 q 289 75 291 64 q 290 118 287 87 q 291 159 294 147 q 287 224 283 191 q 283 245 287 227 l 283 275 q 279 363 275 309 q 289 364 286 363 q 307 307 281 369 q 322 252 320 274 q 320 233 321 245 q 319 214 319 220 q 324 203 319 210 q 330 191 329 194 l 330 172 q 334 169 331 171 q 338 167 338 168 q 338 143 336 171 q 348 105 340 117 l 348 103 l 352 103 q 350 170 355 146 q 346 200 345 195 q 356 210 351 205 q 354 232 355 221 q 360 248 355 238 q 366 264 365 258 q 370 266 369 264 q 382 248 380 262 q 382 235 382 245 q 384 220 382 226 q 382 208 384 218 q 382 193 380 197 q 399 131 399 125 q 414 83 401 136 q 413 77 414 81 q 412 73 412 75 q 419 44 412 67 q 417 34 418 37 q 427 -18 424 -3 q 427 -29 429 -23 q 427 -39 427 -36 q 457 -212 448 -115 q 461 -214 460 -212 l 469 -214 q 461 -191 465 -197 q 467 -190 462 -189 q 469 -158 463 -169 q 463 -127 462 -147 q 463 -96 464 -101 q 447 -25 454 -42 q 457 8 446 -24 l 457 38 q 469 77 463 64 q 467 115 462 98 l 469 118 q 471 121 471 120 q 490 224 466 145 q 493 239 493 231 q 494 254 493 248 q 511 200 499 247 l 511 180 q 516 163 516 163 q 514 151 515 149 q 518 146 515 149 q 522 141 522 142 q 522 119 524 135 q 520 96 518 103 q 524 71 521 94 q 528 48 526 52 q 536 44 534 45 q 532 22 536 45 q 540 24 538 23 q 540 62 540 24 q 536 96 540 71 q 534 131 532 118 q 534 172 538 154 l 528 193 q 533 210 529 199 q 538 224 538 222 q 538 243 540 231 q 538 260 537 255 q 548 315 545 308 q 553 320 549 317 q 558 325 557 323 q 562 347 561 331 q 568 364 562 359 q 576 371 570 367 q 585 378 583 376 q 587 379 586 378 q 587 380 587 380 q 593 311 598 351 q 591 290 591 290 q 593 271 592 288 q 595 254 594 257 q 613 204 606 230 q 614 159 617 191 q 615 113 610 130 q 647 77 621 95 q 657 -22 650 16 q 656 -41 658 -28 q 655 -57 654 -54 q 662 -81 656 -64 q 669 -104 667 -98 l 669 -132 q 673 -135 670 -133 q 677 -138 675 -137 q 675 -149 679 -143 q 673 -158 672 -155 q 675 -162 673 -159 q 677 -166 677 -164 q 681 -174 677 -172 q 684 -176 682 -175 q 682 -81 694 -144 q 692 -29 681 -72 q 686 -18 692 -32 l 688 2 q 694 4 690 3 l 694 6 l 699 6 q 703 -23 704 -14 q 700 -28 703 -24 q 699 -33 698 -31 q 707 -48 700 -37 q 716 -65 715 -59 q 714 -91 715 -73 q 724 -142 722 -133 l 722 -162 q 747 -276 730 -193 q 772 -389 762 -356 q 776 -431 776 -404 q 781 -475 776 -458 q 782 -491 783 -479 q 783 -506 781 -502 q 800 -510 787 -518 q 791 -415 800 -471 q 795 -400 791 -412 q 798 -380 799 -388 q 791 -312 788 -336 q 788 -266 793 -298 q 787 -225 783 -237 q 781 -215 787 -222 q 778 -203 777 -209 q 776 -115 781 -154 q 779 -53 770 -71 q 781 -52 780 -53 q 781 -51 781 -52 q 807 -174 813 -111 q 810 -193 807 -178 q 809 -210 812 -205 q 815 -245 814 -248 q 821 -253 814 -243 l 827 -253 q 825 -216 831 -232 q 827 -172 826 -193 q 819 -117 823 -155 q 811 -59 814 -75 q 813 -37 812 -45 q 811 28 810 26 l 813 28 q 815 30 814 29 q 812 40 812 33 q 811 52 812 48 q 803 60 808 54 q 802 79 800 69 q 803 96 804 93 q 798 117 802 104 q 791 137 792 133 q 800 196 790 144 q 795 224 799 195 q 794 261 794 234 q 793 297 794 288 q 801 326 792 306 q 805 351 808 345 q 795 368 804 358 q 781 385 783 380 q 809 408 806 406 q 803 454 810 427 q 805 489 800 466 q 807 521 810 511 q 802 588 797 560 q 803 612 804 608 q 799 623 803 614 q 795 631 795 630 q 807 665 795 633 q 802 703 805 660 q 762 715 758 719 l 760 717 q 813 758 808 745 q 814 783 819 767 q 809 808 808 802 q 807 899 814 835 q 805 998 800 963 q 803 1023 806 1004 q 803 1045 800 1039 l 803 1049 q 785 1053 800 1050 q 768 1057 773 1055 q 763 1054 766 1055 q 758 1051 759 1053 q 752 1041 755 1048 q 748 1029 749 1032 q 726 1002 734 1008 l 720 1002 q 703 977 713 996 q 686 950 690 956 q 677 941 684 947 q 667 932 669 937 q 656 910 661 924 q 647 889 651 896 q 578 814 645 886 q 593 752 578 806 q 595 734 595 748 q 597 717 595 722 q 595 705 597 708 l 595 703 q 564 750 573 713 q 554 754 557 752 q 526 739 535 753 q 519 724 524 734 q 513 709 515 714 q 501 697 509 704 q 489 687 492 690 q 461 622 467 660 l 455 622 q 443 608 450 612 q 441 604 442 605 q 420 629 437 612 q 401 655 405 644 q 370 652 400 656 l 370 646 q 350 620 351 633 q 348 654 344 631 q 346 687 352 677 q 336 709 346 702 q 328 715 334 711 q 319 723 322 720 q 311 734 315 726 q 302 747 306 743 q 294 752 300 748 q 287 758 289 755 q 285 768 286 762 q 279 770 283 769 q 273 772 275 772 q 264 781 271 774 q 255 790 259 787 l 255 798 q 249 796 251 797 q 224 823 223 824 q 180 806 187 817 l 176 806 q 182 844 177 831 q 200 849 185 848 l 200 851 q 186 859 197 852 q 161 908 187 875 q 123 946 137 941 l 106 946 q 94 960 101 949 q 83 976 87 973 q 71 981 79 979 q 59 986 62 983 q 59 996 58 988 q 56 994 57 995 q 52 991 54 993 q 39 1006 41 1003 q 9 1006 11 1004 l 7 1006 q 6 983 8 1000 q 6 960 4 967 q 16 935 9 947 l 20 930 q 21 930 22 930 q 21 930 22 929 l 21 930 q 21 930 19 932 q 21 930 22 930 l 22 930 l 22 930 l 22 930 l 22 929 l 22 929 l 22 929 l 22 929 q 22 929 24 927 l 22 929 q 22 929 22 929 q 23 928 21 930 l 23 928 l 23 928 l 26 926 z "},"N":{"ha":759,"x_min":-10,"x_max":732,"o":"m 631 930 q 626 954 627 937 q 617 976 625 969 q 601 999 618 996 q 574 989 585 1001 q 562 930 568 983 l 558 930 q 532 1000 530 1003 q 449 998 520 1009 q 427 997 444 997 q 408 994 415 997 q 392 980 412 996 q 400 944 392 961 q 412 915 410 921 q 424 867 422 871 q 422 816 437 829 q 445 777 422 795 q 473 739 470 756 q 439 719 456 738 q 436 673 429 705 q 444 647 438 663 q 449 626 448 631 q 449 597 450 620 q 453 574 448 578 l 453 549 q 437 560 456 547 l 437 566 q 387 597 414 572 q 356 646 359 623 q 303 655 329 659 q 289 637 296 642 l 293 628 q 283 612 286 621 q 280 611 282 612 q 277 610 278 610 q 287 665 272 631 q 284 671 287 667 q 281 675 281 674 q 285 687 281 672 l 283 717 q 257 739 264 727 l 257 747 q 245 758 254 751 q 233 768 237 764 q 212 804 225 780 q 190 840 198 829 q 144 887 166 873 q 128 892 141 889 q 115 901 118 895 q 103 925 111 908 q 91 948 97 941 q 72 964 87 954 q 54 980 58 974 q 43 1006 49 987 q 30 1029 37 1023 q 26 1031 29 1030 q 22 1034 24 1031 q 0 1021 10 1033 q -6 986 -10 1007 q -4 950 -1 961 q 0 909 -7 939 q -2 879 -1 899 q -2 879 -3 880 q -1 879 -2 879 l -1 879 q -1 879 -2 879 q -1 878 -3 880 l -1 878 l -1 878 l -1 878 l 0 878 l 0 878 l 0 878 l 0 878 q 0 878 1 877 q 0 878 -1 878 l 1 878 q 1 878 1 877 q 1 878 1 878 l 1 877 l 1 877 l 1 877 q 1 877 1 878 q 1 877 1 877 l 1 877 l 2 877 l 2 876 l 3 876 l 3 876 l 3 876 l 3 876 l 3 876 l 3 876 l 4 875 q 3 858 3 869 q 2 842 3 847 q 6 774 12 799 q 10 739 3 764 q 12 707 16 718 q 39 690 16 694 q 77 685 85 683 q 58 668 73 677 q 34 661 41 658 q 18 606 5 646 q 20 491 35 551 q 28 450 18 484 q 26 404 22 429 q 47 395 32 401 q 69 387 63 389 q 67 380 68 382 q 41 361 60 363 q 34 327 34 327 q 39 313 35 324 q 45 297 44 302 q 47 258 46 291 q 52 243 52 243 q 45 133 38 183 l 43 101 l 45 100 l 45 100 l 46 100 l 46 100 l 46 100 q 46 100 49 98 l 47 99 l 47 99 l 47 99 l 47 99 q 47 99 49 98 l 47 98 q 47 98 49 98 l 48 98 q 48 98 47 99 l 48 98 l 48 98 l 49 98 l 49 98 l 49 98 q 49 98 51 96 l 49 98 q 49 98 51 96 l 50 98 l 50 98 l 50 98 l 47 72 q 54 51 49 64 q 62 30 60 37 q 60 15 61 24 q 60 1 60 3 q 63 -7 60 -1 q 67 -16 67 -14 l 73 -83 q 79 -180 76 -96 q 93 -259 82 -244 q 95 -259 94 -259 q 101 -249 99 -256 q 98 -231 103 -244 q 95 -210 94 -217 q 99 -144 101 -167 l 95 -126 q 102 -113 96 -122 q 109 -100 108 -104 q 109 -89 110 -97 q 109 -77 109 -80 l 111 -77 q 133 -144 125 -115 l 135 -221 q 143 -260 139 -234 q 151 -302 147 -290 l 149 -324 q 155 -366 148 -339 l 155 -391 q 182 -536 175 -470 q 189 -529 191 -534 q 188 -518 188 -519 q 191 -516 188 -517 q 192 -512 193 -515 q 186 -508 188 -509 l 188 -496 q 184 -490 188 -495 q 182 -482 182 -487 l 184 -479 q 186 -475 186 -475 q 183 -470 186 -475 q 180 -465 180 -466 q 181 -447 180 -460 q 180 -427 182 -435 q 174 -374 176 -412 l 176 -352 q 167 -262 171 -323 q 159 -172 162 -196 l 166 -85 q 164 -59 165 -76 q 168 -23 170 -31 l 168 -20 q 170 -20 169 -20 q 170 -22 170 -21 q 178 -56 175 -26 q 182 -95 180 -90 q 190 -105 183 -98 q 198 -117 197 -113 q 197 -124 199 -119 q 196 -130 196 -130 q 200 -136 197 -133 q 204 -142 203 -141 q 210 -208 198 -156 q 211 -231 212 -214 q 212 -253 211 -248 q 216 -260 212 -255 q 220 -267 219 -265 q 220 -278 221 -271 q 220 -287 220 -286 q 232 -330 228 -319 q 235 -363 235 -338 q 241 -395 235 -385 q 250 -391 243 -397 q 252 -328 258 -372 q 248 -324 252 -328 q 245 -320 245 -321 q 248 -314 245 -319 q 250 -304 250 -309 q 249 -290 249 -302 q 248 -273 249 -277 q 244 -269 247 -272 q 241 -264 241 -265 q 243 -250 242 -260 q 245 -235 245 -240 q 237 -203 237 -206 q 238 -142 239 -191 q 241 -81 237 -100 q 241 -62 243 -73 q 239 -47 238 -52 q 242 -43 240 -46 q 245 -39 245 -41 q 243 -23 241 -34 q 243 -5 244 -9 q 239 -1 243 -3 q 235 2 236 1 q 235 26 233 8 q 237 52 238 47 q 232 75 237 52 l 235 94 l 233 115 q 241 142 237 127 q 250 167 248 159 q 230 194 231 183 q 222 196 224 195 l 220 196 q 235 206 223 203 q 241 258 245 244 q 239 333 227 314 q 279 329 260 342 q 282 328 280 328 q 285 327 284 327 q 283 315 284 317 q 299 303 284 310 q 334 92 332 220 l 340 92 q 346 98 342 94 q 351 103 349 102 q 351 121 354 110 q 349 137 347 133 q 354 144 349 139 q 360 151 359 149 l 360 172 q 374 198 366 190 q 397 195 380 204 q 420 178 412 187 q 429 136 431 161 q 433 87 428 104 q 467 -35 440 66 q 467 -43 468 -38 q 465 -49 465 -49 q 470 -67 467 -55 q 475 -85 474 -80 q 473 -102 474 -94 q 479 -117 473 -106 q 483 -130 483 -125 q 493 -208 481 -181 q 493 -220 494 -212 q 495 -231 492 -227 l 495 -233 l 498 -233 q 493 -193 500 -199 q 496 -184 493 -188 q 498 -180 498 -180 q 495 -172 498 -184 l 498 -144 q 496 -133 498 -142 q 493 -122 493 -124 q 496 -115 492 -120 q 496 -104 498 -110 q 491 -63 489 -71 q 503 -14 490 -70 q 505 23 506 1 q 507 58 504 45 q 517 98 517 102 q 530 98 519 98 q 529 82 530 94 q 528 70 528 73 q 538 53 530 64 q 548 36 547 41 q 548 24 550 31 q 546 16 545 18 q 552 9 547 14 q 558 1 557 3 q 564 -18 561 -7 q 568 -33 566 -28 q 568 -43 569 -37 q 566 -51 566 -50 q 572 -87 568 -63 q 578 -119 576 -111 q 580 -144 579 -123 q 586 -168 580 -159 q 587 -169 586 -168 q 588 -170 587 -170 q 586 -93 599 -144 q 587 -82 585 -88 q 590 -73 590 -75 q 595 46 583 24 q 625 20 616 49 q 643 -22 636 -16 q 657 -134 636 -38 q 656 -146 658 -138 q 655 -156 654 -155 q 661 -186 657 -164 q 667 -216 665 -207 l 667 -237 q 683 -292 670 -246 q 682 -304 684 -296 q 681 -316 680 -313 q 684 -325 681 -319 q 687 -332 686 -332 l 687 -354 q 694 -404 686 -353 l 694 -409 q 694 -410 694 -409 q 694 -410 694 -409 q 694 -410 694 -409 l 694 -410 q 694 -410 693 -411 l 694 -410 q 693 -410 694 -409 q 693 -411 694 -410 q 693 -411 693 -412 q 693 -411 693 -414 q 693 -411 694 -409 l 693 -412 l 692 -415 q 701 -503 707 -471 q 702 -533 699 -513 q 701 -557 705 -549 q 705 -572 701 -558 l 713 -572 q 716 -562 713 -566 q 720 -555 720 -557 q 728 -471 707 -511 q 726 -451 725 -465 q 726 -431 728 -435 q 726 -302 716 -387 q 724 -275 728 -293 q 718 -251 719 -252 q 722 -235 719 -252 l 720 -201 q 724 -195 721 -200 q 726 -188 726 -189 q 722 -170 727 -184 q 722 -149 724 -165 q 724 -124 722 -134 q 722 -87 729 -108 q 713 -57 712 -64 q 715 -28 713 -46 q 716 -1 716 -11 q 715 19 717 6 q 714 36 713 29 q 699 98 715 44 q 699 113 697 102 q 701 125 701 123 q 702 174 699 134 q 701 222 705 211 q 696 228 701 222 q 692 234 693 233 q 703 262 689 244 q 685 297 703 275 l 663 299 l 661 300 l 661 300 q 661 300 661 300 q 661 300 662 300 l 661 300 q 661 300 661 300 l 660 300 q 660 300 662 300 l 659 301 l 659 305 q 690 305 683 309 q 703 315 694 311 q 701 382 711 359 q 706 447 705 401 q 713 509 707 490 q 713 526 714 514 q 716 541 713 536 q 679 580 715 547 q 683 592 680 589 q 696 603 686 597 q 709 616 706 608 q 707 642 709 618 q 707 679 704 669 q 703 790 721 737 q 709 844 707 805 q 714 899 711 885 q 709 1000 732 981 q 699 1006 706 1003 q 689 1012 691 1009 q 679 1002 686 1010 q 671 1004 678 1003 q 659 1008 663 1006 q 633 996 637 1008 q 632 964 627 985 q 631 935 637 944 l 631 930 z "},"O":{"ha":770,"x_min":5,"x_max":770,"o":"m 587 473 q 540 450 583 462 l 536 430 q 540 402 542 406 l 534 400 q 537 388 533 398 q 540 372 542 377 q 532 361 539 370 q 522 347 524 351 q 518 323 520 342 q 515 299 516 304 q 461 218 493 237 q 439 210 454 214 q 416 202 421 205 q 401 193 412 200 q 386 184 393 186 q 334 210 371 176 q 330 210 334 210 q 296 230 304 210 q 291 251 294 236 q 285 273 288 265 q 275 299 275 298 q 212 297 236 304 q 208 299 210 298 q 212 311 210 308 q 239 325 216 321 q 243 334 240 328 q 248 340 247 338 q 240 373 250 350 q 227 408 229 400 q 233 430 228 408 q 218 485 243 468 q 229 493 219 488 q 253 628 233 599 q 271 640 257 633 q 289 652 286 649 q 291 656 290 653 q 293 661 292 660 l 300 661 q 305 669 302 663 q 311 675 308 674 q 320 678 314 677 q 328 681 325 679 q 328 730 329 731 q 336 747 330 733 q 342 762 342 757 l 347 762 q 347 751 347 759 q 348 741 347 743 q 356 727 350 736 q 364 713 363 718 l 364 697 q 372 686 366 693 q 380 675 378 680 q 397 679 386 676 q 416 683 410 682 q 457 671 450 684 q 461 659 465 656 l 479 653 q 488 643 482 651 q 496 631 494 634 l 498 629 l 500 631 l 500 629 q 536 509 534 612 q 543 499 538 507 q 550 491 547 493 q 570 486 556 488 q 589 481 585 483 q 587 473 589 475 m 756 -39 q 762 -37 760 -39 q 770 -33 764 -37 q 762 75 763 68 q 764 82 761 79 q 766 87 766 85 l 763 90 l 762 90 l 760 92 q 754 131 766 104 q 755 157 754 140 q 756 182 755 174 q 742 291 749 212 q 750 353 741 309 q 744 402 749 350 q 752 426 744 404 q 752 461 749 438 q 751 481 753 469 q 750 497 750 495 q 754 556 751 527 q 758 572 756 567 l 754 580 q 755 600 753 586 q 756 616 757 613 q 696 825 690 838 l 690 825 q 678 850 689 837 q 663 873 665 867 q 613 869 631 881 l 612 869 q 604 922 614 911 q 585 930 600 927 q 560 939 566 935 q 552 946 558 939 q 544 954 546 953 q 532 959 541 957 q 520 964 524 962 q 510 975 517 966 q 498 986 503 983 q 447 996 467 1002 q 437 989 440 989 q 422 996 432 990 q 408 1004 410 1003 q 403 1002 406 1003 q 397 1002 399 1002 q 364 1010 374 1008 q 343 1002 361 1010 q 319 994 324 994 l 297 996 q 283 988 292 994 q 269 980 273 981 l 255 978 q 254 975 255 977 q 253 972 254 973 q 250 973 252 972 q 245 974 247 974 q 228 967 241 972 q 210 960 214 962 l 203 961 l 202 961 q 202 961 203 961 l 201 961 l 201 961 l 201 962 l 199 962 l 196 962 q 182 952 193 961 q 168 941 171 942 q 178 883 165 898 l 178 877 q 173 876 176 877 q 168 875 170 876 q 160 883 165 878 q 153 891 155 888 q 90 869 105 895 q 78 841 84 861 q 65 806 70 817 q 56 791 63 801 q 45 776 47 781 q 42 762 43 770 q 39 747 41 751 q 28 719 37 739 q 18 691 21 701 q 15 665 16 684 q 9 642 15 650 q 49 606 14 622 q 79 593 60 600 q 105 584 102 585 l 101 580 q 96 580 99 579 q 91 580 94 581 q 83 575 89 579 q 75 570 77 571 q 50 570 70 568 q 24 572 29 573 q 9 543 9 540 l 14 515 q 6 459 5 461 q 8 452 7 452 l 12 452 q 10 437 12 450 q 9 418 7 425 q 28 366 22 374 q 33 361 28 366 q 37 355 37 358 q 37 345 39 351 q 35 339 35 339 q 43 291 43 300 q 42 275 44 287 q 41 260 41 264 q 69 74 66 142 q 75 72 73 73 l 79 72 q 83 149 81 135 q 119 202 92 190 q 121 192 120 199 q 125 180 123 184 q 134 172 126 178 q 142 163 141 167 l 138 125 q 144 112 140 121 q 151 99 149 102 q 158 42 153 92 q 162 21 159 35 q 168 -3 166 3 q 164 -39 172 -32 q 180 -65 177 -56 l 186 -65 q 208 96 180 46 q 218 92 215 94 q 229 81 222 89 q 239 70 235 73 q 248 -23 240 2 q 255 -71 259 -64 l 255 -73 l 261 -73 q 267 -96 262 -84 q 273 -115 273 -112 l 271 -132 q 277 -139 272 -134 q 283 -146 282 -144 l 281 -168 q 295 -205 291 -187 q 293 -219 294 -215 q 302 -231 294 -222 q 304 -267 304 -231 q 315 -263 309 -266 q 309 -231 316 -240 q 315 -221 310 -224 q 307 -185 313 -206 q 298 -148 300 -160 q 309 -126 308 -128 l 304 -100 q 309 -89 305 -96 q 313 -81 313 -81 q 311 -76 313 -80 q 311 -69 310 -72 q 313 -61 311 -68 q 317 -53 316 -55 q 315 -39 316 -48 q 320 -31 315 -37 q 326 -22 325 -25 l 330 -22 q 345 -79 347 -65 q 340 -122 338 -113 q 349 -164 343 -135 q 356 -201 354 -193 q 355 -227 358 -209 q 354 -253 353 -247 q 368 -363 369 -356 q 392 -496 389 -403 q 408 -503 402 -502 q 394 -370 408 -448 q 396 -366 393 -367 q 397 -360 399 -364 q 395 -353 397 -359 q 392 -346 392 -348 q 393 -325 392 -339 q 394 -304 393 -311 q 388 -277 387 -279 q 393 -256 389 -271 q 397 -237 396 -244 q 397 -222 398 -235 q 397 -203 395 -210 q 401 -201 399 -203 q 404 -197 403 -199 q 400 -185 404 -196 q 397 -170 397 -175 q 401 -161 398 -168 q 404 -152 404 -154 q 402 -147 404 -149 q 399 -144 400 -144 q 399 -83 392 -115 q 404 -77 400 -81 q 408 -71 407 -73 q 409 -54 410 -64 q 410 -37 408 -43 q 414 -28 410 -35 q 418 -22 417 -22 q 423 8 420 -13 q 431 34 425 26 q 439 39 433 36 q 447 46 444 41 q 453 42 451 44 q 487 56 489 56 q 520 46 502 58 q 529 -32 526 18 q 538 -106 532 -80 l 537 -117 l 536 -126 q 538 -138 536 -127 q 542 -152 541 -148 q 541 -170 543 -157 q 542 -190 540 -182 q 547 -197 543 -193 q 552 -205 551 -203 q 549 -217 553 -210 q 552 -235 547 -222 l 556 -237 q 557 -212 560 -227 q 556 -186 555 -193 q 555 -123 559 -168 q 556 -55 552 -80 l 554 -20 q 578 48 562 12 q 582 71 581 55 q 587 94 583 86 l 604 103 l 604 109 q 609 113 605 111 q 615 117 614 115 q 617 125 616 120 l 623 125 q 623 131 624 126 q 623 139 622 136 q 641 167 623 138 q 659 103 654 151 q 667 34 665 39 q 668 -6 669 22 q 673 -41 666 -30 l 673 -43 q 681 -39 674 -43 q 680 44 681 -15 q 681 131 680 97 q 678 146 681 137 q 679 161 676 153 l 679 163 q 675 184 670 170 q 681 204 680 201 q 679 224 680 214 q 690 290 688 257 q 707 245 694 288 q 715 199 711 231 q 724 145 720 161 q 728 101 732 109 q 738 87 728 90 q 734 77 738 80 q 736 72 735 73 q 740 72 736 71 q 743 49 743 63 q 744 28 743 33 q 748 18 745 24 q 752 10 751 12 q 750 -27 751 -9 q 756 -39 757 -44 z "},"P":{"ha":718,"x_min":-37,"x_max":688,"o":"m 295 653 q 329 661 320 655 q 394 652 398 649 q 410 644 399 651 q 351 545 412 581 q 335 547 345 548 l 325 545 q 316 549 322 545 q 305 553 310 551 l 303 555 q 293 650 304 589 q 295 653 294 651 m 264 -128 q 267 -130 264 -130 q 268 -122 269 -127 q 267 -115 267 -117 q 272 -108 268 -113 q 275 -100 276 -104 q 272 -96 275 -99 q 269 -91 269 -94 q 273 -83 269 -90 q 275 -75 276 -78 q 269 -67 275 -74 q 265 -57 264 -61 q 269 -54 266 -56 q 273 -49 273 -52 q 273 -25 275 -45 q 273 4 272 -4 q 277 16 277 20 l 273 20 q 277 50 276 40 q 269 90 267 83 q 275 125 277 115 q 269 145 271 138 q 281 240 290 224 q 260 262 267 254 q 265 271 259 262 q 273 286 273 281 q 273 296 274 288 q 273 307 271 302 q 279 359 284 335 q 309 378 299 368 q 329 370 321 376 q 335 349 334 363 q 338 325 337 332 q 355 212 355 268 q 355 211 355 212 q 357 210 356 210 l 364 210 q 368 275 374 250 q 368 311 363 297 q 374 317 370 314 q 380 323 379 321 q 400 366 411 372 q 404 368 401 368 q 418 354 408 361 q 432 342 429 347 q 436 310 439 331 q 435 273 432 286 q 465 167 467 165 q 463 139 458 154 q 473 109 473 106 l 475 107 l 477 108 l 477 108 q 477 108 475 107 l 478 108 q 478 108 481 109 l 479 108 l 479 109 l 483 109 q 471 234 471 236 q 468 252 471 238 q 467 271 465 264 q 474 286 469 277 q 481 299 480 296 q 482 317 482 302 q 485 337 481 331 l 485 337 l 486 337 q 486 337 484 336 l 486 337 q 486 337 484 336 l 486 337 q 486 337 485 336 q 486 337 486 337 l 486 337 l 488 338 q 488 338 486 337 q 488 338 490 338 l 488 338 q 488 338 488 338 l 489 338 l 490 338 l 490 338 l 490 338 q 490 338 489 338 l 490 338 q 490 338 489 338 l 490 338 l 491 338 l 491 361 q 516 394 497 376 q 545 424 539 416 q 568 396 565 423 q 586 266 582 288 q 588 226 591 239 l 590 226 q 594 224 591 225 q 594 297 605 250 q 598 317 593 303 q 594 331 597 316 l 596 388 l 592 418 q 604 454 594 431 q 614 487 612 475 q 642 439 625 486 l 642 439 l 642 439 l 641 438 l 641 438 l 641 437 l 641 437 l 641 436 q 641 436 641 435 q 641 436 641 438 l 640 435 q 640 435 640 434 q 640 435 641 435 l 640 430 q 646 423 641 427 q 653 416 652 418 q 665 428 663 418 q 656 464 668 435 q 648 509 644 494 q 673 614 675 621 q 673 622 673 616 q 673 633 672 629 q 681 655 671 627 q 680 665 682 659 q 679 671 679 671 q 687 679 684 676 q 685 700 683 688 q 687 719 688 714 q 683 772 679 760 l 669 786 q 649 787 661 786 q 631 788 638 788 q 640 811 632 800 q 649 829 648 826 q 650 841 651 834 q 649 851 649 849 q 594 891 594 890 q 585 911 589 897 q 576 932 581 926 q 560 947 573 937 q 547 964 550 956 q 545 972 545 966 q 534 970 539 972 q 530 976 532 974 q 515 979 528 978 q 497 982 500 981 q 491 989 495 985 q 428 1002 470 994 q 420 994 427 1000 q 414 986 415 989 q 412 970 411 980 q 412 956 413 959 q 394 924 414 961 q 393 924 394 924 q 392 922 393 923 q 384 951 385 931 q 380 978 382 974 q 370 1001 380 989 q 351 1010 359 1013 q 329 1002 330 1001 q 314 1008 326 1003 q 297 1015 302 1014 q 273 1013 288 1019 q 256 1008 259 1007 q 182 1002 218 1017 q 157 1012 157 1012 q 134 1008 151 1013 q 115 1004 117 1004 q 73 1000 125 1003 q 38 1010 46 998 q 8 1008 35 1009 q 3 1003 6 1007 q -3 998 0 999 q -12 1000 -2 1000 q -24 996 -18 999 q -35 989 -33 991 q -37 984 -36 988 q -37 978 -37 980 q -3 946 -16 949 q 32 855 14 873 q 26 836 31 841 q 85 790 33 802 q 111 786 116 783 l 117 784 l 117 782 q 50 762 81 764 q 42 752 46 755 q 51 705 42 736 q 58 655 58 675 q 66 531 55 582 q 64 485 70 509 q 68 461 63 482 q 69 445 68 456 q 71 430 69 435 q 109 390 80 411 q 102 345 119 376 q 87 297 83 313 q 101 224 105 235 q 97 218 101 223 q 94 210 94 213 q 95 205 93 208 q 97 202 97 203 q 96 174 97 193 q 95 146 96 156 q 107 111 107 110 q 101 85 101 85 q 119 42 104 73 q 123 22 122 35 q 127 2 125 8 q 149 -57 151 -66 q 158 -117 151 -64 q 170 -172 164 -165 l 178 -170 q 174 -41 170 -73 l 176 -41 q 188 -111 184 -61 q 198 -184 193 -164 q 199 -213 199 -188 q 200 -245 198 -239 q 210 -283 210 -277 q 209 -288 210 -285 q 208 -294 208 -292 q 213 -302 209 -296 q 218 -311 216 -307 q 219 -325 220 -315 q 218 -336 218 -335 q 228 -380 228 -373 l 230 -380 q 228 -346 233 -369 q 229 -326 226 -338 q 230 -309 231 -313 l 220 -287 q 214 -191 227 -250 q 212 -154 211 -176 q 210 -119 212 -130 q 214 -105 209 -111 q 220 -95 219 -98 q 218 -86 221 -90 q 216 -79 216 -81 l 219 -76 l 220 -75 l 220 -74 q 220 -74 221 -74 q 220 -74 221 -74 q 221 -74 221 -74 q 221 -74 221 -74 l 221 -74 l 221 -74 q 221 -73 224 -71 q 222 -73 221 -74 l 222 -73 q 222 -73 221 -74 l 222 -73 q 222 -73 222 -73 q 220 -51 224 -63 q 222 -20 222 -41 l 228 -20 q 236 32 224 -7 l 240 32 q 250 -24 248 12 q 258 -83 253 -66 q 254 -96 257 -82 q 264 -128 251 -107 z "},"Q":{"ha":811,"x_min":-3,"x_max":806,"o":"m 309 236 q 305 241 308 237 q 301 248 303 247 l 301 248 l 300 248 l 300 248 l 299 248 l 298 248 l 298 248 q 298 249 299 248 l 298 249 l 298 249 l 296 249 l 296 249 l 296 249 l 296 249 q 296 249 295 250 l 295 250 l 295 250 l 294 250 l 294 250 l 290 251 l 289 251 l 288 251 l 288 251 l 287 252 l 286 252 l 286 252 q 258 290 280 256 q 238 355 258 288 q 227 370 237 359 q 216 387 218 380 q 221 411 215 391 q 216 437 226 427 q 192 448 215 439 q 165 459 168 458 l 163 463 q 232 491 231 489 q 233 513 235 498 q 232 536 231 530 q 268 620 247 604 q 262 655 268 647 q 264 665 262 663 q 313 681 271 670 q 309 721 316 703 l 311 721 q 313 723 314 724 l 313 721 q 325 703 315 720 q 331 699 326 701 q 337 695 336 696 q 347 697 345 695 q 366 706 358 698 q 380 719 375 717 q 390 719 385 720 q 398 721 394 718 q 404 715 401 720 q 408 711 406 711 q 425 707 412 709 q 441 703 436 707 q 458 691 462 690 q 473 692 460 690 q 486 693 484 694 q 507 683 513 683 q 516 663 509 677 q 525 644 523 650 q 527 628 527 636 q 531 614 527 621 q 564 615 547 610 q 600 620 585 621 q 572 564 598 607 l 572 556 q 563 547 571 554 q 555 536 556 542 q 564 471 551 524 q 566 452 566 465 q 566 437 565 440 l 566 396 q 556 382 565 391 q 547 366 549 375 l 541 364 q 529 394 532 381 q 531 416 530 409 q 515 445 530 420 q 501 477 503 467 q 495 480 497 478 q 491 483 492 483 q 479 484 486 486 q 465 483 471 481 q 430 491 437 492 q 422 463 420 469 q 428 454 423 460 q 434 444 433 446 q 436 419 436 437 q 441 398 435 406 l 441 396 q 408 426 427 398 q 389 424 415 427 q 376 402 391 425 q 359 387 374 397 q 341 368 345 376 q 329 342 326 340 q 361 303 343 316 l 378 297 q 385 288 381 294 q 391 277 388 280 q 401 271 393 275 q 410 264 408 267 q 418 243 414 258 q 426 224 421 230 q 420 211 425 213 q 408 206 407 205 q 404 200 407 205 q 398 194 400 195 q 353 194 391 191 l 353 206 q 347 214 350 208 q 341 222 343 220 q 326 229 336 227 q 309 236 314 233 m 325 -208 q 337 -259 330 -234 q 342 -299 340 -272 q 347 -338 344 -327 q 347 -384 350 -352 q 353 -421 346 -390 q 352 -434 354 -426 q 353 -445 351 -441 q 359 -452 355 -452 q 364 -450 361 -452 q 370 -449 368 -449 q 369 -334 368 -333 q 361 -253 357 -270 q 366 -236 361 -248 q 372 -219 372 -224 q 373 -200 374 -212 q 372 -184 372 -187 q 376 -159 374 -175 q 378 -136 378 -142 q 414 -14 397 -27 l 414 -12 q 436 -83 439 -21 q 434 -100 435 -103 q 436 -106 434 -102 q 436 -106 437 -107 q 436 -106 439 -107 l 437 -106 l 437 -106 l 437 -106 q 437 -106 439 -107 l 437 -107 q 437 -107 438 -107 l 438 -107 q 438 -107 439 -107 l 439 -107 q 439 -107 439 -107 q 439 -107 439 -107 l 440 -107 l 440 -107 q 440 -107 438 -107 l 441 -107 l 446 -109 q 452 -150 446 -123 q 458 -186 458 -174 q 460 -214 457 -208 q 464 -225 460 -222 q 467 -227 465 -227 q 471 -225 469 -227 q 471 -207 469 -217 q 471 -191 473 -197 q 469 -189 471 -191 q 467 -184 467 -186 q 467 -148 471 -157 q 490 -20 450 -102 q 491 -1 490 -11 q 496 1 493 -1 q 501 4 500 3 q 545 29 515 22 q 586 50 574 35 q 615 31 590 50 q 642 8 639 12 q 648 -5 644 5 q 656 -16 651 -12 l 656 -29 l 663 -27 q 695 -63 684 -41 q 694 -66 694 -64 q 693 -69 694 -68 q 730 -178 696 -72 q 734 -215 734 -189 q 741 -245 733 -236 l 741 -247 q 749 -243 743 -246 q 743 -203 750 -209 q 739 -87 759 -178 q 737 -50 736 -76 q 734 -20 738 -26 l 734 -16 q 756 -67 741 -20 q 764 -81 758 -71 q 770 -96 769 -92 q 786 -162 790 -172 q 791 -199 790 -172 q 796 -229 791 -222 l 796 -233 l 806 -233 q 786 -61 789 -72 l 788 -43 q 785 -31 787 -40 q 782 -22 783 -22 q 736 74 767 18 l 725 85 l 723 105 q 677 165 705 145 q 680 171 678 168 q 683 174 683 174 q 682 179 684 177 q 680 182 680 182 q 683 214 677 197 q 689 220 684 217 q 695 224 694 222 q 696 231 696 225 q 697 240 695 237 l 715 258 q 718 271 718 262 q 721 286 719 280 q 728 297 722 288 q 734 309 734 306 q 727 335 735 311 q 734 351 727 338 q 736 366 740 360 q 707 396 735 393 l 707 402 q 747 426 741 408 q 749 452 751 433 q 749 483 747 474 q 764 553 747 475 q 761 574 766 562 q 756 590 755 585 q 758 648 762 623 q 758 747 745 730 q 749 770 758 755 q 703 786 698 789 q 705 808 705 800 l 711 808 q 719 814 713 810 q 727 820 725 817 q 732 829 736 833 q 713 891 734 850 l 711 909 q 658 966 688 957 l 658 972 q 643 984 648 974 q 632 1000 635 997 q 614 1008 625 1004 q 596 1015 600 1013 q 576 1034 596 1015 q 527 1046 566 1042 q 473 1041 486 1050 q 446 984 483 1045 q 428 956 428 954 q 425 955 427 956 q 422 954 423 954 q 420 963 421 957 q 418 974 420 970 q 415 977 418 975 l 412 978 q 414 986 414 983 q 398 1019 397 1025 q 399 1046 396 1027 q 398 1069 402 1062 q 393 1074 397 1072 q 387 1079 388 1077 q 359 1071 374 1078 q 335 1061 342 1063 q 315 1067 328 1059 q 290 1051 300 1065 q 264 1051 268 1053 q 257 1046 262 1050 q 246 1038 252 1042 q 214 1036 231 1047 q 210 1028 212 1034 q 206 1021 208 1023 q 197 1021 203 1021 q 186 1019 190 1020 l 186 1015 q 176 1010 183 1013 q 165 1006 168 1008 q 163 1000 164 1004 q 151 994 159 997 q 139 989 142 992 q 104 939 126 982 q 100 920 102 929 q 84 905 96 914 q 70 891 73 896 q 66 875 66 886 q 64 861 64 863 q 57 848 62 857 q 50 838 51 840 q 45 810 45 828 q 40 782 44 791 q 24 753 39 778 q 10 723 13 735 q 12 696 9 717 q 3 675 13 684 q 7 659 5 665 q 40 644 19 656 q 72 629 60 632 q 39 607 70 616 q 5 580 7 598 q 7 565 4 577 q 8 547 10 553 q 10 463 -3 503 l 10 454 q 18 447 12 452 q 24 439 23 443 q 26 425 26 434 q 26 412 26 414 q 30 401 27 409 q 34 392 34 394 q 33 368 34 383 q 32 345 33 350 q 48 275 46 280 q 49 256 50 270 q 48 238 47 241 q 50 165 56 197 q 47 160 50 164 q 46 155 45 157 q 54 133 47 150 q 60 109 59 121 l 66 107 q 68 141 77 128 q 78 146 69 142 q 81 178 76 161 q 87 206 87 201 l 90 206 q 94 193 93 198 q 98 193 95 193 q 104 194 102 194 q 123 176 124 175 q 129 153 125 169 q 135 149 130 151 q 141 145 140 146 q 145 132 144 140 q 149 119 146 123 q 164 102 152 114 q 178 85 176 92 l 184 54 q 188 51 186 53 q 191 48 189 49 q 196 5 196 35 q 199 -35 196 -26 q 214 -100 210 -79 l 214 -124 q 218 -127 215 -126 q 222 -130 222 -130 q 228 -166 228 -140 q 231 -178 228 -171 q 236 -188 236 -187 q 234 -201 235 -199 q 242 -243 243 -226 q 244 -262 241 -249 q 244 -277 245 -273 l 244 -281 q 250 -279 246 -280 q 256 -279 254 -279 q 254 -269 256 -275 q 250 -259 250 -262 q 252 -254 250 -256 q 254 -251 254 -252 q 252 -212 253 -238 q 244 -178 243 -172 l 248 -162 q 244 -151 248 -159 q 240 -140 241 -144 q 246 -120 241 -143 l 244 -100 q 250 -71 244 -100 l 248 -55 q 250 -33 248 -53 q 254 -9 251 -19 q 260 1 255 -5 q 266 12 264 7 q 297 14 291 19 l 307 14 q 311 -22 313 -12 q 305 -45 306 -47 q 316 -103 311 -67 q 325 -154 321 -139 q 326 -181 327 -162 q 325 -208 323 -201 z "}}}
